<ttFont>
    <TTGlyph name="A" xMin="21" yMin="-7" xMax="587" yMax="687">
      <contour>
        <pt x="429" y="169" on="1"/>
        <pt x="368" y="168" on="1"/>
        <pt x="231" y="168" on="1"/>
        <pt x="170" y="169" on="1"/>
        <pt x="116" y="-1" on="1"/>
        <pt x="100" y="-5" on="0"/>
        <pt x="49" y="-5" on="0"/>
        <pt x="24" y="2" on="1"/>
        <pt x="21" y="7" on="1"/>
        <pt x="248" y="683" on="1"/>
        <pt x="268" y="687" on="0"/>
        <pt x="344" y="687" on="0"/>
        <pt x="361" y="683" on="1"/>
        <pt x="587" y="6" on="1"/>
        <pt x="565" y="-7" on="0"/>
        <pt x="504" y="-7" on="0"/>
        <pt x="479" y="15" on="0"/>
        <pt x="469" y="46" on="1"/>
      </contour>
      <contour>
        <pt x="196" y="250" on="1"/>
        <pt x="249" y="251" on="1"/>
        <pt x="352" y="251" on="1"/>
        <pt x="354" y="251" on="0"/>
        <pt x="394" y="250" on="0"/>
        <pt x="403" y="250" on="1"/>
        <pt x="354" y="405" on="1"/>
        <pt x="324" y="496" on="0"/>
        <pt x="302" y="583" on="1"/>
        <pt x="296" y="583" on="1"/>
        <pt x="280" y="511" on="0"/>
        <pt x="258" y="444" on="1"/>
      </contour>
    </TTGlyph>
    <TTGlyph name="AE" xMin="16" yMin="-5" xMax="826" yMax="683">
      <contour>
        <pt x="402" y="169" on="1"/>
        <pt x="345" y="168" on="1"/>
        <pt x="256" y="168" on="1"/>
        <pt x="201" y="169" on="1"/>
        <pt x="118" y="-1" on="1"/>
        <pt x="99" y="-5" on="0"/>
        <pt x="43" y="-5" on="0"/>
        <pt x="20" y="2" on="1"/>
        <pt x="16" y="7" on="1"/>
        <pt x="349" y="673" on="1"/>
        <pt x="368" y="683" on="0"/>
        <pt x="408" y="683" on="1"/>
        <pt x="807" y="683" on="1"/>
        <pt x="810" y="668" on="0"/>
        <pt x="810" y="619" on="0"/>
        <pt x="803" y="598" on="1"/>
        <pt x="561" y="598" on="1"/>
        <pt x="521" y="598" on="0"/>
        <pt x="498" y="599" on="1"/>
        <pt x="499" y="534" on="1"/>
        <pt x="499" y="386" on="1"/>
        <pt x="561" y="387" on="1"/>
        <pt x="753" y="387" on="1"/>
        <pt x="758" y="369" on="0"/>
        <pt x="758" y="320" on="0"/>
        <pt x="753" y="303" on="1"/>
        <pt x="561" y="303" on="1"/>
        <pt x="522" y="303" on="0"/>
        <pt x="499" y="304" on="1"/>
        <pt x="499" y="131" on="1"/>
        <pt x="499" y="123" on="0"/>
        <pt x="498" y="91" on="0"/>
        <pt x="498" y="82" on="1"/>
        <pt x="526" y="85" on="0"/>
        <pt x="563" y="85" on="1"/>
        <pt x="826" y="85" on="1"/>
        <pt x="826" y="59" on="0"/>
        <pt x="824" y="46" on="1"/>
        <pt x="815" y="-1" on="0"/>
        <pt x="760" y="-1" on="1"/>
        <pt x="459" y="-1" on="1"/>
        <pt x="433" y="-1" on="0"/>
        <pt x="402" y="32" on="0"/>
        <pt x="402" y="61" on="1"/>
      </contour>
      <contour>
        <pt x="346" y="251" on="1"/>
        <pt x="402" y="250" on="1"/>
        <pt x="402" y="583" on="1"/>
        <pt x="397" y="583" on="1"/>
        <pt x="370" y="516" on="0"/>
        <pt x="336" y="444" on="1"/>
        <pt x="241" y="250" on="1"/>
        <pt x="282" y="251" on="1"/>
      </contour>
    </TTGlyph>
    <TTGlyph name="Aacute" xMin="21" yMin="-7" xMax="587" yMax="898">
      <contour>
        <pt x="429" y="169" on="1"/>
        <pt x="368" y="168" on="1"/>
        <pt x="231" y="168" on="1"/>
        <pt x="170" y="169" on="1"/>
        <pt x="116" y="-1" on="1"/>
        <pt x="100" y="-5" on="0"/>
        <pt x="49" y="-5" on="0"/>
        <pt x="24" y="2" on="1"/>
        <pt x="21" y="7" on="1"/>
        <pt x="248" y="683" on="1"/>
        <pt x="268" y="687" on="0"/>
        <pt x="344" y="687" on="0"/>
        <pt x="361" y="683" on="1"/>
        <pt x="587" y="6" on="1"/>
        <pt x="565" y="-7" on="0"/>
        <pt x="504" y="-7" on="0"/>
        <pt x="479" y="15" on="0"/>
        <pt x="469" y="46" on="1"/>
      </contour>
      <contour>
        <pt x="196" y="250" on="1"/>
        <pt x="249" y="251" on="1"/>
        <pt x="352" y="251" on="1"/>
        <pt x="354" y="251" on="0"/>
        <pt x="394" y="250" on="0"/>
        <pt x="403" y="250" on="1"/>
        <pt x="354" y="405" on="1"/>
        <pt x="324" y="496" on="0"/>
        <pt x="302" y="583" on="1"/>
        <pt x="296" y="583" on="1"/>
        <pt x="280" y="511" on="0"/>
        <pt x="258" y="444" on="1"/>
      </contour>
      <contour>
        <pt x="207" y="779" on="1"/>
        <pt x="407" y="898" on="1"/>
        <pt x="422" y="887" on="0"/>
        <pt x="448" y="841" on="0"/>
        <pt x="451" y="817" on="1"/>
        <pt x="236" y="728" on="1"/>
        <pt x="211" y="745" on="0"/>
      </contour>
    </TTGlyph>
    <TTGlyph name="Acircumflex" xMin="21" yMin="-7" xMax="587" yMax="890">
      <contour>
        <pt x="429" y="169" on="1"/>
        <pt x="368" y="168" on="1"/>
        <pt x="231" y="168" on="1"/>
        <pt x="170" y="169" on="1"/>
        <pt x="116" y="-1" on="1"/>
        <pt x="100" y="-5" on="0"/>
        <pt x="49" y="-5" on="0"/>
        <pt x="24" y="2" on="1"/>
        <pt x="21" y="7" on="1"/>
        <pt x="248" y="683" on="1"/>
        <pt x="268" y="687" on="0"/>
        <pt x="344" y="687" on="0"/>
        <pt x="361" y="683" on="1"/>
        <pt x="587" y="6" on="1"/>
        <pt x="565" y="-7" on="0"/>
        <pt x="504" y="-7" on="0"/>
        <pt x="479" y="15" on="0"/>
        <pt x="469" y="46" on="1"/>
      </contour>
      <contour>
        <pt x="196" y="250" on="1"/>
        <pt x="249" y="251" on="1"/>
        <pt x="352" y="251" on="1"/>
        <pt x="354" y="251" on="0"/>
        <pt x="394" y="250" on="0"/>
        <pt x="403" y="250" on="1"/>
        <pt x="354" y="405" on="1"/>
        <pt x="324" y="496" on="0"/>
        <pt x="302" y="583" on="1"/>
        <pt x="296" y="583" on="1"/>
        <pt x="280" y="511" on="0"/>
        <pt x="258" y="444" on="1"/>
      </contour>
      <contour>
        <pt x="416" y="737" on="1"/>
        <pt x="304" y="812" on="1"/>
        <pt x="190" y="730" on="1"/>
        <pt x="177" y="735" on="0"/>
        <pt x="151" y="760" on="0"/>
        <pt x="147" y="774" on="1"/>
        <pt x="261" y="885" on="1"/>
        <pt x="282" y="890" on="0"/>
        <pt x="326" y="890" on="0"/>
        <pt x="348" y="885" on="1"/>
        <pt x="459" y="780" on="1"/>
        <pt x="454" y="765" on="0"/>
        <pt x="429" y="741" on="0"/>
      </contour>
    </TTGlyph>
    <TTGlyph name="Adieresis" xMin="21" yMin="-7" xMax="587" yMax="839">
      <contour>
        <pt x="429" y="169" on="1"/>
        <pt x="368" y="168" on="1"/>
        <pt x="231" y="168" on="1"/>
        <pt x="170" y="169" on="1"/>
        <pt x="116" y="-1" on="1"/>
        <pt x="100" y="-5" on="0"/>
        <pt x="49" y="-5" on="0"/>
        <pt x="24" y="2" on="1"/>
        <pt x="21" y="7" on="1"/>
        <pt x="248" y="683" on="1"/>
        <pt x="268" y="687" on="0"/>
        <pt x="344" y="687" on="0"/>
        <pt x="361" y="683" on="1"/>
        <pt x="587" y="6" on="1"/>
        <pt x="565" y="-7" on="0"/>
        <pt x="504" y="-7" on="0"/>
        <pt x="479" y="15" on="0"/>
        <pt x="469" y="46" on="1"/>
      </contour>
      <contour>
        <pt x="196" y="250" on="1"/>
        <pt x="249" y="251" on="1"/>
        <pt x="352" y="251" on="1"/>
        <pt x="354" y="251" on="0"/>
        <pt x="394" y="250" on="0"/>
        <pt x="403" y="250" on="1"/>
        <pt x="354" y="405" on="1"/>
        <pt x="324" y="496" on="0"/>
        <pt x="302" y="583" on="1"/>
        <pt x="296" y="583" on="1"/>
        <pt x="280" y="511" on="0"/>
        <pt x="258" y="444" on="1"/>
      </contour>
      <contour>
        <pt x="382" y="839" on="0"/>
        <pt x="436" y="839" on="0"/>
        <pt x="456" y="828" on="1"/>
        <pt x="464" y="811" on="0"/>
        <pt x="464" y="764" on="0"/>
        <pt x="456" y="747" on="1"/>
        <pt x="439" y="736" on="0"/>
        <pt x="379" y="736" on="0"/>
        <pt x="362" y="747" on="1"/>
        <pt x="353" y="764" on="0"/>
        <pt x="353" y="811" on="0"/>
        <pt x="362" y="828" on="1"/>
      </contour>
      <contour>
        <pt x="174" y="839" on="0"/>
        <pt x="228" y="839" on="0"/>
        <pt x="248" y="828" on="1"/>
        <pt x="257" y="811" on="0"/>
        <pt x="257" y="764" on="0"/>
        <pt x="248" y="747" on="1"/>
        <pt x="231" y="736" on="0"/>
        <pt x="171" y="736" on="0"/>
        <pt x="154" y="747" on="1"/>
        <pt x="146" y="764" on="0"/>
        <pt x="146" y="811" on="0"/>
        <pt x="154" y="828" on="1"/>
      </contour>
    </TTGlyph>
    <TTGlyph name="Agrave" xMin="21" yMin="-7" xMax="587" yMax="898">
      <contour>
        <pt x="429" y="169" on="1"/>
        <pt x="368" y="168" on="1"/>
        <pt x="231" y="168" on="1"/>
        <pt x="170" y="169" on="1"/>
        <pt x="116" y="-1" on="1"/>
        <pt x="100" y="-5" on="0"/>
        <pt x="49" y="-5" on="0"/>
        <pt x="24" y="2" on="1"/>
        <pt x="21" y="7" on="1"/>
        <pt x="248" y="683" on="1"/>
        <pt x="268" y="687" on="0"/>
        <pt x="344" y="687" on="0"/>
        <pt x="361" y="683" on="1"/>
        <pt x="587" y="6" on="1"/>
        <pt x="565" y="-7" on="0"/>
        <pt x="504" y="-7" on="0"/>
        <pt x="479" y="15" on="0"/>
        <pt x="469" y="46" on="1"/>
      </contour>
      <contour>
        <pt x="196" y="250" on="1"/>
        <pt x="249" y="251" on="1"/>
        <pt x="352" y="251" on="1"/>
        <pt x="354" y="251" on="0"/>
        <pt x="394" y="250" on="0"/>
        <pt x="403" y="250" on="1"/>
        <pt x="354" y="405" on="1"/>
        <pt x="324" y="496" on="0"/>
        <pt x="302" y="583" on="1"/>
        <pt x="296" y="583" on="1"/>
        <pt x="280" y="511" on="0"/>
        <pt x="258" y="444" on="1"/>
      </contour>
      <contour>
        <pt x="216" y="898" on="1"/>
        <pt x="416" y="779" on="1"/>
        <pt x="410" y="743" on="0"/>
        <pt x="387" y="728" on="1"/>
        <pt x="172" y="817" on="1"/>
        <pt x="175" y="841" on="0"/>
        <pt x="201" y="887" on="0"/>
      </contour>
    </TTGlyph>
    <TTGlyph name="Aogonek" xMin="21" yMin="-217" xMax="630" yMax="687">
      <contour>
        <pt x="231" y="168" on="1"/>
        <pt x="170" y="169" on="1"/>
        <pt x="116" y="-1" on="1"/>
        <pt x="100" y="-5" on="0"/>
        <pt x="49" y="-5" on="0"/>
        <pt x="24" y="2" on="1"/>
        <pt x="21" y="7" on="1"/>
        <pt x="248" y="683" on="1"/>
        <pt x="268" y="687" on="0"/>
        <pt x="344" y="687" on="0"/>
        <pt x="361" y="683" on="1"/>
        <pt x="587" y="6" on="1"/>
        <pt x="498" y="-50" on="0"/>
        <pt x="498" y="-105" on="1"/>
        <pt x="498" y="-127" on="0"/>
        <pt x="525" y="-151" on="0"/>
        <pt x="579" y="-151" on="0"/>
        <pt x="607" y="-134" on="1"/>
        <pt x="629" y="-154" on="0"/>
        <pt x="630" y="-183" on="1"/>
        <pt x="589" y="-217" on="0"/>
        <pt x="478" y="-217" on="0"/>
        <pt x="419" y="-167" on="0"/>
        <pt x="419" y="-124" on="1"/>
        <pt x="419" y="-55" on="0"/>
        <pt x="492" y="3" on="1"/>
        <pt x="478" y="14" on="0"/>
        <pt x="469" y="46" on="1"/>
        <pt x="429" y="169" on="1"/>
        <pt x="368" y="168" on="1"/>
      </contour>
      <contour>
        <pt x="196" y="250" on="1"/>
        <pt x="249" y="251" on="1"/>
        <pt x="352" y="251" on="1"/>
        <pt x="354" y="251" on="0"/>
        <pt x="394" y="250" on="0"/>
        <pt x="403" y="250" on="1"/>
        <pt x="354" y="405" on="1"/>
        <pt x="324" y="496" on="0"/>
        <pt x="302" y="583" on="1"/>
        <pt x="296" y="583" on="1"/>
        <pt x="280" y="511" on="0"/>
        <pt x="258" y="444" on="1"/>
      </contour>
    </TTGlyph>
    <TTGlyph name="Aring" xMin="21" yMin="-7" xMax="587" yMax="891">
      <contour>
        <pt x="429" y="169" on="1"/>
        <pt x="368" y="168" on="1"/>
        <pt x="231" y="168" on="1"/>
        <pt x="170" y="169" on="1"/>
        <pt x="116" y="-1" on="1"/>
        <pt x="100" y="-5" on="0"/>
        <pt x="49" y="-5" on="0"/>
        <pt x="24" y="2" on="1"/>
        <pt x="21" y="7" on="1"/>
        <pt x="247" y="681" on="1"/>
        <pt x="186" y="712" on="0"/>
        <pt x="186" y="780" on="1"/>
        <pt x="186" y="827" on="0"/>
        <pt x="253" y="891" on="0"/>
        <pt x="356" y="891" on="0"/>
        <pt x="423" y="826" on="0"/>
        <pt x="423" y="787" on="1"/>
        <pt x="423" y="711" on="0"/>
        <pt x="361" y="681" on="1"/>
        <pt x="587" y="6" on="1"/>
        <pt x="565" y="-7" on="0"/>
        <pt x="504" y="-7" on="0"/>
        <pt x="479" y="15" on="0"/>
        <pt x="469" y="46" on="1"/>
      </contour>
      <contour>
        <pt x="196" y="250" on="1"/>
        <pt x="249" y="251" on="1"/>
        <pt x="352" y="251" on="1"/>
        <pt x="354" y="251" on="0"/>
        <pt x="394" y="250" on="0"/>
        <pt x="403" y="250" on="1"/>
        <pt x="354" y="405" on="1"/>
        <pt x="324" y="496" on="0"/>
        <pt x="302" y="583" on="1"/>
        <pt x="296" y="583" on="1"/>
        <pt x="280" y="511" on="0"/>
        <pt x="258" y="444" on="1"/>
      </contour>
      <contour>
        <pt x="283" y="835" on="0"/>
        <pt x="254" y="803" on="0"/>
        <pt x="254" y="756" on="0"/>
        <pt x="283" y="725" on="0"/>
        <pt x="327" y="725" on="0"/>
        <pt x="355" y="756" on="0"/>
        <pt x="355" y="803" on="0"/>
        <pt x="327" y="835" on="0"/>
      </contour>
    </TTGlyph>
    <TTGlyph name="Atilde" xMin="21" yMin="-7" xMax="587" yMax="873">
      <contour>
        <pt x="429" y="169" on="1"/>
        <pt x="368" y="168" on="1"/>
        <pt x="231" y="168" on="1"/>
        <pt x="170" y="169" on="1"/>
        <pt x="116" y="-1" on="1"/>
        <pt x="100" y="-5" on="0"/>
        <pt x="49" y="-5" on="0"/>
        <pt x="24" y="2" on="1"/>
        <pt x="21" y="7" on="1"/>
        <pt x="248" y="683" on="1"/>
        <pt x="268" y="687" on="0"/>
        <pt x="344" y="687" on="0"/>
        <pt x="361" y="683" on="1"/>
        <pt x="587" y="6" on="1"/>
        <pt x="565" y="-7" on="0"/>
        <pt x="504" y="-7" on="0"/>
        <pt x="479" y="15" on="0"/>
        <pt x="469" y="46" on="1"/>
      </contour>
      <contour>
        <pt x="196" y="250" on="1"/>
        <pt x="249" y="251" on="1"/>
        <pt x="352" y="251" on="1"/>
        <pt x="354" y="251" on="0"/>
        <pt x="394" y="250" on="0"/>
        <pt x="403" y="250" on="1"/>
        <pt x="354" y="405" on="1"/>
        <pt x="324" y="496" on="0"/>
        <pt x="302" y="583" on="1"/>
        <pt x="296" y="583" on="1"/>
        <pt x="280" y="511" on="0"/>
        <pt x="258" y="444" on="1"/>
      </contour>
      <contour>
        <pt x="317" y="756" on="1"/>
        <pt x="260" y="783" on="1"/>
        <pt x="240" y="792" on="0"/>
        <pt x="205" y="792" on="0"/>
        <pt x="187" y="767" on="1"/>
        <pt x="175" y="753" on="1"/>
        <pt x="160" y="753" on="0"/>
        <pt x="132" y="770" on="0"/>
        <pt x="127" y="782" on="1"/>
        <pt x="135" y="802" on="1"/>
        <pt x="149" y="835" on="0"/>
        <pt x="203" y="873" on="0"/>
        <pt x="263" y="873" on="0"/>
        <pt x="293" y="858" on="1"/>
        <pt x="350" y="831" on="1"/>
        <pt x="366" y="822" on="0"/>
        <pt x="404" y="822" on="0"/>
        <pt x="423" y="847" on="1"/>
        <pt x="435" y="861" on="1"/>
        <pt x="449" y="861" on="0"/>
        <pt x="477" y="844" on="0"/>
        <pt x="483" y="831" on="1"/>
        <pt x="475" y="812" on="1"/>
        <pt x="459" y="778" on="0"/>
        <pt x="406" y="741" on="0"/>
        <pt x="351" y="741" on="0"/>
      </contour>
    </TTGlyph>
    <TTGlyph name="B" xMin="92" yMin="-4" xMax="553" yMax="687">
      <contour>
        <pt x="316" y="-4" on="1"/>
        <pt x="99" y="-1" on="1"/>
        <pt x="92" y="6" on="1"/>
        <pt x="92" y="677" on="1"/>
        <pt x="99" y="684" on="1"/>
        <pt x="304" y="687" on="1"/>
        <pt x="412" y="687" on="0"/>
        <pt x="521" y="592" on="0"/>
        <pt x="521" y="506" on="1"/>
        <pt x="521" y="459" on="0"/>
        <pt x="468" y="381" on="0"/>
        <pt x="425" y="365" on="1"/>
        <pt x="479" y="350" on="0"/>
        <pt x="553" y="254" on="0"/>
        <pt x="553" y="191" on="1"/>
        <pt x="553" y="104" on="0"/>
        <pt x="436" y="-4" on="0"/>
      </contour>
      <contour>
        <pt x="310" y="320" on="1"/>
        <pt x="191" y="320" on="1"/>
        <pt x="191" y="72" on="1"/>
        <pt x="235" y="73" on="0"/>
        <pt x="357" y="73" on="0"/>
        <pt x="413" y="96" on="0"/>
        <pt x="426" y="116" on="1"/>
        <pt x="450" y="153" on="0"/>
        <pt x="450" y="244" on="0"/>
        <pt x="385" y="320" on="0"/>
      </contour>
      <contour>
        <pt x="191" y="610" on="1"/>
        <pt x="191" y="398" on="1"/>
        <pt x="300" y="398" on="1"/>
        <pt x="366" y="398" on="0"/>
        <pt x="419" y="460" on="0"/>
        <pt x="419" y="504" on="1"/>
        <pt x="419" y="609" on="0"/>
        <pt x="302" y="609" on="1"/>
        <pt x="225" y="609" on="0"/>
      </contour>
    </TTGlyph>
    <TTGlyph name="C" xMin="51" yMin="-13" xMax="562" yMax="696">
      <contour>
        <pt x="464" y="451" on="1"/>
        <pt x="464" y="454" on="0"/>
        <pt x="464" y="495" on="0"/>
        <pt x="441" y="562" on="0"/>
        <pt x="373" y="614" on="0"/>
        <pt x="321" y="614" on="1"/>
        <pt x="240" y="614" on="0"/>
        <pt x="156" y="474" on="0"/>
        <pt x="156" y="213" on="0"/>
        <pt x="246" y="74" on="0"/>
        <pt x="412" y="74" on="0"/>
        <pt x="505" y="151" on="1"/>
        <pt x="545" y="125" on="0"/>
        <pt x="555" y="86" on="1"/>
        <pt x="512" y="42" on="0"/>
        <pt x="382" y="-13" on="0"/>
        <pt x="241" y="-13" on="0"/>
        <pt x="138" y="46" on="0"/>
        <pt x="108" y="96" on="1"/>
        <pt x="51" y="195" on="0"/>
        <pt x="51" y="338" on="1"/>
        <pt x="51" y="515" on="0"/>
        <pt x="205" y="696" on="0"/>
        <pt x="429" y="696" on="0"/>
        <pt x="562" y="580" on="0"/>
        <pt x="562" y="502" on="1"/>
        <pt x="562" y="445" on="0"/>
        <pt x="505" y="445" on="1"/>
        <pt x="487" y="445" on="0"/>
      </contour>
    </TTGlyph>
    <TTGlyph name="Cacute" xMin="51" yMin="-13" xMax="562" yMax="899">
      <contour>
        <pt x="464" y="451" on="1"/>
        <pt x="464" y="454" on="0"/>
        <pt x="464" y="495" on="0"/>
        <pt x="441" y="562" on="0"/>
        <pt x="373" y="614" on="0"/>
        <pt x="321" y="614" on="1"/>
        <pt x="240" y="614" on="0"/>
        <pt x="156" y="474" on="0"/>
        <pt x="156" y="213" on="0"/>
        <pt x="246" y="74" on="0"/>
        <pt x="412" y="74" on="0"/>
        <pt x="505" y="151" on="1"/>
        <pt x="545" y="125" on="0"/>
        <pt x="555" y="86" on="1"/>
        <pt x="512" y="42" on="0"/>
        <pt x="382" y="-13" on="0"/>
        <pt x="241" y="-13" on="0"/>
        <pt x="138" y="46" on="0"/>
        <pt x="108" y="96" on="1"/>
        <pt x="51" y="195" on="0"/>
        <pt x="51" y="338" on="1"/>
        <pt x="51" y="515" on="0"/>
        <pt x="205" y="696" on="0"/>
        <pt x="429" y="696" on="0"/>
        <pt x="562" y="580" on="0"/>
        <pt x="562" y="502" on="1"/>
        <pt x="562" y="445" on="0"/>
        <pt x="505" y="445" on="1"/>
        <pt x="487" y="445" on="0"/>
      </contour>
      <contour>
        <pt x="223" y="780" on="1"/>
        <pt x="423" y="899" on="1"/>
        <pt x="438" y="888" on="0"/>
        <pt x="464" y="842" on="0"/>
        <pt x="467" y="818" on="1"/>
        <pt x="252" y="729" on="1"/>
        <pt x="227" y="746" on="0"/>
      </contour>
    </TTGlyph>
    <TTGlyph name="Ccaron" xMin="51" yMin="-13" xMax="562" yMax="897">
      <contour>
        <pt x="464" y="451" on="1"/>
        <pt x="464" y="454" on="0"/>
        <pt x="464" y="495" on="0"/>
        <pt x="441" y="562" on="0"/>
        <pt x="373" y="614" on="0"/>
        <pt x="321" y="614" on="1"/>
        <pt x="240" y="614" on="0"/>
        <pt x="156" y="474" on="0"/>
        <pt x="156" y="213" on="0"/>
        <pt x="246" y="74" on="0"/>
        <pt x="412" y="74" on="0"/>
        <pt x="505" y="151" on="1"/>
        <pt x="545" y="125" on="0"/>
        <pt x="555" y="86" on="1"/>
        <pt x="512" y="42" on="0"/>
        <pt x="382" y="-13" on="0"/>
        <pt x="241" y="-13" on="0"/>
        <pt x="138" y="46" on="0"/>
        <pt x="108" y="96" on="1"/>
        <pt x="51" y="195" on="0"/>
        <pt x="51" y="338" on="1"/>
        <pt x="51" y="515" on="0"/>
        <pt x="205" y="696" on="0"/>
        <pt x="429" y="696" on="0"/>
        <pt x="562" y="580" on="0"/>
        <pt x="562" y="502" on="1"/>
        <pt x="562" y="445" on="0"/>
        <pt x="505" y="445" on="1"/>
        <pt x="487" y="445" on="0"/>
      </contour>
      <contour>
        <pt x="208" y="890" on="1"/>
        <pt x="319" y="815" on="1"/>
        <pt x="434" y="897" on="1"/>
        <pt x="447" y="892" on="0"/>
        <pt x="473" y="867" on="0"/>
        <pt x="477" y="854" on="1"/>
        <pt x="363" y="742" on="1"/>
        <pt x="339" y="738" on="0"/>
        <pt x="296" y="738" on="0"/>
        <pt x="276" y="742" on="1"/>
        <pt x="164" y="847" on="1"/>
        <pt x="174" y="879" on="0"/>
      </contour>
    </TTGlyph>
    <TTGlyph name="Ccedilla" xMin="51" yMin="-222" xMax="562" yMax="696">
      <contour>
        <pt x="263" y="-74" on="1"/>
        <pt x="273" y="-40" on="0"/>
        <pt x="284" y="-11" on="1"/>
        <pt x="223" y="-6" on="0"/>
        <pt x="130" y="56" on="0"/>
        <pt x="104" y="106" on="1"/>
        <pt x="51" y="204" on="0"/>
        <pt x="51" y="338" on="1"/>
        <pt x="51" y="515" on="0"/>
        <pt x="205" y="696" on="0"/>
        <pt x="429" y="696" on="0"/>
        <pt x="562" y="580" on="0"/>
        <pt x="562" y="502" on="1"/>
        <pt x="562" y="445" on="0"/>
        <pt x="505" y="445" on="1"/>
        <pt x="487" y="445" on="0"/>
        <pt x="464" y="451" on="1"/>
        <pt x="464" y="454" on="0"/>
        <pt x="464" y="495" on="0"/>
        <pt x="441" y="562" on="0"/>
        <pt x="373" y="614" on="0"/>
        <pt x="321" y="614" on="1"/>
        <pt x="240" y="614" on="0"/>
        <pt x="156" y="474" on="0"/>
        <pt x="156" y="213" on="0"/>
        <pt x="246" y="74" on="0"/>
        <pt x="412" y="74" on="0"/>
        <pt x="505" y="151" on="1"/>
        <pt x="545" y="125" on="0"/>
        <pt x="555" y="86" on="1"/>
        <pt x="471" y="2" on="0"/>
        <pt x="346" y="-11" on="1"/>
        <pt x="337" y="-29" on="0"/>
        <pt x="335" y="-37" on="1"/>
        <pt x="376" y="-40" on="0"/>
        <pt x="427" y="-88" on="0"/>
        <pt x="427" y="-168" on="0"/>
        <pt x="360" y="-222" on="0"/>
        <pt x="263" y="-222" on="0"/>
        <pt x="231" y="-203" on="1"/>
        <pt x="232" y="-177" on="0"/>
        <pt x="252" y="-152" on="1"/>
        <pt x="273" y="-166" on="0"/>
        <pt x="325" y="-166" on="0"/>
        <pt x="348" y="-143" on="0"/>
        <pt x="348" y="-109" on="0"/>
        <pt x="325" y="-86" on="0"/>
        <pt x="292" y="-86" on="0"/>
        <pt x="280" y="-91" on="1"/>
        <pt x="268" y="-86" on="0"/>
      </contour>
    </TTGlyph>
    <TTGlyph name="D" xMin="92" yMin="-5" xMax="593" yMax="687">
      <contour>
        <pt x="549" y="585" on="0"/>
        <pt x="593" y="441" on="0"/>
        <pt x="593" y="240" on="0"/>
        <pt x="550" y="97" on="0"/>
        <pt x="488" y="46" on="1"/>
        <pt x="458" y="21" on="0"/>
        <pt x="359" y="-5" on="0"/>
        <pt x="273" y="-5" on="0"/>
        <pt x="99" y="-1" on="1"/>
        <pt x="92" y="6" on="1"/>
        <pt x="92" y="677" on="1"/>
        <pt x="99" y="684" on="1"/>
        <pt x="185" y="687" on="0"/>
        <pt x="315" y="687" on="1"/>
        <pt x="359" y="687" on="0"/>
        <pt x="458" y="661" on="0"/>
        <pt x="488" y="636" on="1"/>
      </contour>
      <contour>
        <pt x="192" y="77" on="1"/>
        <pt x="314" y="76" on="1"/>
        <pt x="358" y="76" on="0"/>
        <pt x="423" y="109" on="0"/>
        <pt x="460" y="159" on="0"/>
        <pt x="482" y="233" on="0"/>
        <pt x="489" y="300" on="0"/>
        <pt x="489" y="382" on="0"/>
        <pt x="482" y="449" on="0"/>
        <pt x="460" y="523" on="0"/>
        <pt x="423" y="573" on="0"/>
        <pt x="358" y="606" on="0"/>
        <pt x="314" y="606" on="1"/>
        <pt x="192" y="607" on="1"/>
      </contour>
    </TTGlyph>
    <TTGlyph name="Dcaron" xMin="92" yMin="-5" xMax="593" yMax="896">
      <contour>
        <pt x="549" y="585" on="0"/>
        <pt x="593" y="441" on="0"/>
        <pt x="593" y="240" on="0"/>
        <pt x="550" y="97" on="0"/>
        <pt x="488" y="46" on="1"/>
        <pt x="458" y="21" on="0"/>
        <pt x="359" y="-5" on="0"/>
        <pt x="273" y="-5" on="0"/>
        <pt x="99" y="-1" on="1"/>
        <pt x="92" y="6" on="1"/>
        <pt x="92" y="677" on="1"/>
        <pt x="99" y="684" on="1"/>
        <pt x="185" y="687" on="0"/>
        <pt x="315" y="687" on="1"/>
        <pt x="359" y="687" on="0"/>
        <pt x="458" y="661" on="0"/>
        <pt x="488" y="636" on="1"/>
      </contour>
      <contour>
        <pt x="192" y="77" on="1"/>
        <pt x="314" y="76" on="1"/>
        <pt x="358" y="76" on="0"/>
        <pt x="423" y="109" on="0"/>
        <pt x="460" y="159" on="0"/>
        <pt x="482" y="233" on="0"/>
        <pt x="489" y="300" on="0"/>
        <pt x="489" y="382" on="0"/>
        <pt x="482" y="449" on="0"/>
        <pt x="460" y="523" on="0"/>
        <pt x="423" y="573" on="0"/>
        <pt x="358" y="606" on="0"/>
        <pt x="314" y="606" on="1"/>
        <pt x="192" y="607" on="1"/>
      </contour>
      <contour>
        <pt x="194" y="889" on="1"/>
        <pt x="305" y="814" on="1"/>
        <pt x="420" y="896" on="1"/>
        <pt x="433" y="891" on="0"/>
        <pt x="459" y="866" on="0"/>
        <pt x="463" y="853" on="1"/>
        <pt x="349" y="741" on="1"/>
        <pt x="325" y="737" on="0"/>
        <pt x="282" y="737" on="0"/>
        <pt x="262" y="741" on="1"/>
        <pt x="150" y="846" on="1"/>
        <pt x="160" y="878" on="0"/>
      </contour>
    </TTGlyph>
    <TTGlyph name="E" xMin="92" yMin="-1" xMax="516" yMax="683">
      <contour>
        <pt x="190" y="386" on="1"/>
        <pt x="252" y="387" on="1"/>
        <pt x="444" y="387" on="1"/>
        <pt x="449" y="364" on="0"/>
        <pt x="449" y="326" on="0"/>
        <pt x="444" y="303" on="1"/>
        <pt x="252" y="303" on="1"/>
        <pt x="213" y="303" on="0"/>
        <pt x="190" y="304" on="1"/>
        <pt x="190" y="130" on="1"/>
        <pt x="190" y="122" on="0"/>
        <pt x="189" y="91" on="0"/>
        <pt x="189" y="82" on="1"/>
        <pt x="217" y="85" on="0"/>
        <pt x="254" y="85" on="1"/>
        <pt x="516" y="85" on="1"/>
        <pt x="516" y="59" on="0"/>
        <pt x="514" y="46" on="1"/>
        <pt x="505" y="-1" on="0"/>
        <pt x="450" y="-1" on="1"/>
        <pt x="149" y="-1" on="1"/>
        <pt x="123" y="-1" on="0"/>
        <pt x="92" y="32" on="0"/>
        <pt x="92" y="61" on="1"/>
        <pt x="92" y="677" on="1"/>
        <pt x="98" y="683" on="1"/>
        <pt x="497" y="683" on="1"/>
        <pt x="500" y="668" on="0"/>
        <pt x="500" y="619" on="0"/>
        <pt x="493" y="598" on="1"/>
        <pt x="252" y="598" on="1"/>
        <pt x="212" y="598" on="0"/>
        <pt x="189" y="599" on="1"/>
        <pt x="190" y="534" on="1"/>
      </contour>
    </TTGlyph>
    <TTGlyph name="Eacute" xMin="92" yMin="-1" xMax="516" yMax="898">
      <contour>
        <pt x="190" y="386" on="1"/>
        <pt x="252" y="387" on="1"/>
        <pt x="444" y="387" on="1"/>
        <pt x="449" y="364" on="0"/>
        <pt x="449" y="326" on="0"/>
        <pt x="444" y="303" on="1"/>
        <pt x="252" y="303" on="1"/>
        <pt x="213" y="303" on="0"/>
        <pt x="190" y="304" on="1"/>
        <pt x="190" y="130" on="1"/>
        <pt x="190" y="122" on="0"/>
        <pt x="189" y="91" on="0"/>
        <pt x="189" y="82" on="1"/>
        <pt x="217" y="85" on="0"/>
        <pt x="254" y="85" on="1"/>
        <pt x="516" y="85" on="1"/>
        <pt x="516" y="59" on="0"/>
        <pt x="514" y="46" on="1"/>
        <pt x="505" y="-1" on="0"/>
        <pt x="450" y="-1" on="1"/>
        <pt x="149" y="-1" on="1"/>
        <pt x="123" y="-1" on="0"/>
        <pt x="92" y="32" on="0"/>
        <pt x="92" y="61" on="1"/>
        <pt x="92" y="677" on="1"/>
        <pt x="98" y="683" on="1"/>
        <pt x="497" y="683" on="1"/>
        <pt x="500" y="668" on="0"/>
        <pt x="500" y="619" on="0"/>
        <pt x="493" y="598" on="1"/>
        <pt x="252" y="598" on="1"/>
        <pt x="212" y="598" on="0"/>
        <pt x="189" y="599" on="1"/>
        <pt x="190" y="534" on="1"/>
      </contour>
      <contour>
        <pt x="201" y="779" on="1"/>
        <pt x="401" y="898" on="1"/>
        <pt x="416" y="887" on="0"/>
        <pt x="442" y="841" on="0"/>
        <pt x="445" y="817" on="1"/>
        <pt x="230" y="728" on="1"/>
        <pt x="205" y="745" on="0"/>
      </contour>
    </TTGlyph>
    <TTGlyph name="Ecaron" xMin="92" yMin="-1" xMax="516" yMax="896">
      <contour>
        <pt x="190" y="386" on="1"/>
        <pt x="252" y="387" on="1"/>
        <pt x="444" y="387" on="1"/>
        <pt x="449" y="364" on="0"/>
        <pt x="449" y="326" on="0"/>
        <pt x="444" y="303" on="1"/>
        <pt x="252" y="303" on="1"/>
        <pt x="213" y="303" on="0"/>
        <pt x="190" y="304" on="1"/>
        <pt x="190" y="130" on="1"/>
        <pt x="190" y="122" on="0"/>
        <pt x="189" y="91" on="0"/>
        <pt x="189" y="82" on="1"/>
        <pt x="217" y="85" on="0"/>
        <pt x="254" y="85" on="1"/>
        <pt x="516" y="85" on="1"/>
        <pt x="516" y="59" on="0"/>
        <pt x="514" y="46" on="1"/>
        <pt x="505" y="-1" on="0"/>
        <pt x="450" y="-1" on="1"/>
        <pt x="149" y="-1" on="1"/>
        <pt x="123" y="-1" on="0"/>
        <pt x="92" y="32" on="0"/>
        <pt x="92" y="61" on="1"/>
        <pt x="92" y="677" on="1"/>
        <pt x="98" y="683" on="1"/>
        <pt x="497" y="683" on="1"/>
        <pt x="500" y="668" on="0"/>
        <pt x="500" y="619" on="0"/>
        <pt x="493" y="598" on="1"/>
        <pt x="252" y="598" on="1"/>
        <pt x="212" y="598" on="0"/>
        <pt x="189" y="599" on="1"/>
        <pt x="190" y="534" on="1"/>
      </contour>
      <contour>
        <pt x="186" y="889" on="1"/>
        <pt x="297" y="814" on="1"/>
        <pt x="412" y="896" on="1"/>
        <pt x="425" y="891" on="0"/>
        <pt x="451" y="866" on="0"/>
        <pt x="455" y="853" on="1"/>
        <pt x="341" y="741" on="1"/>
        <pt x="317" y="737" on="0"/>
        <pt x="274" y="737" on="0"/>
        <pt x="254" y="741" on="1"/>
        <pt x="142" y="846" on="1"/>
        <pt x="152" y="878" on="0"/>
      </contour>
    </TTGlyph>
    <TTGlyph name="Ecircumflex" xMin="92" yMin="-1" xMax="516" yMax="890">
      <contour>
        <pt x="190" y="386" on="1"/>
        <pt x="252" y="387" on="1"/>
        <pt x="444" y="387" on="1"/>
        <pt x="449" y="364" on="0"/>
        <pt x="449" y="326" on="0"/>
        <pt x="444" y="303" on="1"/>
        <pt x="252" y="303" on="1"/>
        <pt x="213" y="303" on="0"/>
        <pt x="190" y="304" on="1"/>
        <pt x="190" y="130" on="1"/>
        <pt x="190" y="122" on="0"/>
        <pt x="189" y="91" on="0"/>
        <pt x="189" y="82" on="1"/>
        <pt x="217" y="85" on="0"/>
        <pt x="254" y="85" on="1"/>
        <pt x="516" y="85" on="1"/>
        <pt x="516" y="59" on="0"/>
        <pt x="514" y="46" on="1"/>
        <pt x="505" y="-1" on="0"/>
        <pt x="450" y="-1" on="1"/>
        <pt x="149" y="-1" on="1"/>
        <pt x="123" y="-1" on="0"/>
        <pt x="92" y="32" on="0"/>
        <pt x="92" y="61" on="1"/>
        <pt x="92" y="677" on="1"/>
        <pt x="98" y="683" on="1"/>
        <pt x="497" y="683" on="1"/>
        <pt x="500" y="668" on="0"/>
        <pt x="500" y="619" on="0"/>
        <pt x="493" y="598" on="1"/>
        <pt x="252" y="598" on="1"/>
        <pt x="212" y="598" on="0"/>
        <pt x="189" y="599" on="1"/>
        <pt x="190" y="534" on="1"/>
      </contour>
      <contour>
        <pt x="410" y="737" on="1"/>
        <pt x="298" y="812" on="1"/>
        <pt x="184" y="730" on="1"/>
        <pt x="171" y="735" on="0"/>
        <pt x="145" y="760" on="0"/>
        <pt x="141" y="774" on="1"/>
        <pt x="255" y="885" on="1"/>
        <pt x="276" y="890" on="0"/>
        <pt x="320" y="890" on="0"/>
        <pt x="342" y="885" on="1"/>
        <pt x="453" y="780" on="1"/>
        <pt x="448" y="765" on="0"/>
        <pt x="423" y="741" on="0"/>
      </contour>
    </TTGlyph>
    <TTGlyph name="Edieresis" xMin="92" yMin="-1" xMax="516" yMax="839">
      <contour>
        <pt x="190" y="386" on="1"/>
        <pt x="252" y="387" on="1"/>
        <pt x="444" y="387" on="1"/>
        <pt x="449" y="364" on="0"/>
        <pt x="449" y="326" on="0"/>
        <pt x="444" y="303" on="1"/>
        <pt x="252" y="303" on="1"/>
        <pt x="213" y="303" on="0"/>
        <pt x="190" y="304" on="1"/>
        <pt x="190" y="130" on="1"/>
        <pt x="190" y="122" on="0"/>
        <pt x="189" y="91" on="0"/>
        <pt x="189" y="82" on="1"/>
        <pt x="217" y="85" on="0"/>
        <pt x="254" y="85" on="1"/>
        <pt x="516" y="85" on="1"/>
        <pt x="516" y="59" on="0"/>
        <pt x="514" y="46" on="1"/>
        <pt x="505" y="-1" on="0"/>
        <pt x="450" y="-1" on="1"/>
        <pt x="149" y="-1" on="1"/>
        <pt x="123" y="-1" on="0"/>
        <pt x="92" y="32" on="0"/>
        <pt x="92" y="61" on="1"/>
        <pt x="92" y="677" on="1"/>
        <pt x="98" y="683" on="1"/>
        <pt x="497" y="683" on="1"/>
        <pt x="500" y="668" on="0"/>
        <pt x="500" y="619" on="0"/>
        <pt x="493" y="598" on="1"/>
        <pt x="252" y="598" on="1"/>
        <pt x="212" y="598" on="0"/>
        <pt x="189" y="599" on="1"/>
        <pt x="190" y="534" on="1"/>
      </contour>
      <contour>
        <pt x="376" y="839" on="0"/>
        <pt x="430" y="839" on="0"/>
        <pt x="450" y="828" on="1"/>
        <pt x="458" y="811" on="0"/>
        <pt x="458" y="764" on="0"/>
        <pt x="450" y="747" on="1"/>
        <pt x="433" y="736" on="0"/>
        <pt x="373" y="736" on="0"/>
        <pt x="356" y="747" on="1"/>
        <pt x="347" y="764" on="0"/>
        <pt x="347" y="811" on="0"/>
        <pt x="356" y="828" on="1"/>
      </contour>
      <contour>
        <pt x="168" y="839" on="0"/>
        <pt x="222" y="839" on="0"/>
        <pt x="242" y="828" on="1"/>
        <pt x="251" y="811" on="0"/>
        <pt x="251" y="764" on="0"/>
        <pt x="242" y="747" on="1"/>
        <pt x="225" y="736" on="0"/>
        <pt x="165" y="736" on="0"/>
        <pt x="148" y="747" on="1"/>
        <pt x="140" y="764" on="0"/>
        <pt x="140" y="811" on="0"/>
        <pt x="148" y="828" on="1"/>
      </contour>
    </TTGlyph>
    <TTGlyph name="Egrave" xMin="92" yMin="-1" xMax="516" yMax="898">
      <contour>
        <pt x="190" y="386" on="1"/>
        <pt x="252" y="387" on="1"/>
        <pt x="444" y="387" on="1"/>
        <pt x="449" y="364" on="0"/>
        <pt x="449" y="326" on="0"/>
        <pt x="444" y="303" on="1"/>
        <pt x="252" y="303" on="1"/>
        <pt x="213" y="303" on="0"/>
        <pt x="190" y="304" on="1"/>
        <pt x="190" y="130" on="1"/>
        <pt x="190" y="122" on="0"/>
        <pt x="189" y="91" on="0"/>
        <pt x="189" y="82" on="1"/>
        <pt x="217" y="85" on="0"/>
        <pt x="254" y="85" on="1"/>
        <pt x="516" y="85" on="1"/>
        <pt x="516" y="59" on="0"/>
        <pt x="514" y="46" on="1"/>
        <pt x="505" y="-1" on="0"/>
        <pt x="450" y="-1" on="1"/>
        <pt x="149" y="-1" on="1"/>
        <pt x="123" y="-1" on="0"/>
        <pt x="92" y="32" on="0"/>
        <pt x="92" y="61" on="1"/>
        <pt x="92" y="677" on="1"/>
        <pt x="98" y="683" on="1"/>
        <pt x="497" y="683" on="1"/>
        <pt x="500" y="668" on="0"/>
        <pt x="500" y="619" on="0"/>
        <pt x="493" y="598" on="1"/>
        <pt x="252" y="598" on="1"/>
        <pt x="212" y="598" on="0"/>
        <pt x="189" y="599" on="1"/>
        <pt x="190" y="534" on="1"/>
      </contour>
      <contour>
        <pt x="210" y="898" on="1"/>
        <pt x="410" y="779" on="1"/>
        <pt x="404" y="743" on="0"/>
        <pt x="381" y="728" on="1"/>
        <pt x="166" y="817" on="1"/>
        <pt x="169" y="841" on="0"/>
        <pt x="195" y="887" on="0"/>
      </contour>
    </TTGlyph>
    <TTGlyph name="Eogonek" xMin="92" yMin="-217" xMax="516" yMax="683">
      <contour>
        <pt x="190" y="386" on="1"/>
        <pt x="252" y="387" on="1"/>
        <pt x="444" y="387" on="1"/>
        <pt x="449" y="364" on="0"/>
        <pt x="449" y="326" on="0"/>
        <pt x="444" y="303" on="1"/>
        <pt x="252" y="303" on="1"/>
        <pt x="213" y="303" on="0"/>
        <pt x="190" y="304" on="1"/>
        <pt x="190" y="130" on="1"/>
        <pt x="190" y="122" on="0"/>
        <pt x="189" y="91" on="0"/>
        <pt x="189" y="82" on="1"/>
        <pt x="217" y="85" on="0"/>
        <pt x="254" y="85" on="1"/>
        <pt x="516" y="85" on="1"/>
        <pt x="516" y="59" on="0"/>
        <pt x="514" y="46" on="1"/>
        <pt x="508" y="14" on="0"/>
        <pt x="481" y="4" on="1"/>
        <pt x="480" y="4" on="0"/>
        <pt x="480" y="3" on="0"/>
        <pt x="479" y="3" on="1"/>
        <pt x="436" y="-15" on="0"/>
        <pt x="385" y="-75" on="0"/>
        <pt x="385" y="-127" on="0"/>
        <pt x="412" y="-151" on="0"/>
        <pt x="464" y="-151" on="0"/>
        <pt x="494" y="-134" on="1"/>
        <pt x="516" y="-154" on="0"/>
        <pt x="516" y="-183" on="1"/>
        <pt x="475" y="-217" on="0"/>
        <pt x="365" y="-217" on="0"/>
        <pt x="306" y="-167" on="0"/>
        <pt x="306" y="-124" on="1"/>
        <pt x="306" y="-54" on="0"/>
        <pt x="378" y="-1" on="1"/>
        <pt x="149" y="-1" on="1"/>
        <pt x="123" y="-1" on="0"/>
        <pt x="92" y="32" on="0"/>
        <pt x="92" y="61" on="1"/>
        <pt x="92" y="677" on="1"/>
        <pt x="98" y="683" on="1"/>
        <pt x="497" y="683" on="1"/>
        <pt x="500" y="668" on="0"/>
        <pt x="500" y="619" on="0"/>
        <pt x="493" y="598" on="1"/>
        <pt x="252" y="598" on="1"/>
        <pt x="212" y="598" on="0"/>
        <pt x="189" y="599" on="1"/>
        <pt x="190" y="534" on="1"/>
      </contour>
    </TTGlyph>
    <TTGlyph name="Eth" xMin="26" yMin="-5" xMax="609" yMax="687">
      <contour>
        <pt x="565" y="585" on="0"/>
        <pt x="609" y="441" on="0"/>
        <pt x="609" y="241" on="0"/>
        <pt x="566" y="97" on="0"/>
        <pt x="504" y="46" on="1"/>
        <pt x="474" y="21" on="0"/>
        <pt x="375" y="-5" on="0"/>
        <pt x="288" y="-5" on="0"/>
        <pt x="114" y="-1" on="1"/>
        <pt x="108" y="6" on="1"/>
        <pt x="108" y="305" on="1"/>
        <pt x="30" y="305" on="1"/>
        <pt x="26" y="321" on="0"/>
        <pt x="26" y="369" on="0"/>
        <pt x="30" y="388" on="1"/>
        <pt x="108" y="388" on="1"/>
        <pt x="108" y="677" on="1"/>
        <pt x="114" y="684" on="1"/>
        <pt x="201" y="687" on="0"/>
        <pt x="331" y="687" on="1"/>
        <pt x="375" y="687" on="0"/>
        <pt x="474" y="661" on="0"/>
        <pt x="504" y="636" on="1"/>
      </contour>
      <contour>
        <pt x="330" y="606" on="1"/>
        <pt x="207" y="607" on="1"/>
        <pt x="207" y="388" on="1"/>
        <pt x="364" y="388" on="1"/>
        <pt x="369" y="365" on="0"/>
        <pt x="369" y="325" on="0"/>
        <pt x="364" y="305" on="1"/>
        <pt x="207" y="305" on="1"/>
        <pt x="207" y="77" on="1"/>
        <pt x="330" y="76" on="1"/>
        <pt x="439" y="76" on="0"/>
        <pt x="475" y="165" on="1"/>
        <pt x="505" y="239" on="0"/>
        <pt x="505" y="342" on="1"/>
        <pt x="505" y="445" on="0"/>
        <pt x="475" y="518" on="1"/>
        <pt x="439" y="606" on="0"/>
      </contour>
    </TTGlyph>
    <TTGlyph name="Euro" xMin="23" yMin="-13" xMax="543" yMax="661">
      <contour>
        <pt x="496" y="519" on="1"/>
        <pt x="419" y="578" on="0"/>
        <pt x="344" y="578" on="1"/>
        <pt x="231" y="578" on="0"/>
        <pt x="205" y="430" on="1"/>
        <pt x="415" y="430" on="1"/>
        <pt x="419" y="413" on="0"/>
        <pt x="419" y="379" on="0"/>
        <pt x="415" y="363" on="1"/>
        <pt x="198" y="363" on="1"/>
        <pt x="197" y="350" on="0"/>
        <pt x="197" y="295" on="0"/>
        <pt x="198" y="282" on="1"/>
        <pt x="415" y="282" on="1"/>
        <pt x="419" y="265" on="0"/>
        <pt x="419" y="231" on="0"/>
        <pt x="415" y="215" on="1"/>
        <pt x="205" y="215" on="1"/>
        <pt x="231" y="70" on="0"/>
        <pt x="344" y="70" on="1"/>
        <pt x="419" y="70" on="0"/>
        <pt x="496" y="129" on="1"/>
        <pt x="532" y="108" on="0"/>
        <pt x="543" y="67" on="1"/>
        <pt x="446" y="-13" on="0"/>
        <pt x="332" y="-13" on="1"/>
        <pt x="140" y="-13" on="0"/>
        <pt x="105" y="215" on="1"/>
        <pt x="27" y="215" on="1"/>
        <pt x="23" y="231" on="0"/>
        <pt x="23" y="265" on="0"/>
        <pt x="27" y="282" on="1"/>
        <pt x="98" y="282" on="1"/>
        <pt x="97" y="296" on="0"/>
        <pt x="97" y="350" on="0"/>
        <pt x="98" y="363" on="1"/>
        <pt x="27" y="363" on="1"/>
        <pt x="23" y="379" on="0"/>
        <pt x="23" y="413" on="0"/>
        <pt x="27" y="430" on="1"/>
        <pt x="104" y="430" on="1"/>
        <pt x="140" y="661" on="0"/>
        <pt x="332" y="661" on="1"/>
        <pt x="446" y="661" on="0"/>
        <pt x="543" y="581" on="1"/>
        <pt x="532" y="539" on="0"/>
      </contour>
    </TTGlyph>
    <TTGlyph name="Euro.smcp" xMin="21" yMin="-13" xMax="480" yMax="558">
      <contour>
        <pt x="437" y="437" on="1"/>
        <pt x="373" y="478" on="0"/>
        <pt x="309" y="478" on="1"/>
        <pt x="214" y="478" on="0"/>
        <pt x="190" y="368" on="1"/>
        <pt x="365" y="368" on="1"/>
        <pt x="369" y="352" on="0"/>
        <pt x="369" y="321" on="0"/>
        <pt x="365" y="305" on="1"/>
        <pt x="182" y="305" on="1"/>
        <pt x="182" y="241" on="1"/>
        <pt x="365" y="241" on="1"/>
        <pt x="369" y="225" on="0"/>
        <pt x="369" y="195" on="0"/>
        <pt x="365" y="178" on="1"/>
        <pt x="190" y="178" on="1"/>
        <pt x="214" y="66" on="0"/>
        <pt x="309" y="66" on="1"/>
        <pt x="372" y="66" on="0"/>
        <pt x="437" y="108" on="1"/>
        <pt x="473" y="87" on="0"/>
        <pt x="480" y="50" on="1"/>
        <pt x="398" y="-13" on="0"/>
        <pt x="297" y="-13" on="1"/>
        <pt x="129" y="-13" on="0"/>
        <pt x="95" y="178" on="1"/>
        <pt x="24" y="178" on="1"/>
        <pt x="21" y="191" on="0"/>
        <pt x="21" y="229" on="0"/>
        <pt x="24" y="241" on="1"/>
        <pt x="88" y="241" on="1"/>
        <pt x="87" y="251" on="0"/>
        <pt x="87" y="294" on="0"/>
        <pt x="88" y="305" on="1"/>
        <pt x="24" y="305" on="1"/>
        <pt x="21" y="317" on="0"/>
        <pt x="21" y="356" on="0"/>
        <pt x="24" y="368" on="1"/>
        <pt x="94" y="368" on="1"/>
        <pt x="128" y="558" on="0"/>
        <pt x="297" y="558" on="1"/>
        <pt x="398" y="558" on="0"/>
        <pt x="480" y="496" on="1"/>
        <pt x="473" y="458" on="0"/>
      </contour>
    </TTGlyph>
    <TTGlyph name="F" xMin="92" yMin="-4" xMax="497" yMax="683">
      <contour>
        <pt x="191" y="598" on="1"/>
        <pt x="192" y="476" on="1"/>
        <pt x="192" y="385" on="1"/>
        <pt x="208" y="386" on="0"/>
        <pt x="237" y="386" on="1"/>
        <pt x="439" y="386" on="1"/>
        <pt x="444" y="364" on="0"/>
        <pt x="444" y="325" on="0"/>
        <pt x="439" y="302" on="1"/>
        <pt x="237" y="302" on="1"/>
        <pt x="208" y="302" on="0"/>
        <pt x="192" y="303" on="1"/>
        <pt x="192" y="0" on="1"/>
        <pt x="172" y="-4" on="0"/>
        <pt x="112" y="-4" on="0"/>
        <pt x="92" y="0" on="1"/>
        <pt x="92" y="677" on="1"/>
        <pt x="99" y="683" on="1"/>
        <pt x="491" y="683" on="1"/>
        <pt x="497" y="665" on="0"/>
        <pt x="497" y="643" on="1"/>
        <pt x="497" y="597" on="0"/>
        <pt x="440" y="597" on="1"/>
        <pt x="290" y="597" on="1"/>
        <pt x="219" y="597" on="0"/>
      </contour>
    </TTGlyph>
    <TTGlyph name="G" xMin="51" yMin="-13" xMax="577" yMax="696">
      <contour>
        <pt x="351" y="356" on="1"/>
        <pt x="505" y="356" on="1"/>
        <pt x="544" y="356" on="0"/>
        <pt x="577" y="323" on="0"/>
        <pt x="577" y="290" on="1"/>
        <pt x="577" y="30" on="1"/>
        <pt x="465" y="-13" on="0"/>
        <pt x="332" y="-13" on="1"/>
        <pt x="257" y="-13" on="0"/>
        <pt x="145" y="44" on="0"/>
        <pt x="114" y="94" on="1"/>
        <pt x="51" y="192" on="0"/>
        <pt x="51" y="337" on="1"/>
        <pt x="51" y="429" on="0"/>
        <pt x="101" y="571" on="0"/>
        <pt x="144" y="612" on="1"/>
        <pt x="229" y="696" on="0"/>
        <pt x="344" y="696" on="1"/>
        <pt x="481" y="696" on="0"/>
        <pt x="576" y="622" on="1"/>
        <pt x="568" y="575" on="0"/>
        <pt x="526" y="547" on="1"/>
        <pt x="445" y="610" on="0"/>
        <pt x="343" y="610" on="1"/>
        <pt x="259" y="610" on="0"/>
        <pt x="155" y="478" on="0"/>
        <pt x="155" y="336" on="1"/>
        <pt x="155" y="71" on="0"/>
        <pt x="350" y="71" on="1"/>
        <pt x="420" y="71" on="0"/>
        <pt x="481" y="89" on="1"/>
        <pt x="481" y="206" on="1"/>
        <pt x="481" y="250" on="0"/>
        <pt x="482" y="269" on="1"/>
        <pt x="390" y="269" on="1"/>
        <pt x="343" y="269" on="0"/>
        <pt x="343" y="314" on="1"/>
        <pt x="343" y="332" on="0"/>
      </contour>
    </TTGlyph>
    <TTGlyph name="H" xMin="92" yMin="-4" xMax="581" yMax="687">
      <contour>
        <pt x="482" y="395" on="1"/>
        <pt x="481" y="469" on="1"/>
        <pt x="481" y="683" on="1"/>
        <pt x="500" y="687" on="0"/>
        <pt x="561" y="687" on="0"/>
        <pt x="581" y="683" on="1"/>
        <pt x="581" y="0" on="1"/>
        <pt x="560" y="-4" on="0"/>
        <pt x="501" y="-4" on="0"/>
        <pt x="481" y="0" on="1"/>
        <pt x="481" y="237" on="1"/>
        <pt x="482" y="311" on="1"/>
        <pt x="424" y="310" on="1"/>
        <pt x="249" y="310" on="1"/>
        <pt x="191" y="311" on="1"/>
        <pt x="192" y="237" on="1"/>
        <pt x="192" y="0" on="1"/>
        <pt x="172" y="-4" on="0"/>
        <pt x="112" y="-4" on="0"/>
        <pt x="92" y="0" on="1"/>
        <pt x="92" y="683" on="1"/>
        <pt x="112" y="687" on="0"/>
        <pt x="172" y="687" on="0"/>
        <pt x="192" y="683" on="1"/>
        <pt x="192" y="469" on="1"/>
        <pt x="191" y="395" on="1"/>
        <pt x="249" y="396" on="1"/>
        <pt x="424" y="396" on="1"/>
      </contour>
    </TTGlyph>
    <TTGlyph name="Hbar" xMin="21" yMin="-4" xMax="662" yMax="687">
      <contour>
        <pt x="196" y="310" on="1"/>
        <pt x="197" y="236" on="1"/>
        <pt x="197" y="0" on="1"/>
        <pt x="177" y="-4" on="0"/>
        <pt x="116" y="-4" on="0"/>
        <pt x="97" y="0" on="1"/>
        <pt x="97" y="495" on="1"/>
        <pt x="25" y="495" on="1"/>
        <pt x="21" y="511" on="0"/>
        <pt x="21" y="555" on="0"/>
        <pt x="25" y="574" on="1"/>
        <pt x="97" y="574" on="1"/>
        <pt x="97" y="683" on="1"/>
        <pt x="116" y="687" on="0"/>
        <pt x="177" y="687" on="0"/>
        <pt x="197" y="683" on="1"/>
        <pt x="197" y="574" on="1"/>
        <pt x="485" y="574" on="1"/>
        <pt x="485" y="683" on="1"/>
        <pt x="505" y="687" on="0"/>
        <pt x="565" y="687" on="0"/>
        <pt x="585" y="683" on="1"/>
        <pt x="585" y="574" on="1"/>
        <pt x="657" y="574" on="1"/>
        <pt x="662" y="551" on="0"/>
        <pt x="662" y="515" on="0"/>
        <pt x="657" y="495" on="1"/>
        <pt x="585" y="495" on="1"/>
        <pt x="585" y="0" on="1"/>
        <pt x="565" y="-4" on="0"/>
        <pt x="505" y="-4" on="0"/>
        <pt x="485" y="0" on="1"/>
        <pt x="485" y="236" on="1"/>
        <pt x="486" y="310" on="1"/>
        <pt x="429" y="309" on="1"/>
        <pt x="254" y="309" on="1"/>
      </contour>
      <contour>
        <pt x="196" y="393" on="1"/>
        <pt x="254" y="394" on="1"/>
        <pt x="429" y="394" on="1"/>
        <pt x="486" y="393" on="1"/>
        <pt x="485" y="468" on="1"/>
        <pt x="485" y="495" on="1"/>
        <pt x="197" y="495" on="1"/>
        <pt x="197" y="468" on="1"/>
      </contour>
    </TTGlyph>
    <TTGlyph name="I" xMin="96" yMin="-4" xMax="196" yMax="687">
      <contour>
        <pt x="96" y="0" on="1"/>
        <pt x="96" y="683" on="1"/>
        <pt x="115" y="687" on="0"/>
        <pt x="176" y="687" on="0"/>
        <pt x="196" y="683" on="1"/>
        <pt x="196" y="0" on="1"/>
        <pt x="176" y="-4" on="0"/>
        <pt x="115" y="-4" on="0"/>
      </contour>
    </TTGlyph>
    <TTGlyph name="IJ" xMin="96" yMin="-10" xMax="655" yMax="687">
      <contour>
        <pt x="96" y="0" on="1"/>
        <pt x="96" y="683" on="1"/>
        <pt x="115" y="687" on="0"/>
        <pt x="176" y="687" on="0"/>
        <pt x="196" y="683" on="1"/>
        <pt x="196" y="0" on="1"/>
        <pt x="176" y="-4" on="0"/>
        <pt x="115" y="-4" on="0"/>
      </contour>
      <contour>
        <pt x="337" y="107" on="1"/>
        <pt x="392" y="74" on="0"/>
        <pt x="507" y="74" on="0"/>
        <pt x="555" y="147" on="0"/>
        <pt x="555" y="232" on="1"/>
        <pt x="555" y="683" on="1"/>
        <pt x="575" y="687" on="0"/>
        <pt x="636" y="687" on="0"/>
        <pt x="655" y="683" on="1"/>
        <pt x="655" y="247" on="1"/>
        <pt x="655" y="187" on="0"/>
        <pt x="640" y="102" on="0"/>
        <pt x="619" y="65" on="1"/>
        <pt x="576" y="-10" on="0"/>
        <pt x="454" y="-10" on="1"/>
        <pt x="366" y="-10" on="0"/>
        <pt x="299" y="32" on="1"/>
        <pt x="307" y="75" on="0"/>
      </contour>
    </TTGlyph>
    <TTGlyph name="Iacute" xMin="48" yMin="-4" xMax="292" yMax="898">
      <contour>
        <pt x="96" y="0" on="1"/>
        <pt x="96" y="683" on="1"/>
        <pt x="115" y="687" on="0"/>
        <pt x="176" y="687" on="0"/>
        <pt x="196" y="683" on="1"/>
        <pt x="196" y="0" on="1"/>
        <pt x="176" y="-4" on="0"/>
        <pt x="115" y="-4" on="0"/>
      </contour>
      <contour>
        <pt x="48" y="779" on="1"/>
        <pt x="248" y="898" on="1"/>
        <pt x="263" y="887" on="0"/>
        <pt x="289" y="841" on="0"/>
        <pt x="292" y="817" on="1"/>
        <pt x="77" y="728" on="1"/>
        <pt x="52" y="745" on="0"/>
      </contour>
    </TTGlyph>
    <TTGlyph name="Icircumflex" xMin="-12" yMin="-4" xMax="300" yMax="890">
      <contour>
        <pt x="96" y="0" on="1"/>
        <pt x="96" y="683" on="1"/>
        <pt x="115" y="687" on="0"/>
        <pt x="176" y="687" on="0"/>
        <pt x="196" y="683" on="1"/>
        <pt x="196" y="0" on="1"/>
        <pt x="176" y="-4" on="0"/>
        <pt x="115" y="-4" on="0"/>
      </contour>
      <contour>
        <pt x="257" y="737" on="1"/>
        <pt x="145" y="812" on="1"/>
        <pt x="31" y="730" on="1"/>
        <pt x="18" y="735" on="0"/>
        <pt x="-8" y="760" on="0"/>
        <pt x="-12" y="774" on="1"/>
        <pt x="102" y="885" on="1"/>
        <pt x="124" y="890" on="0"/>
        <pt x="168" y="890" on="0"/>
        <pt x="189" y="885" on="1"/>
        <pt x="300" y="780" on="1"/>
        <pt x="295" y="765" on="0"/>
        <pt x="270" y="741" on="0"/>
      </contour>
    </TTGlyph>
    <TTGlyph name="Idieresis" xMin="-13" yMin="-4" xMax="305" yMax="839">
      <contour>
        <pt x="96" y="0" on="1"/>
        <pt x="96" y="683" on="1"/>
        <pt x="115" y="687" on="0"/>
        <pt x="176" y="687" on="0"/>
        <pt x="196" y="683" on="1"/>
        <pt x="196" y="0" on="1"/>
        <pt x="176" y="-4" on="0"/>
        <pt x="115" y="-4" on="0"/>
      </contour>
      <contour>
        <pt x="223" y="839" on="0"/>
        <pt x="277" y="839" on="0"/>
        <pt x="297" y="828" on="1"/>
        <pt x="305" y="811" on="0"/>
        <pt x="305" y="764" on="0"/>
        <pt x="297" y="747" on="1"/>
        <pt x="280" y="736" on="0"/>
        <pt x="220" y="736" on="0"/>
        <pt x="203" y="747" on="1"/>
        <pt x="194" y="764" on="0"/>
        <pt x="194" y="811" on="0"/>
        <pt x="203" y="828" on="1"/>
      </contour>
      <contour>
        <pt x="15" y="839" on="0"/>
        <pt x="69" y="839" on="0"/>
        <pt x="89" y="828" on="1"/>
        <pt x="98" y="811" on="0"/>
        <pt x="98" y="764" on="0"/>
        <pt x="89" y="747" on="1"/>
        <pt x="72" y="736" on="0"/>
        <pt x="12" y="736" on="0"/>
        <pt x="-5" y="747" on="1"/>
        <pt x="-13" y="764" on="0"/>
        <pt x="-13" y="811" on="0"/>
        <pt x="-5" y="828" on="1"/>
      </contour>
    </TTGlyph>
    <TTGlyph name="Igrave" xMin="13" yMin="-4" xMax="257" yMax="898">
      <contour>
        <pt x="96" y="0" on="1"/>
        <pt x="96" y="683" on="1"/>
        <pt x="115" y="687" on="0"/>
        <pt x="176" y="687" on="0"/>
        <pt x="196" y="683" on="1"/>
        <pt x="196" y="0" on="1"/>
        <pt x="176" y="-4" on="0"/>
        <pt x="115" y="-4" on="0"/>
      </contour>
      <contour>
        <pt x="57" y="898" on="1"/>
        <pt x="257" y="779" on="1"/>
        <pt x="251" y="743" on="0"/>
        <pt x="228" y="728" on="1"/>
        <pt x="13" y="817" on="1"/>
        <pt x="16" y="841" on="0"/>
        <pt x="42" y="887" on="0"/>
      </contour>
    </TTGlyph>
    <TTGlyph name="Itilde" xMin="-32" yMin="-4" xMax="324" yMax="873">
      <contour>
        <pt x="96" y="0" on="1"/>
        <pt x="96" y="683" on="1"/>
        <pt x="115" y="687" on="0"/>
        <pt x="176" y="687" on="0"/>
        <pt x="196" y="683" on="1"/>
        <pt x="196" y="0" on="1"/>
        <pt x="176" y="-4" on="0"/>
        <pt x="115" y="-4" on="0"/>
      </contour>
      <contour>
        <pt x="158" y="756" on="1"/>
        <pt x="101" y="783" on="1"/>
        <pt x="81" y="792" on="0"/>
        <pt x="46" y="792" on="0"/>
        <pt x="28" y="767" on="1"/>
        <pt x="16" y="753" on="1"/>
        <pt x="1" y="753" on="0"/>
        <pt x="-27" y="770" on="0"/>
        <pt x="-32" y="782" on="1"/>
        <pt x="-24" y="802" on="1"/>
        <pt x="-10" y="835" on="0"/>
        <pt x="44" y="873" on="0"/>
        <pt x="104" y="873" on="0"/>
        <pt x="134" y="858" on="1"/>
        <pt x="191" y="831" on="1"/>
        <pt x="207" y="822" on="0"/>
        <pt x="245" y="822" on="0"/>
        <pt x="264" y="847" on="1"/>
        <pt x="276" y="861" on="1"/>
        <pt x="290" y="861" on="0"/>
        <pt x="318" y="844" on="0"/>
        <pt x="324" y="831" on="1"/>
        <pt x="316" y="812" on="1"/>
        <pt x="300" y="778" on="0"/>
        <pt x="247" y="741" on="0"/>
        <pt x="192" y="741" on="0"/>
      </contour>
    </TTGlyph>
    <TTGlyph name="J" xMin="10" yMin="-10" xMax="366" yMax="687">
      <contour>
        <pt x="48" y="107" on="1"/>
        <pt x="103" y="74" on="0"/>
        <pt x="218" y="74" on="0"/>
        <pt x="266" y="147" on="0"/>
        <pt x="266" y="232" on="1"/>
        <pt x="266" y="683" on="1"/>
        <pt x="286" y="687" on="0"/>
        <pt x="347" y="687" on="0"/>
        <pt x="366" y="683" on="1"/>
        <pt x="366" y="247" on="1"/>
        <pt x="366" y="187" on="0"/>
        <pt x="351" y="102" on="0"/>
        <pt x="330" y="65" on="1"/>
        <pt x="287" y="-10" on="0"/>
        <pt x="165" y="-10" on="1"/>
        <pt x="77" y="-10" on="0"/>
        <pt x="10" y="32" on="1"/>
        <pt x="18" y="75" on="0"/>
      </contour>
    </TTGlyph>
    <TTGlyph name="Jcircumflex" xMin="10" yMin="-10" xMax="471" yMax="890">
      <contour>
        <pt x="48" y="107" on="1"/>
        <pt x="103" y="74" on="0"/>
        <pt x="218" y="74" on="0"/>
        <pt x="266" y="147" on="0"/>
        <pt x="266" y="232" on="1"/>
        <pt x="266" y="683" on="1"/>
        <pt x="286" y="687" on="0"/>
        <pt x="347" y="687" on="0"/>
        <pt x="366" y="683" on="1"/>
        <pt x="366" y="247" on="1"/>
        <pt x="366" y="187" on="0"/>
        <pt x="351" y="102" on="0"/>
        <pt x="330" y="65" on="1"/>
        <pt x="287" y="-10" on="0"/>
        <pt x="165" y="-10" on="1"/>
        <pt x="77" y="-10" on="0"/>
        <pt x="10" y="32" on="1"/>
        <pt x="18" y="75" on="0"/>
      </contour>
      <contour>
        <pt x="428" y="737" on="1"/>
        <pt x="316" y="812" on="1"/>
        <pt x="202" y="730" on="1"/>
        <pt x="189" y="735" on="0"/>
        <pt x="163" y="760" on="0"/>
        <pt x="159" y="774" on="1"/>
        <pt x="273" y="885" on="1"/>
        <pt x="294" y="890" on="0"/>
        <pt x="338" y="890" on="0"/>
        <pt x="360" y="885" on="1"/>
        <pt x="471" y="780" on="1"/>
        <pt x="466" y="765" on="0"/>
        <pt x="441" y="741" on="0"/>
      </contour>
    </TTGlyph>
    <TTGlyph name="K" xMin="92" yMin="-6" xMax="576" yMax="687">
      <contour>
        <pt x="576" y="26" on="1"/>
        <pt x="555" y="-6" on="0"/>
        <pt x="508" y="-6" on="1"/>
        <pt x="480" y="-6" on="0"/>
        <pt x="452" y="22" on="0"/>
        <pt x="441" y="56" on="1"/>
        <pt x="385" y="205" on="1"/>
        <pt x="363" y="263" on="0"/>
        <pt x="309" y="310" on="0"/>
        <pt x="263" y="310" on="1"/>
        <pt x="242" y="310" on="0"/>
        <pt x="192" y="307" on="1"/>
        <pt x="192" y="0" on="1"/>
        <pt x="172" y="-4" on="0"/>
        <pt x="112" y="-4" on="0"/>
        <pt x="92" y="0" on="1"/>
        <pt x="92" y="683" on="1"/>
        <pt x="112" y="687" on="0"/>
        <pt x="172" y="687" on="0"/>
        <pt x="192" y="683" on="1"/>
        <pt x="192" y="394" on="1"/>
        <pt x="252" y="395" on="1"/>
        <pt x="274" y="395" on="0"/>
        <pt x="289" y="423" on="1"/>
        <pt x="422" y="644" on="1"/>
        <pt x="434" y="667" on="0"/>
        <pt x="459" y="686" on="0"/>
        <pt x="510" y="686" on="0"/>
        <pt x="540" y="683" on="1"/>
        <pt x="546" y="674" on="1"/>
        <pt x="391" y="414" on="1"/>
        <pt x="373" y="384" on="0"/>
        <pt x="353" y="367" on="1"/>
        <pt x="401" y="359" on="0"/>
        <pt x="454" y="300" on="0"/>
        <pt x="476" y="243" on="1"/>
        <pt x="532" y="96" on="1"/>
        <pt x="551" y="47" on="0"/>
      </contour>
    </TTGlyph>
    <TTGlyph name="Kcommaaccent" xMin="92" yMin="-260" xMax="576" yMax="687">
      <contour>
        <pt x="576" y="26" on="1"/>
        <pt x="555" y="-6" on="0"/>
        <pt x="508" y="-6" on="1"/>
        <pt x="480" y="-6" on="0"/>
        <pt x="452" y="22" on="0"/>
        <pt x="441" y="56" on="1"/>
        <pt x="385" y="205" on="1"/>
        <pt x="363" y="263" on="0"/>
        <pt x="309" y="310" on="0"/>
        <pt x="263" y="310" on="1"/>
        <pt x="242" y="310" on="0"/>
        <pt x="192" y="307" on="1"/>
        <pt x="192" y="0" on="1"/>
        <pt x="172" y="-4" on="0"/>
        <pt x="112" y="-4" on="0"/>
        <pt x="92" y="0" on="1"/>
        <pt x="92" y="683" on="1"/>
        <pt x="112" y="687" on="0"/>
        <pt x="172" y="687" on="0"/>
        <pt x="192" y="683" on="1"/>
        <pt x="192" y="394" on="1"/>
        <pt x="252" y="395" on="1"/>
        <pt x="274" y="395" on="0"/>
        <pt x="289" y="423" on="1"/>
        <pt x="422" y="644" on="1"/>
        <pt x="434" y="667" on="0"/>
        <pt x="459" y="686" on="0"/>
        <pt x="510" y="686" on="0"/>
        <pt x="540" y="683" on="1"/>
        <pt x="546" y="674" on="1"/>
        <pt x="391" y="414" on="1"/>
        <pt x="373" y="384" on="0"/>
        <pt x="353" y="367" on="1"/>
        <pt x="401" y="359" on="0"/>
        <pt x="454" y="300" on="0"/>
        <pt x="476" y="243" on="1"/>
        <pt x="532" y="96" on="1"/>
        <pt x="551" y="47" on="0"/>
      </contour>
      <contour>
        <pt x="267" y="-70" on="1"/>
        <pt x="293" y="-53" on="0"/>
        <pt x="350" y="-53" on="0"/>
        <pt x="364" y="-58" on="1"/>
        <pt x="373" y="-78" on="0"/>
        <pt x="373" y="-158" on="0"/>
        <pt x="309" y="-237" on="0"/>
        <pt x="253" y="-260" on="1"/>
        <pt x="228" y="-251" on="0"/>
        <pt x="221" y="-218" on="1"/>
        <pt x="280" y="-180" on="0"/>
        <pt x="280" y="-123" on="1"/>
        <pt x="280" y="-94" on="0"/>
      </contour>
    </TTGlyph>
    <TTGlyph name="L" xMin="92" yMin="-1" xMax="482" yMax="687">
      <contour>
        <pt x="280" y="86" on="1"/>
        <pt x="482" y="86" on="1"/>
        <pt x="482" y="59" on="0"/>
        <pt x="480" y="46" on="1"/>
        <pt x="471" y="-1" on="0"/>
        <pt x="415" y="-1" on="1"/>
        <pt x="150" y="-1" on="1"/>
        <pt x="124" y="-1" on="0"/>
        <pt x="92" y="32" on="0"/>
        <pt x="92" y="62" on="1"/>
        <pt x="92" y="681" on="1"/>
        <pt x="98" y="687" on="1"/>
        <pt x="137" y="687" on="1"/>
        <pt x="167" y="687" on="0"/>
        <pt x="192" y="657" on="0"/>
        <pt x="192" y="623" on="1"/>
        <pt x="192" y="83" on="1"/>
        <pt x="239" y="86" on="0"/>
      </contour>
    </TTGlyph>
    <TTGlyph name="Ldot" xMin="92" yMin="-1" xMax="482" yMax="687">
      <contour>
        <pt x="280" y="86" on="1"/>
        <pt x="482" y="86" on="1"/>
        <pt x="482" y="59" on="0"/>
        <pt x="480" y="46" on="1"/>
        <pt x="471" y="-1" on="0"/>
        <pt x="415" y="-1" on="1"/>
        <pt x="150" y="-1" on="1"/>
        <pt x="124" y="-1" on="0"/>
        <pt x="92" y="32" on="0"/>
        <pt x="92" y="62" on="1"/>
        <pt x="92" y="681" on="1"/>
        <pt x="98" y="687" on="1"/>
        <pt x="137" y="687" on="1"/>
        <pt x="167" y="687" on="0"/>
        <pt x="192" y="657" on="0"/>
        <pt x="192" y="623" on="1"/>
        <pt x="192" y="83" on="1"/>
        <pt x="239" y="86" on="0"/>
      </contour>
      <contour>
        <pt x="336" y="325" on="0"/>
        <pt x="336" y="381" on="0"/>
        <pt x="344" y="399" on="1"/>
        <pt x="361" y="410" on="0"/>
        <pt x="428" y="410" on="0"/>
        <pt x="444" y="399" on="1"/>
        <pt x="451" y="384" on="0"/>
        <pt x="451" y="322" on="0"/>
        <pt x="444" y="307" on="1"/>
        <pt x="429" y="295" on="0"/>
        <pt x="363" y="295" on="0"/>
        <pt x="344" y="307" on="1"/>
      </contour>
    </TTGlyph>
    <TTGlyph name="Lslash" xMin="16" yMin="-1" xMax="488" yMax="687">
      <contour>
        <pt x="198" y="623" on="1"/>
        <pt x="198" y="400" on="1"/>
        <pt x="377" y="460" on="1"/>
        <pt x="384" y="456" on="1"/>
        <pt x="390" y="436" on="0"/>
        <pt x="390" y="398" on="0"/>
        <pt x="385" y="379" on="1"/>
        <pt x="198" y="318" on="1"/>
        <pt x="198" y="83" on="1"/>
        <pt x="245" y="86" on="0"/>
        <pt x="286" y="86" on="1"/>
        <pt x="488" y="86" on="1"/>
        <pt x="488" y="59" on="0"/>
        <pt x="486" y="46" on="1"/>
        <pt x="477" y="-1" on="0"/>
        <pt x="421" y="-1" on="1"/>
        <pt x="156" y="-1" on="1"/>
        <pt x="130" y="-1" on="0"/>
        <pt x="98" y="32" on="0"/>
        <pt x="98" y="62" on="1"/>
        <pt x="98" y="288" on="1"/>
        <pt x="30" y="264" on="1"/>
        <pt x="23" y="268" on="1"/>
        <pt x="17" y="286" on="0"/>
        <pt x="17" y="325" on="0"/>
        <pt x="21" y="345" on="1"/>
        <pt x="98" y="370" on="1"/>
        <pt x="98" y="681" on="1"/>
        <pt x="104" y="687" on="1"/>
        <pt x="143" y="687" on="1"/>
        <pt x="173" y="687" on="0"/>
        <pt x="198" y="657" on="0"/>
      </contour>
    </TTGlyph>
    <TTGlyph name="M" xMin="76" yMin="-5" xMax="728" yMax="687">
      <contour>
        <pt x="76" y="1" on="1"/>
        <pt x="129" y="683" on="1"/>
        <pt x="152" y="687" on="0"/>
        <pt x="238" y="687" on="0"/>
        <pt x="260" y="683" on="1"/>
        <pt x="360" y="361" on="1"/>
        <pt x="368" y="338" on="0"/>
        <pt x="396" y="224" on="0"/>
        <pt x="399" y="205" on="1"/>
        <pt x="405" y="205" on="1"/>
        <pt x="415" y="268" on="0"/>
        <pt x="445" y="361" on="1"/>
        <pt x="544" y="683" on="1"/>
        <pt x="569" y="687" on="0"/>
        <pt x="651" y="687" on="0"/>
        <pt x="675" y="683" on="1"/>
        <pt x="728" y="1" on="1"/>
        <pt x="707" y="-5" on="0"/>
        <pt x="652" y="-5" on="0"/>
        <pt x="633" y="-1" on="1"/>
        <pt x="608" y="376" on="1"/>
        <pt x="601" y="489" on="0"/>
        <pt x="600" y="576" on="1"/>
        <pt x="594" y="576" on="1"/>
        <pt x="453" y="105" on="1"/>
        <pt x="432" y="101" on="0"/>
        <pt x="371" y="101" on="0"/>
        <pt x="352" y="105" on="1"/>
        <pt x="210" y="576" on="1"/>
        <pt x="204" y="576" on="1"/>
        <pt x="198" y="404" on="0"/>
        <pt x="196" y="376" on="1"/>
        <pt x="172" y="-1" on="1"/>
        <pt x="152" y="-5" on="0"/>
        <pt x="96" y="-5" on="0"/>
      </contour>
    </TTGlyph>
    <TTGlyph name="N" xMin="92" yMin="-4" xMax="586" yMax="687">
      <contour>
        <pt x="181" y="565" on="1"/>
        <pt x="177" y="565" on="1"/>
        <pt x="185" y="429" on="0"/>
        <pt x="185" y="326" on="1"/>
        <pt x="185" y="0" on="1"/>
        <pt x="162" y="-4" on="0"/>
        <pt x="115" y="-4" on="0"/>
        <pt x="92" y="0" on="1"/>
        <pt x="92" y="682" on="1"/>
        <pt x="120" y="687" on="0"/>
        <pt x="187" y="687" on="0"/>
        <pt x="212" y="683" on="1"/>
        <pt x="430" y="256" on="1"/>
        <pt x="445" y="227" on="0"/>
        <pt x="491" y="126" on="0"/>
        <pt x="498" y="113" on="1"/>
        <pt x="498" y="112" on="1"/>
        <pt x="501" y="113" on="1"/>
        <pt x="493" y="239" on="0"/>
        <pt x="493" y="360" on="1"/>
        <pt x="493" y="624" on="1"/>
        <pt x="493" y="658" on="0"/>
        <pt x="516" y="687" on="0"/>
        <pt x="547" y="687" on="1"/>
        <pt x="579" y="687" on="1"/>
        <pt x="586" y="682" on="1"/>
        <pt x="586" y="1" on="1"/>
        <pt x="558" y="-4" on="0"/>
        <pt x="490" y="-4" on="0"/>
        <pt x="465" y="0" on="1"/>
        <pt x="246" y="427" on="1"/>
        <pt x="216" y="486" on="0"/>
      </contour>
    </TTGlyph>
    <TTGlyph name="Nacute" xMin="92" yMin="-4" xMax="586" yMax="898">
      <contour>
        <pt x="181" y="565" on="1"/>
        <pt x="177" y="565" on="1"/>
        <pt x="185" y="429" on="0"/>
        <pt x="185" y="326" on="1"/>
        <pt x="185" y="0" on="1"/>
        <pt x="162" y="-4" on="0"/>
        <pt x="115" y="-4" on="0"/>
        <pt x="92" y="0" on="1"/>
        <pt x="92" y="682" on="1"/>
        <pt x="120" y="687" on="0"/>
        <pt x="187" y="687" on="0"/>
        <pt x="212" y="683" on="1"/>
        <pt x="430" y="256" on="1"/>
        <pt x="445" y="227" on="0"/>
        <pt x="491" y="126" on="0"/>
        <pt x="498" y="113" on="1"/>
        <pt x="498" y="112" on="1"/>
        <pt x="501" y="113" on="1"/>
        <pt x="493" y="239" on="0"/>
        <pt x="493" y="360" on="1"/>
        <pt x="493" y="624" on="1"/>
        <pt x="493" y="658" on="0"/>
        <pt x="516" y="687" on="0"/>
        <pt x="547" y="687" on="1"/>
        <pt x="579" y="687" on="1"/>
        <pt x="586" y="682" on="1"/>
        <pt x="586" y="1" on="1"/>
        <pt x="558" y="-4" on="0"/>
        <pt x="490" y="-4" on="0"/>
        <pt x="465" y="0" on="1"/>
        <pt x="246" y="427" on="1"/>
        <pt x="216" y="486" on="0"/>
      </contour>
      <contour>
        <pt x="244" y="779" on="1"/>
        <pt x="444" y="898" on="1"/>
        <pt x="459" y="887" on="0"/>
        <pt x="485" y="841" on="0"/>
        <pt x="488" y="817" on="1"/>
        <pt x="273" y="728" on="1"/>
        <pt x="248" y="745" on="0"/>
      </contour>
    </TTGlyph>
    <TTGlyph name="Ncaron" xMin="92" yMin="-4" xMax="586" yMax="896">
      <contour>
        <pt x="181" y="565" on="1"/>
        <pt x="177" y="565" on="1"/>
        <pt x="185" y="429" on="0"/>
        <pt x="185" y="326" on="1"/>
        <pt x="185" y="0" on="1"/>
        <pt x="162" y="-4" on="0"/>
        <pt x="115" y="-4" on="0"/>
        <pt x="92" y="0" on="1"/>
        <pt x="92" y="682" on="1"/>
        <pt x="120" y="687" on="0"/>
        <pt x="187" y="687" on="0"/>
        <pt x="212" y="683" on="1"/>
        <pt x="430" y="256" on="1"/>
        <pt x="445" y="227" on="0"/>
        <pt x="491" y="126" on="0"/>
        <pt x="498" y="113" on="1"/>
        <pt x="498" y="112" on="1"/>
        <pt x="501" y="113" on="1"/>
        <pt x="493" y="239" on="0"/>
        <pt x="493" y="360" on="1"/>
        <pt x="493" y="624" on="1"/>
        <pt x="493" y="658" on="0"/>
        <pt x="516" y="687" on="0"/>
        <pt x="547" y="687" on="1"/>
        <pt x="579" y="687" on="1"/>
        <pt x="586" y="682" on="1"/>
        <pt x="586" y="1" on="1"/>
        <pt x="558" y="-4" on="0"/>
        <pt x="490" y="-4" on="0"/>
        <pt x="465" y="0" on="1"/>
        <pt x="246" y="427" on="1"/>
        <pt x="216" y="486" on="0"/>
      </contour>
      <contour>
        <pt x="229" y="889" on="1"/>
        <pt x="340" y="814" on="1"/>
        <pt x="455" y="896" on="1"/>
        <pt x="468" y="891" on="0"/>
        <pt x="494" y="866" on="0"/>
        <pt x="498" y="853" on="1"/>
        <pt x="384" y="741" on="1"/>
        <pt x="360" y="737" on="0"/>
        <pt x="316" y="737" on="0"/>
        <pt x="297" y="741" on="1"/>
        <pt x="185" y="846" on="1"/>
        <pt x="195" y="878" on="0"/>
      </contour>
    </TTGlyph>
    <TTGlyph name="Ntilde" xMin="92" yMin="-4" xMax="586" yMax="873">
      <contour>
        <pt x="181" y="565" on="1"/>
        <pt x="177" y="565" on="1"/>
        <pt x="185" y="429" on="0"/>
        <pt x="185" y="326" on="1"/>
        <pt x="185" y="0" on="1"/>
        <pt x="162" y="-4" on="0"/>
        <pt x="115" y="-4" on="0"/>
        <pt x="92" y="0" on="1"/>
        <pt x="92" y="682" on="1"/>
        <pt x="120" y="687" on="0"/>
        <pt x="187" y="687" on="0"/>
        <pt x="212" y="683" on="1"/>
        <pt x="430" y="256" on="1"/>
        <pt x="445" y="227" on="0"/>
        <pt x="491" y="126" on="0"/>
        <pt x="498" y="113" on="1"/>
        <pt x="498" y="112" on="1"/>
        <pt x="501" y="113" on="1"/>
        <pt x="493" y="239" on="0"/>
        <pt x="493" y="360" on="1"/>
        <pt x="493" y="624" on="1"/>
        <pt x="493" y="658" on="0"/>
        <pt x="516" y="687" on="0"/>
        <pt x="547" y="687" on="1"/>
        <pt x="579" y="687" on="1"/>
        <pt x="586" y="682" on="1"/>
        <pt x="586" y="1" on="1"/>
        <pt x="558" y="-4" on="0"/>
        <pt x="490" y="-4" on="0"/>
        <pt x="465" y="0" on="1"/>
        <pt x="246" y="427" on="1"/>
        <pt x="216" y="486" on="0"/>
      </contour>
      <contour>
        <pt x="354" y="756" on="1"/>
        <pt x="297" y="783" on="1"/>
        <pt x="277" y="792" on="0"/>
        <pt x="242" y="792" on="0"/>
        <pt x="224" y="767" on="1"/>
        <pt x="212" y="753" on="1"/>
        <pt x="197" y="753" on="0"/>
        <pt x="169" y="770" on="0"/>
        <pt x="164" y="782" on="1"/>
        <pt x="172" y="802" on="1"/>
        <pt x="186" y="835" on="0"/>
        <pt x="240" y="873" on="0"/>
        <pt x="300" y="873" on="0"/>
        <pt x="330" y="858" on="1"/>
        <pt x="387" y="831" on="1"/>
        <pt x="403" y="822" on="0"/>
        <pt x="441" y="822" on="0"/>
        <pt x="460" y="847" on="1"/>
        <pt x="472" y="861" on="1"/>
        <pt x="486" y="861" on="0"/>
        <pt x="514" y="844" on="0"/>
        <pt x="520" y="831" on="1"/>
        <pt x="512" y="812" on="1"/>
        <pt x="496" y="778" on="0"/>
        <pt x="443" y="741" on="0"/>
        <pt x="388" y="741" on="0"/>
      </contour>
    </TTGlyph>
    <TTGlyph name="O" xMin="51" yMin="-13" xMax="606" yMax="696">
      <contour>
        <pt x="156" y="394" on="0"/>
        <pt x="156" y="290" on="0"/>
        <pt x="171" y="202" on="0"/>
        <pt x="206" y="117" on="0"/>
        <pt x="277" y="68" on="0"/>
        <pt x="369" y="68" on="0"/>
        <pt x="432" y="102" on="0"/>
        <pt x="469" y="155" on="0"/>
        <pt x="480" y="192" on="1"/>
        <pt x="500" y="256" on="0"/>
        <pt x="500" y="394" on="0"/>
        <pt x="486" y="481" on="0"/>
        <pt x="451" y="566" on="0"/>
        <pt x="379" y="615" on="0"/>
        <pt x="277" y="615" on="0"/>
        <pt x="206" y="566" on="0"/>
        <pt x="171" y="481" on="0"/>
      </contour>
      <contour>
        <pt x="157" y="47" on="1"/>
        <pt x="51" y="139" on="0"/>
        <pt x="51" y="544" on="0"/>
        <pt x="157" y="636" on="1"/>
        <pt x="225" y="696" on="0"/>
        <pt x="431" y="696" on="0"/>
        <pt x="499" y="636" on="1"/>
        <pt x="606" y="544" on="0"/>
        <pt x="606" y="139" on="0"/>
        <pt x="499" y="47" on="1"/>
        <pt x="431" y="-13" on="0"/>
        <pt x="225" y="-13" on="0"/>
      </contour>
    </TTGlyph>
    <TTGlyph name="OE" xMin="51" yMin="-13" xMax="848" yMax="696">
      <contour>
        <pt x="521" y="130" on="1"/>
        <pt x="520" y="83" on="1"/>
        <pt x="558" y="85" on="0"/>
        <pt x="586" y="85" on="1"/>
        <pt x="848" y="85" on="1"/>
        <pt x="848" y="59" on="0"/>
        <pt x="845" y="46" on="1"/>
        <pt x="837" y="-1" on="0"/>
        <pt x="782" y="-1" on="1"/>
        <pt x="453" y="-1" on="1"/>
        <pt x="367" y="-13" on="0"/>
        <pt x="330" y="-13" on="1"/>
        <pt x="226" y="-13" on="0"/>
        <pt x="158" y="47" on="1"/>
        <pt x="51" y="140" on="0"/>
        <pt x="51" y="342" on="1"/>
        <pt x="51" y="431" on="0"/>
        <pt x="103" y="588" on="0"/>
        <pt x="158" y="636" on="1"/>
        <pt x="226" y="696" on="0"/>
        <pt x="330" y="696" on="1"/>
        <pt x="357" y="696" on="0"/>
        <pt x="456" y="683" on="1"/>
        <pt x="829" y="683" on="1"/>
        <pt x="832" y="668" on="0"/>
        <pt x="832" y="618" on="0"/>
        <pt x="824" y="598" on="1"/>
        <pt x="583" y="598" on="1"/>
        <pt x="543" y="598" on="0"/>
        <pt x="520" y="599" on="1"/>
        <pt x="521" y="534" on="1"/>
        <pt x="521" y="386" on="1"/>
        <pt x="583" y="387" on="1"/>
        <pt x="775" y="387" on="1"/>
        <pt x="780" y="369" on="0"/>
        <pt x="780" y="320" on="0"/>
        <pt x="775" y="303" on="1"/>
        <pt x="583" y="303" on="1"/>
        <pt x="544" y="303" on="0"/>
        <pt x="521" y="304" on="1"/>
      </contour>
      <contour>
        <pt x="206" y="117" on="0"/>
        <pt x="278" y="68" on="0"/>
        <pt x="373" y="68" on="0"/>
        <pt x="424" y="80" on="1"/>
        <pt x="424" y="602" on="1"/>
        <pt x="368" y="615" on="0"/>
        <pt x="279" y="615" on="0"/>
        <pt x="206" y="566" on="0"/>
        <pt x="170" y="481" on="0"/>
        <pt x="155" y="393" on="0"/>
        <pt x="155" y="291" on="0"/>
        <pt x="170" y="202" on="0"/>
      </contour>
    </TTGlyph>
    <TTGlyph name="Oacute" xMin="51" yMin="-13" xMax="606" yMax="898">
      <contour>
        <pt x="156" y="394" on="0"/>
        <pt x="156" y="290" on="0"/>
        <pt x="171" y="202" on="0"/>
        <pt x="206" y="117" on="0"/>
        <pt x="277" y="68" on="0"/>
        <pt x="369" y="68" on="0"/>
        <pt x="432" y="102" on="0"/>
        <pt x="469" y="155" on="0"/>
        <pt x="480" y="192" on="1"/>
        <pt x="500" y="256" on="0"/>
        <pt x="500" y="394" on="0"/>
        <pt x="486" y="481" on="0"/>
        <pt x="451" y="566" on="0"/>
        <pt x="379" y="615" on="0"/>
        <pt x="277" y="615" on="0"/>
        <pt x="206" y="566" on="0"/>
        <pt x="171" y="481" on="0"/>
      </contour>
      <contour>
        <pt x="157" y="47" on="1"/>
        <pt x="51" y="139" on="0"/>
        <pt x="51" y="544" on="0"/>
        <pt x="157" y="636" on="1"/>
        <pt x="225" y="696" on="0"/>
        <pt x="431" y="696" on="0"/>
        <pt x="499" y="636" on="1"/>
        <pt x="606" y="544" on="0"/>
        <pt x="606" y="139" on="0"/>
        <pt x="499" y="47" on="1"/>
        <pt x="431" y="-13" on="0"/>
        <pt x="225" y="-13" on="0"/>
      </contour>
      <contour>
        <pt x="230" y="779" on="1"/>
        <pt x="430" y="898" on="1"/>
        <pt x="445" y="887" on="0"/>
        <pt x="471" y="841" on="0"/>
        <pt x="474" y="817" on="1"/>
        <pt x="259" y="728" on="1"/>
        <pt x="234" y="745" on="0"/>
      </contour>
    </TTGlyph>
    <TTGlyph name="Ocircumflex" xMin="51" yMin="-13" xMax="606" yMax="890">
      <contour>
        <pt x="156" y="394" on="0"/>
        <pt x="156" y="290" on="0"/>
        <pt x="171" y="202" on="0"/>
        <pt x="206" y="117" on="0"/>
        <pt x="277" y="68" on="0"/>
        <pt x="369" y="68" on="0"/>
        <pt x="432" y="102" on="0"/>
        <pt x="469" y="155" on="0"/>
        <pt x="480" y="192" on="1"/>
        <pt x="500" y="256" on="0"/>
        <pt x="500" y="394" on="0"/>
        <pt x="486" y="481" on="0"/>
        <pt x="451" y="566" on="0"/>
        <pt x="379" y="615" on="0"/>
        <pt x="277" y="615" on="0"/>
        <pt x="206" y="566" on="0"/>
        <pt x="171" y="481" on="0"/>
      </contour>
      <contour>
        <pt x="157" y="47" on="1"/>
        <pt x="51" y="139" on="0"/>
        <pt x="51" y="544" on="0"/>
        <pt x="157" y="636" on="1"/>
        <pt x="225" y="696" on="0"/>
        <pt x="431" y="696" on="0"/>
        <pt x="499" y="636" on="1"/>
        <pt x="606" y="544" on="0"/>
        <pt x="606" y="139" on="0"/>
        <pt x="499" y="47" on="1"/>
        <pt x="431" y="-13" on="0"/>
        <pt x="225" y="-13" on="0"/>
      </contour>
      <contour>
        <pt x="439" y="737" on="1"/>
        <pt x="327" y="812" on="1"/>
        <pt x="213" y="730" on="1"/>
        <pt x="200" y="735" on="0"/>
        <pt x="174" y="760" on="0"/>
        <pt x="170" y="774" on="1"/>
        <pt x="284" y="885" on="1"/>
        <pt x="306" y="890" on="0"/>
        <pt x="349" y="890" on="0"/>
        <pt x="371" y="885" on="1"/>
        <pt x="482" y="780" on="1"/>
        <pt x="477" y="765" on="0"/>
        <pt x="452" y="741" on="0"/>
      </contour>
    </TTGlyph>
    <TTGlyph name="Odieresis" xMin="51" yMin="-13" xMax="606" yMax="839">
      <contour>
        <pt x="156" y="394" on="0"/>
        <pt x="156" y="290" on="0"/>
        <pt x="171" y="202" on="0"/>
        <pt x="206" y="117" on="0"/>
        <pt x="277" y="68" on="0"/>
        <pt x="369" y="68" on="0"/>
        <pt x="432" y="102" on="0"/>
        <pt x="469" y="155" on="0"/>
        <pt x="480" y="192" on="1"/>
        <pt x="500" y="256" on="0"/>
        <pt x="500" y="394" on="0"/>
        <pt x="486" y="481" on="0"/>
        <pt x="451" y="566" on="0"/>
        <pt x="379" y="615" on="0"/>
        <pt x="277" y="615" on="0"/>
        <pt x="206" y="566" on="0"/>
        <pt x="171" y="481" on="0"/>
      </contour>
      <contour>
        <pt x="157" y="47" on="1"/>
        <pt x="51" y="139" on="0"/>
        <pt x="51" y="544" on="0"/>
        <pt x="157" y="636" on="1"/>
        <pt x="225" y="696" on="0"/>
        <pt x="431" y="696" on="0"/>
        <pt x="499" y="636" on="1"/>
        <pt x="606" y="544" on="0"/>
        <pt x="606" y="139" on="0"/>
        <pt x="499" y="47" on="1"/>
        <pt x="431" y="-13" on="0"/>
        <pt x="225" y="-13" on="0"/>
      </contour>
      <contour>
        <pt x="405" y="839" on="0"/>
        <pt x="459" y="839" on="0"/>
        <pt x="479" y="828" on="1"/>
        <pt x="487" y="811" on="0"/>
        <pt x="487" y="764" on="0"/>
        <pt x="479" y="747" on="1"/>
        <pt x="462" y="736" on="0"/>
        <pt x="402" y="736" on="0"/>
        <pt x="385" y="747" on="1"/>
        <pt x="376" y="764" on="0"/>
        <pt x="376" y="811" on="0"/>
        <pt x="385" y="828" on="1"/>
      </contour>
      <contour>
        <pt x="197" y="839" on="0"/>
        <pt x="251" y="839" on="0"/>
        <pt x="271" y="828" on="1"/>
        <pt x="280" y="811" on="0"/>
        <pt x="280" y="764" on="0"/>
        <pt x="271" y="747" on="1"/>
        <pt x="254" y="736" on="0"/>
        <pt x="194" y="736" on="0"/>
        <pt x="177" y="747" on="1"/>
        <pt x="169" y="764" on="0"/>
        <pt x="169" y="811" on="0"/>
        <pt x="177" y="828" on="1"/>
      </contour>
    </TTGlyph>
    <TTGlyph name="Ograve" xMin="51" yMin="-13" xMax="606" yMax="898">
      <contour>
        <pt x="156" y="394" on="0"/>
        <pt x="156" y="290" on="0"/>
        <pt x="171" y="202" on="0"/>
        <pt x="206" y="117" on="0"/>
        <pt x="277" y="68" on="0"/>
        <pt x="369" y="68" on="0"/>
        <pt x="432" y="102" on="0"/>
        <pt x="469" y="155" on="0"/>
        <pt x="480" y="192" on="1"/>
        <pt x="500" y="256" on="0"/>
        <pt x="500" y="394" on="0"/>
        <pt x="486" y="481" on="0"/>
        <pt x="451" y="566" on="0"/>
        <pt x="379" y="615" on="0"/>
        <pt x="277" y="615" on="0"/>
        <pt x="206" y="566" on="0"/>
        <pt x="171" y="481" on="0"/>
      </contour>
      <contour>
        <pt x="157" y="47" on="1"/>
        <pt x="51" y="139" on="0"/>
        <pt x="51" y="544" on="0"/>
        <pt x="157" y="636" on="1"/>
        <pt x="225" y="696" on="0"/>
        <pt x="431" y="696" on="0"/>
        <pt x="499" y="636" on="1"/>
        <pt x="606" y="544" on="0"/>
        <pt x="606" y="139" on="0"/>
        <pt x="499" y="47" on="1"/>
        <pt x="431" y="-13" on="0"/>
        <pt x="225" y="-13" on="0"/>
      </contour>
      <contour>
        <pt x="239" y="898" on="1"/>
        <pt x="439" y="779" on="1"/>
        <pt x="433" y="743" on="0"/>
        <pt x="410" y="728" on="1"/>
        <pt x="195" y="817" on="1"/>
        <pt x="198" y="841" on="0"/>
        <pt x="224" y="887" on="0"/>
      </contour>
    </TTGlyph>
    <TTGlyph name="Oslash" xMin="51" yMin="-50" xMax="607" yMax="734">
      <contour>
        <pt x="51" y="342" on="1"/>
        <pt x="51" y="431" on="0"/>
        <pt x="103" y="588" on="0"/>
        <pt x="158" y="636" on="1"/>
        <pt x="226" y="696" on="0"/>
        <pt x="329" y="696" on="1"/>
        <pt x="403" y="696" on="0"/>
        <pt x="457" y="666" on="1"/>
        <pt x="496" y="734" on="1"/>
        <pt x="538" y="728" on="0"/>
        <pt x="562" y="698" on="1"/>
        <pt x="518" y="618" on="1"/>
        <pt x="607" y="522" on="0"/>
        <pt x="607" y="342" on="1"/>
        <pt x="607" y="140" on="0"/>
        <pt x="500" y="47" on="1"/>
        <pt x="432" y="-13" on="0"/>
        <pt x="329" y="-13" on="1"/>
        <pt x="255" y="-13" on="0"/>
        <pt x="200" y="16" on="1"/>
        <pt x="162" y="-50" on="1"/>
        <pt x="120" y="-44" on="0"/>
        <pt x="96" y="-14" on="1"/>
        <pt x="140" y="64" on="1"/>
        <pt x="51" y="160" on="0"/>
      </contour>
      <contour>
        <pt x="189" y="155" on="1"/>
        <pt x="416" y="591" on="1"/>
        <pt x="379" y="617" on="0"/>
        <pt x="278" y="617" on="0"/>
        <pt x="205" y="567" on="0"/>
        <pt x="187" y="524" on="1"/>
        <pt x="153" y="444" on="0"/>
        <pt x="153" y="224" on="0"/>
      </contour>
      <contour>
        <pt x="469" y="527" on="1"/>
        <pt x="241" y="92" on="1"/>
        <pt x="278" y="66" on="0"/>
        <pt x="380" y="66" on="0"/>
        <pt x="452" y="116" on="0"/>
        <pt x="470" y="159" on="1"/>
        <pt x="504" y="237" on="0"/>
        <pt x="504" y="456" on="0"/>
      </contour>
    </TTGlyph>
    <TTGlyph name="Otilde" xMin="51" yMin="-13" xMax="606" yMax="879">
      <contour>
        <pt x="156" y="394" on="0"/>
        <pt x="156" y="290" on="0"/>
        <pt x="171" y="202" on="0"/>
        <pt x="206" y="117" on="0"/>
        <pt x="277" y="68" on="0"/>
        <pt x="369" y="68" on="0"/>
        <pt x="432" y="102" on="0"/>
        <pt x="469" y="155" on="0"/>
        <pt x="480" y="192" on="1"/>
        <pt x="500" y="256" on="0"/>
        <pt x="500" y="394" on="0"/>
        <pt x="486" y="481" on="0"/>
        <pt x="451" y="566" on="0"/>
        <pt x="379" y="615" on="0"/>
        <pt x="277" y="615" on="0"/>
        <pt x="206" y="566" on="0"/>
        <pt x="171" y="481" on="0"/>
      </contour>
      <contour>
        <pt x="157" y="47" on="1"/>
        <pt x="51" y="139" on="0"/>
        <pt x="51" y="544" on="0"/>
        <pt x="157" y="636" on="1"/>
        <pt x="225" y="696" on="0"/>
        <pt x="431" y="696" on="0"/>
        <pt x="499" y="636" on="1"/>
        <pt x="606" y="544" on="0"/>
        <pt x="606" y="139" on="0"/>
        <pt x="499" y="47" on="1"/>
        <pt x="431" y="-13" on="0"/>
        <pt x="225" y="-13" on="0"/>
      </contour>
      <contour>
        <pt x="339" y="762" on="1"/>
        <pt x="283" y="790" on="1"/>
        <pt x="259" y="798" on="0"/>
        <pt x="251" y="798" on="1"/>
        <pt x="230" y="798" on="0"/>
        <pt x="211" y="774" on="1"/>
        <pt x="200" y="759" on="1"/>
        <pt x="185" y="759" on="0"/>
        <pt x="157" y="776" on="0"/>
        <pt x="152" y="789" on="1"/>
        <pt x="161" y="808" on="1"/>
        <pt x="192" y="879" on="0"/>
        <pt x="258" y="879" on="1"/>
        <pt x="283" y="879" on="0"/>
        <pt x="315" y="863" on="1"/>
        <pt x="371" y="837" on="1"/>
        <pt x="387" y="828" on="0"/>
        <pt x="423" y="828" on="0"/>
        <pt x="443" y="853" on="1"/>
        <pt x="454" y="867" on="1"/>
        <pt x="490" y="865" on="0"/>
        <pt x="502" y="837" on="1"/>
        <pt x="493" y="818" on="1"/>
        <pt x="478" y="784" on="0"/>
        <pt x="426" y="747" on="0"/>
        <pt x="371" y="747" on="0"/>
      </contour>
    </TTGlyph>
    <TTGlyph name="P" xMin="92" yMin="-4" xMax="529" yMax="687">
      <contour>
        <pt x="99" y="684" on="1"/>
        <pt x="301" y="687" on="1"/>
        <pt x="404" y="687" on="0"/>
        <pt x="529" y="573" on="0"/>
        <pt x="529" y="360" on="0"/>
        <pt x="404" y="245" on="0"/>
        <pt x="301" y="245" on="1"/>
        <pt x="192" y="245" on="1"/>
        <pt x="192" y="0" on="1"/>
        <pt x="172" y="-4" on="0"/>
        <pt x="112" y="-4" on="0"/>
        <pt x="92" y="0" on="1"/>
        <pt x="92" y="677" on="1"/>
      </contour>
      <contour>
        <pt x="192" y="324" on="1"/>
        <pt x="299" y="325" on="1"/>
        <pt x="347" y="325" on="0"/>
        <pt x="406" y="372" on="0"/>
        <pt x="424" y="430" on="0"/>
        <pt x="424" y="524" on="0"/>
        <pt x="368" y="606" on="0"/>
        <pt x="226" y="606" on="0"/>
        <pt x="192" y="607" on="1"/>
      </contour>
    </TTGlyph>
    <TTGlyph name="Q" xMin="51" yMin="-126" xMax="598" yMax="696">
      <contour>
        <pt x="455" y="-100" on="1"/>
        <pt x="340" y="-12" on="1"/>
        <pt x="336" y="-13" on="0"/>
        <pt x="329" y="-13" on="1"/>
        <pt x="222" y="-13" on="0"/>
        <pt x="154" y="45" on="1"/>
        <pt x="51" y="136" on="0"/>
        <pt x="51" y="547" on="0"/>
        <pt x="154" y="638" on="1"/>
        <pt x="220" y="696" on="0"/>
        <pt x="429" y="696" on="0"/>
        <pt x="495" y="638" on="1"/>
        <pt x="598" y="547" on="0"/>
        <pt x="598" y="146" on="0"/>
        <pt x="506" y="59" on="1"/>
        <pt x="478" y="31" on="0"/>
        <pt x="448" y="19" on="1"/>
        <pt x="470" y="4" on="1"/>
        <pt x="547" y="-52" on="0"/>
        <pt x="597" y="-53" on="1"/>
        <pt x="595" y="-88" on="0"/>
        <pt x="555" y="-126" on="0"/>
        <pt x="489" y="-126" on="0"/>
      </contour>
      <contour>
        <pt x="325" y="615" on="1"/>
        <pt x="155" y="615" on="0"/>
        <pt x="155" y="70" on="0"/>
        <pt x="325" y="70" on="1"/>
        <pt x="493" y="70" on="0"/>
        <pt x="493" y="615" on="0"/>
      </contour>
    </TTGlyph>
    <TTGlyph name="R" xMin="92" yMin="-7" xMax="567" yMax="687">
      <contour>
        <pt x="99" y="684" on="1"/>
        <pt x="311" y="687" on="1"/>
        <pt x="416" y="687" on="0"/>
        <pt x="536" y="580" on="0"/>
        <pt x="536" y="483" on="1"/>
        <pt x="536" y="416" on="0"/>
        <pt x="464" y="320" on="0"/>
        <pt x="407" y="301" on="1"/>
        <pt x="452" y="285" on="0"/>
        <pt x="477" y="217" on="1"/>
        <pt x="523" y="96" on="1"/>
        <pt x="543" y="43" on="0"/>
        <pt x="567" y="24" on="1"/>
        <pt x="547" y="-7" on="0"/>
        <pt x="500" y="-7" on="1"/>
        <pt x="473" y="-7" on="0"/>
        <pt x="445" y="22" on="0"/>
        <pt x="433" y="55" on="1"/>
        <pt x="381" y="194" on="1"/>
        <pt x="366" y="235" on="0"/>
        <pt x="321" y="277" on="0"/>
        <pt x="278" y="277" on="1"/>
        <pt x="192" y="277" on="1"/>
        <pt x="192" y="0" on="1"/>
        <pt x="172" y="-4" on="0"/>
        <pt x="112" y="-4" on="0"/>
        <pt x="92" y="0" on="1"/>
        <pt x="92" y="677" on="1"/>
      </contour>
      <contour>
        <pt x="192" y="608" on="1"/>
        <pt x="192" y="357" on="1"/>
        <pt x="251" y="360" on="0"/>
        <pt x="376" y="360" on="0"/>
        <pt x="432" y="430" on="0"/>
        <pt x="432" y="483" on="1"/>
        <pt x="432" y="607" on="0"/>
        <pt x="307" y="607" on="1"/>
        <pt x="226" y="607" on="0"/>
      </contour>
    </TTGlyph>
    <TTGlyph name="Racute" xMin="92" yMin="-7" xMax="567" yMax="898">
      <contour>
        <pt x="99" y="684" on="1"/>
        <pt x="311" y="687" on="1"/>
        <pt x="416" y="687" on="0"/>
        <pt x="536" y="580" on="0"/>
        <pt x="536" y="483" on="1"/>
        <pt x="536" y="416" on="0"/>
        <pt x="464" y="320" on="0"/>
        <pt x="407" y="301" on="1"/>
        <pt x="452" y="285" on="0"/>
        <pt x="477" y="217" on="1"/>
        <pt x="523" y="96" on="1"/>
        <pt x="543" y="43" on="0"/>
        <pt x="567" y="24" on="1"/>
        <pt x="547" y="-7" on="0"/>
        <pt x="500" y="-7" on="1"/>
        <pt x="473" y="-7" on="0"/>
        <pt x="445" y="22" on="0"/>
        <pt x="433" y="55" on="1"/>
        <pt x="381" y="194" on="1"/>
        <pt x="366" y="235" on="0"/>
        <pt x="321" y="277" on="0"/>
        <pt x="278" y="277" on="1"/>
        <pt x="192" y="277" on="1"/>
        <pt x="192" y="0" on="1"/>
        <pt x="172" y="-4" on="0"/>
        <pt x="112" y="-4" on="0"/>
        <pt x="92" y="0" on="1"/>
        <pt x="92" y="677" on="1"/>
      </contour>
      <contour>
        <pt x="192" y="608" on="1"/>
        <pt x="192" y="357" on="1"/>
        <pt x="251" y="360" on="0"/>
        <pt x="376" y="360" on="0"/>
        <pt x="432" y="430" on="0"/>
        <pt x="432" y="483" on="1"/>
        <pt x="432" y="607" on="0"/>
        <pt x="307" y="607" on="1"/>
        <pt x="226" y="607" on="0"/>
      </contour>
      <contour>
        <pt x="200" y="779" on="1"/>
        <pt x="400" y="898" on="1"/>
        <pt x="415" y="887" on="0"/>
        <pt x="441" y="841" on="0"/>
        <pt x="444" y="817" on="1"/>
        <pt x="229" y="728" on="1"/>
        <pt x="204" y="745" on="0"/>
      </contour>
    </TTGlyph>
    <TTGlyph name="Rcaron" xMin="92" yMin="-7" xMax="567" yMax="896">
      <contour>
        <pt x="99" y="684" on="1"/>
        <pt x="311" y="687" on="1"/>
        <pt x="416" y="687" on="0"/>
        <pt x="536" y="580" on="0"/>
        <pt x="536" y="483" on="1"/>
        <pt x="536" y="416" on="0"/>
        <pt x="464" y="320" on="0"/>
        <pt x="407" y="301" on="1"/>
        <pt x="452" y="285" on="0"/>
        <pt x="477" y="217" on="1"/>
        <pt x="523" y="96" on="1"/>
        <pt x="543" y="43" on="0"/>
        <pt x="567" y="24" on="1"/>
        <pt x="547" y="-7" on="0"/>
        <pt x="500" y="-7" on="1"/>
        <pt x="473" y="-7" on="0"/>
        <pt x="445" y="22" on="0"/>
        <pt x="433" y="55" on="1"/>
        <pt x="381" y="194" on="1"/>
        <pt x="366" y="235" on="0"/>
        <pt x="321" y="277" on="0"/>
        <pt x="278" y="277" on="1"/>
        <pt x="192" y="277" on="1"/>
        <pt x="192" y="0" on="1"/>
        <pt x="172" y="-4" on="0"/>
        <pt x="112" y="-4" on="0"/>
        <pt x="92" y="0" on="1"/>
        <pt x="92" y="677" on="1"/>
      </contour>
      <contour>
        <pt x="192" y="608" on="1"/>
        <pt x="192" y="357" on="1"/>
        <pt x="251" y="360" on="0"/>
        <pt x="376" y="360" on="0"/>
        <pt x="432" y="430" on="0"/>
        <pt x="432" y="483" on="1"/>
        <pt x="432" y="607" on="0"/>
        <pt x="307" y="607" on="1"/>
        <pt x="226" y="607" on="0"/>
      </contour>
      <contour>
        <pt x="185" y="889" on="1"/>
        <pt x="296" y="814" on="1"/>
        <pt x="411" y="896" on="1"/>
        <pt x="424" y="891" on="0"/>
        <pt x="450" y="866" on="0"/>
        <pt x="454" y="853" on="1"/>
        <pt x="340" y="741" on="1"/>
        <pt x="316" y="737" on="0"/>
        <pt x="272" y="737" on="0"/>
        <pt x="253" y="741" on="1"/>
        <pt x="141" y="846" on="1"/>
        <pt x="151" y="878" on="0"/>
      </contour>
    </TTGlyph>
    <TTGlyph name="Rcommaaccent" xMin="92" yMin="-260" xMax="567" yMax="687">
      <contour>
        <pt x="99" y="684" on="1"/>
        <pt x="311" y="687" on="1"/>
        <pt x="416" y="687" on="0"/>
        <pt x="536" y="580" on="0"/>
        <pt x="536" y="483" on="1"/>
        <pt x="536" y="416" on="0"/>
        <pt x="464" y="320" on="0"/>
        <pt x="407" y="301" on="1"/>
        <pt x="452" y="285" on="0"/>
        <pt x="477" y="217" on="1"/>
        <pt x="523" y="96" on="1"/>
        <pt x="543" y="43" on="0"/>
        <pt x="567" y="24" on="1"/>
        <pt x="547" y="-7" on="0"/>
        <pt x="500" y="-7" on="1"/>
        <pt x="473" y="-7" on="0"/>
        <pt x="445" y="22" on="0"/>
        <pt x="433" y="55" on="1"/>
        <pt x="381" y="194" on="1"/>
        <pt x="366" y="235" on="0"/>
        <pt x="321" y="277" on="0"/>
        <pt x="278" y="277" on="1"/>
        <pt x="192" y="277" on="1"/>
        <pt x="192" y="0" on="1"/>
        <pt x="172" y="-4" on="0"/>
        <pt x="112" y="-4" on="0"/>
        <pt x="92" y="0" on="1"/>
        <pt x="92" y="677" on="1"/>
      </contour>
      <contour>
        <pt x="192" y="608" on="1"/>
        <pt x="192" y="357" on="1"/>
        <pt x="251" y="360" on="0"/>
        <pt x="376" y="360" on="0"/>
        <pt x="432" y="430" on="0"/>
        <pt x="432" y="483" on="1"/>
        <pt x="432" y="607" on="0"/>
        <pt x="307" y="607" on="1"/>
        <pt x="226" y="607" on="0"/>
      </contour>
      <contour>
        <pt x="266" y="-70" on="1"/>
        <pt x="292" y="-53" on="0"/>
        <pt x="349" y="-53" on="0"/>
        <pt x="363" y="-58" on="1"/>
        <pt x="372" y="-78" on="0"/>
        <pt x="372" y="-158" on="0"/>
        <pt x="308" y="-237" on="0"/>
        <pt x="252" y="-260" on="1"/>
        <pt x="227" y="-251" on="0"/>
        <pt x="220" y="-218" on="1"/>
        <pt x="279" y="-180" on="0"/>
        <pt x="279" y="-123" on="1"/>
        <pt x="279" y="-94" on="0"/>
      </contour>
    </TTGlyph>
    <TTGlyph name="S" xMin="32" yMin="-13" xMax="513" yMax="696">
      <contour>
        <pt x="32" y="62" on="1"/>
        <pt x="37" y="110" on="0"/>
        <pt x="75" y="139" on="1"/>
        <pt x="179" y="71" on="0"/>
        <pt x="276" y="71" on="1"/>
        <pt x="337" y="71" on="0"/>
        <pt x="409" y="126" on="0"/>
        <pt x="409" y="170" on="1"/>
        <pt x="409" y="239" on="0"/>
        <pt x="314" y="281" on="1"/>
        <pt x="197" y="331" on="1"/>
        <pt x="60" y="391" on="0"/>
        <pt x="60" y="504" on="1"/>
        <pt x="60" y="586" on="0"/>
        <pt x="185" y="696" on="0"/>
        <pt x="391" y="696" on="0"/>
        <pt x="493" y="645" on="1"/>
        <pt x="491" y="597" on="0"/>
        <pt x="456" y="566" on="1"/>
        <pt x="362" y="613" on="0"/>
        <pt x="230" y="613" on="0"/>
        <pt x="162" y="558" on="0"/>
        <pt x="162" y="483" on="0"/>
        <pt x="206" y="439" on="0"/>
        <pt x="248" y="421" on="1"/>
        <pt x="364" y="372" on="1"/>
        <pt x="513" y="306" on="0"/>
        <pt x="513" y="186" on="1"/>
        <pt x="513" y="97" on="0"/>
        <pt x="389" y="-13" on="0"/>
        <pt x="140" y="-13" on="0"/>
      </contour>
    </TTGlyph>
    <TTGlyph name="Sacute" xMin="32" yMin="-13" xMax="513" yMax="898">
      <contour>
        <pt x="32" y="62" on="1"/>
        <pt x="37" y="110" on="0"/>
        <pt x="75" y="139" on="1"/>
        <pt x="179" y="71" on="0"/>
        <pt x="276" y="71" on="1"/>
        <pt x="337" y="71" on="0"/>
        <pt x="409" y="126" on="0"/>
        <pt x="409" y="170" on="1"/>
        <pt x="409" y="239" on="0"/>
        <pt x="314" y="281" on="1"/>
        <pt x="197" y="331" on="1"/>
        <pt x="60" y="391" on="0"/>
        <pt x="60" y="504" on="1"/>
        <pt x="60" y="586" on="0"/>
        <pt x="185" y="696" on="0"/>
        <pt x="391" y="696" on="0"/>
        <pt x="493" y="645" on="1"/>
        <pt x="491" y="597" on="0"/>
        <pt x="456" y="566" on="1"/>
        <pt x="362" y="613" on="0"/>
        <pt x="230" y="613" on="0"/>
        <pt x="162" y="558" on="0"/>
        <pt x="162" y="483" on="0"/>
        <pt x="206" y="439" on="0"/>
        <pt x="248" y="421" on="1"/>
        <pt x="364" y="372" on="1"/>
        <pt x="513" y="306" on="0"/>
        <pt x="513" y="186" on="1"/>
        <pt x="513" y="97" on="0"/>
        <pt x="389" y="-13" on="0"/>
        <pt x="140" y="-13" on="0"/>
      </contour>
      <contour>
        <pt x="189" y="779" on="1"/>
        <pt x="389" y="898" on="1"/>
        <pt x="404" y="887" on="0"/>
        <pt x="430" y="841" on="0"/>
        <pt x="433" y="817" on="1"/>
        <pt x="218" y="728" on="1"/>
        <pt x="193" y="745" on="0"/>
      </contour>
    </TTGlyph>
    <TTGlyph name="Scaron" xMin="32" yMin="-13" xMax="513" yMax="896">
      <contour>
        <pt x="32" y="62" on="1"/>
        <pt x="37" y="110" on="0"/>
        <pt x="75" y="139" on="1"/>
        <pt x="179" y="71" on="0"/>
        <pt x="276" y="71" on="1"/>
        <pt x="337" y="71" on="0"/>
        <pt x="409" y="126" on="0"/>
        <pt x="409" y="170" on="1"/>
        <pt x="409" y="239" on="0"/>
        <pt x="314" y="281" on="1"/>
        <pt x="197" y="331" on="1"/>
        <pt x="60" y="391" on="0"/>
        <pt x="60" y="504" on="1"/>
        <pt x="60" y="586" on="0"/>
        <pt x="185" y="696" on="0"/>
        <pt x="391" y="696" on="0"/>
        <pt x="493" y="645" on="1"/>
        <pt x="491" y="597" on="0"/>
        <pt x="456" y="566" on="1"/>
        <pt x="362" y="613" on="0"/>
        <pt x="230" y="613" on="0"/>
        <pt x="162" y="558" on="0"/>
        <pt x="162" y="483" on="0"/>
        <pt x="206" y="439" on="0"/>
        <pt x="248" y="421" on="1"/>
        <pt x="364" y="372" on="1"/>
        <pt x="513" y="306" on="0"/>
        <pt x="513" y="186" on="1"/>
        <pt x="513" y="97" on="0"/>
        <pt x="389" y="-13" on="0"/>
        <pt x="140" y="-13" on="0"/>
      </contour>
      <contour>
        <pt x="174" y="889" on="1"/>
        <pt x="285" y="814" on="1"/>
        <pt x="400" y="896" on="1"/>
        <pt x="413" y="891" on="0"/>
        <pt x="439" y="866" on="0"/>
        <pt x="443" y="853" on="1"/>
        <pt x="329" y="741" on="1"/>
        <pt x="305" y="737" on="0"/>
        <pt x="262" y="737" on="0"/>
        <pt x="242" y="741" on="1"/>
        <pt x="130" y="846" on="1"/>
        <pt x="140" y="878" on="0"/>
      </contour>
    </TTGlyph>
    <TTGlyph name="T" xMin="14" yMin="-4" xMax="479" yMax="683">
      <contour>
        <pt x="295" y="600" on="1"/>
        <pt x="296" y="526" on="1"/>
        <pt x="296" y="0" on="1"/>
        <pt x="275" y="-4" on="0"/>
        <pt x="216" y="-4" on="0"/>
        <pt x="196" y="0" on="1"/>
        <pt x="196" y="600" on="1"/>
        <pt x="139" y="599" on="1"/>
        <pt x="18" y="599" on="1"/>
        <pt x="14" y="618" on="0"/>
        <pt x="14" y="663" on="0"/>
        <pt x="18" y="683" on="1"/>
        <pt x="473" y="683" on="1"/>
        <pt x="479" y="666" on="0"/>
        <pt x="479" y="643" on="1"/>
        <pt x="479" y="599" on="0"/>
        <pt x="423" y="599" on="1"/>
        <pt x="353" y="599" on="1"/>
        <pt x="296" y="600" on="1"/>
      </contour>
    </TTGlyph>
    <TTGlyph name="Tcaron" xMin="14" yMin="-4" xMax="479" yMax="896">
      <contour>
        <pt x="295" y="600" on="1"/>
        <pt x="296" y="526" on="1"/>
        <pt x="296" y="0" on="1"/>
        <pt x="275" y="-4" on="0"/>
        <pt x="216" y="-4" on="0"/>
        <pt x="196" y="0" on="1"/>
        <pt x="196" y="600" on="1"/>
        <pt x="139" y="599" on="1"/>
        <pt x="18" y="599" on="1"/>
        <pt x="14" y="618" on="0"/>
        <pt x="14" y="663" on="0"/>
        <pt x="18" y="683" on="1"/>
        <pt x="473" y="683" on="1"/>
        <pt x="479" y="666" on="0"/>
        <pt x="479" y="643" on="1"/>
        <pt x="479" y="599" on="0"/>
        <pt x="423" y="599" on="1"/>
        <pt x="353" y="599" on="1"/>
        <pt x="296" y="600" on="1"/>
      </contour>
      <contour>
        <pt x="132" y="889" on="1"/>
        <pt x="243" y="814" on="1"/>
        <pt x="358" y="896" on="1"/>
        <pt x="371" y="891" on="0"/>
        <pt x="397" y="866" on="0"/>
        <pt x="401" y="853" on="1"/>
        <pt x="287" y="741" on="1"/>
        <pt x="263" y="737" on="0"/>
        <pt x="220" y="737" on="0"/>
        <pt x="200" y="741" on="1"/>
        <pt x="88" y="846" on="1"/>
        <pt x="98" y="878" on="0"/>
      </contour>
    </TTGlyph>
    <TTGlyph name="Thorn" xMin="92" yMin="-4" xMax="527" yMax="687">
      <contour>
        <pt x="92" y="0" on="1"/>
        <pt x="92" y="683" on="1"/>
        <pt x="112" y="687" on="0"/>
        <pt x="172" y="687" on="0"/>
        <pt x="192" y="683" on="1"/>
        <pt x="192" y="580" on="1"/>
        <pt x="262" y="582" on="0"/>
        <pt x="299" y="582" on="1"/>
        <pt x="402" y="582" on="0"/>
        <pt x="527" y="471" on="0"/>
        <pt x="527" y="258" on="0"/>
        <pt x="402" y="146" on="0"/>
        <pt x="299" y="146" on="1"/>
        <pt x="192" y="146" on="1"/>
        <pt x="192" y="0" on="1"/>
        <pt x="172" y="-4" on="0"/>
        <pt x="112" y="-4" on="0"/>
      </contour>
      <contour>
        <pt x="297" y="501" on="1"/>
        <pt x="192" y="502" on="1"/>
        <pt x="192" y="226" on="1"/>
        <pt x="231" y="227" on="0"/>
        <pt x="366" y="227" on="0"/>
        <pt x="423" y="308" on="0"/>
        <pt x="423" y="421" on="0"/>
        <pt x="366" y="501" on="0"/>
      </contour>
    </TTGlyph>
    <TTGlyph name="U" xMin="84" yMin="-13" xMax="584" yMax="687">
      <contour>
        <pt x="584" y="683" on="1"/>
        <pt x="584" y="238" on="1"/>
        <pt x="584" y="117" on="0"/>
        <pt x="449" y="-13" on="0"/>
        <pt x="219" y="-13" on="0"/>
        <pt x="84" y="117" on="0"/>
        <pt x="84" y="238" on="1"/>
        <pt x="84" y="681" on="1"/>
        <pt x="90" y="687" on="1"/>
        <pt x="128" y="687" on="1"/>
        <pt x="159" y="687" on="0"/>
        <pt x="184" y="657" on="0"/>
        <pt x="184" y="623" on="1"/>
        <pt x="184" y="239" on="1"/>
        <pt x="184" y="155" on="0"/>
        <pt x="260" y="68" on="0"/>
        <pt x="408" y="68" on="0"/>
        <pt x="485" y="155" on="0"/>
        <pt x="485" y="239" on="1"/>
        <pt x="485" y="683" on="1"/>
        <pt x="504" y="687" on="0"/>
        <pt x="565" y="687" on="0"/>
      </contour>
    </TTGlyph>
    <TTGlyph name="Uacute" xMin="84" yMin="-13" xMax="584" yMax="898">
      <contour>
        <pt x="584" y="683" on="1"/>
        <pt x="584" y="238" on="1"/>
        <pt x="584" y="117" on="0"/>
        <pt x="449" y="-13" on="0"/>
        <pt x="219" y="-13" on="0"/>
        <pt x="84" y="117" on="0"/>
        <pt x="84" y="238" on="1"/>
        <pt x="84" y="681" on="1"/>
        <pt x="90" y="687" on="1"/>
        <pt x="128" y="687" on="1"/>
        <pt x="159" y="687" on="0"/>
        <pt x="184" y="657" on="0"/>
        <pt x="184" y="623" on="1"/>
        <pt x="184" y="239" on="1"/>
        <pt x="184" y="155" on="0"/>
        <pt x="260" y="68" on="0"/>
        <pt x="408" y="68" on="0"/>
        <pt x="485" y="155" on="0"/>
        <pt x="485" y="239" on="1"/>
        <pt x="485" y="683" on="1"/>
        <pt x="504" y="687" on="0"/>
        <pt x="565" y="687" on="0"/>
      </contour>
      <contour>
        <pt x="235" y="779" on="1"/>
        <pt x="435" y="898" on="1"/>
        <pt x="450" y="887" on="0"/>
        <pt x="476" y="841" on="0"/>
        <pt x="479" y="817" on="1"/>
        <pt x="264" y="728" on="1"/>
        <pt x="239" y="745" on="0"/>
      </contour>
    </TTGlyph>
    <TTGlyph name="Ucircumflex" xMin="84" yMin="-13" xMax="584" yMax="890">
      <contour>
        <pt x="584" y="683" on="1"/>
        <pt x="584" y="238" on="1"/>
        <pt x="584" y="117" on="0"/>
        <pt x="449" y="-13" on="0"/>
        <pt x="219" y="-13" on="0"/>
        <pt x="84" y="117" on="0"/>
        <pt x="84" y="238" on="1"/>
        <pt x="84" y="681" on="1"/>
        <pt x="90" y="687" on="1"/>
        <pt x="128" y="687" on="1"/>
        <pt x="159" y="687" on="0"/>
        <pt x="184" y="657" on="0"/>
        <pt x="184" y="623" on="1"/>
        <pt x="184" y="239" on="1"/>
        <pt x="184" y="155" on="0"/>
        <pt x="260" y="68" on="0"/>
        <pt x="408" y="68" on="0"/>
        <pt x="485" y="155" on="0"/>
        <pt x="485" y="239" on="1"/>
        <pt x="485" y="683" on="1"/>
        <pt x="504" y="687" on="0"/>
        <pt x="565" y="687" on="0"/>
      </contour>
      <contour>
        <pt x="444" y="737" on="1"/>
        <pt x="332" y="812" on="1"/>
        <pt x="218" y="730" on="1"/>
        <pt x="205" y="735" on="0"/>
        <pt x="179" y="760" on="0"/>
        <pt x="175" y="774" on="1"/>
        <pt x="289" y="885" on="1"/>
        <pt x="311" y="890" on="0"/>
        <pt x="354" y="890" on="0"/>
        <pt x="376" y="885" on="1"/>
        <pt x="487" y="780" on="1"/>
        <pt x="482" y="765" on="0"/>
        <pt x="457" y="741" on="0"/>
      </contour>
    </TTGlyph>
    <TTGlyph name="Udieresis" xMin="84" yMin="-13" xMax="584" yMax="839">
      <contour>
        <pt x="584" y="683" on="1"/>
        <pt x="584" y="238" on="1"/>
        <pt x="584" y="117" on="0"/>
        <pt x="449" y="-13" on="0"/>
        <pt x="219" y="-13" on="0"/>
        <pt x="84" y="117" on="0"/>
        <pt x="84" y="238" on="1"/>
        <pt x="84" y="681" on="1"/>
        <pt x="90" y="687" on="1"/>
        <pt x="128" y="687" on="1"/>
        <pt x="159" y="687" on="0"/>
        <pt x="184" y="657" on="0"/>
        <pt x="184" y="623" on="1"/>
        <pt x="184" y="239" on="1"/>
        <pt x="184" y="155" on="0"/>
        <pt x="260" y="68" on="0"/>
        <pt x="408" y="68" on="0"/>
        <pt x="485" y="155" on="0"/>
        <pt x="485" y="239" on="1"/>
        <pt x="485" y="683" on="1"/>
        <pt x="504" y="687" on="0"/>
        <pt x="565" y="687" on="0"/>
      </contour>
      <contour>
        <pt x="410" y="839" on="0"/>
        <pt x="464" y="839" on="0"/>
        <pt x="484" y="828" on="1"/>
        <pt x="492" y="811" on="0"/>
        <pt x="492" y="764" on="0"/>
        <pt x="484" y="747" on="1"/>
        <pt x="467" y="736" on="0"/>
        <pt x="407" y="736" on="0"/>
        <pt x="390" y="747" on="1"/>
        <pt x="381" y="764" on="0"/>
        <pt x="381" y="811" on="0"/>
        <pt x="390" y="828" on="1"/>
      </contour>
      <contour>
        <pt x="202" y="839" on="0"/>
        <pt x="256" y="839" on="0"/>
        <pt x="276" y="828" on="1"/>
        <pt x="285" y="811" on="0"/>
        <pt x="285" y="764" on="0"/>
        <pt x="276" y="747" on="1"/>
        <pt x="259" y="736" on="0"/>
        <pt x="199" y="736" on="0"/>
        <pt x="182" y="747" on="1"/>
        <pt x="174" y="764" on="0"/>
        <pt x="174" y="811" on="0"/>
        <pt x="182" y="828" on="1"/>
      </contour>
    </TTGlyph>
    <TTGlyph name="Ugrave" xMin="84" yMin="-13" xMax="584" yMax="898">
      <contour>
        <pt x="584" y="683" on="1"/>
        <pt x="584" y="238" on="1"/>
        <pt x="584" y="117" on="0"/>
        <pt x="449" y="-13" on="0"/>
        <pt x="219" y="-13" on="0"/>
        <pt x="84" y="117" on="0"/>
        <pt x="84" y="238" on="1"/>
        <pt x="84" y="681" on="1"/>
        <pt x="90" y="687" on="1"/>
        <pt x="128" y="687" on="1"/>
        <pt x="159" y="687" on="0"/>
        <pt x="184" y="657" on="0"/>
        <pt x="184" y="623" on="1"/>
        <pt x="184" y="239" on="1"/>
        <pt x="184" y="155" on="0"/>
        <pt x="260" y="68" on="0"/>
        <pt x="408" y="68" on="0"/>
        <pt x="485" y="155" on="0"/>
        <pt x="485" y="239" on="1"/>
        <pt x="485" y="683" on="1"/>
        <pt x="504" y="687" on="0"/>
        <pt x="565" y="687" on="0"/>
      </contour>
      <contour>
        <pt x="244" y="898" on="1"/>
        <pt x="444" y="779" on="1"/>
        <pt x="438" y="743" on="0"/>
        <pt x="415" y="728" on="1"/>
        <pt x="200" y="817" on="1"/>
        <pt x="203" y="841" on="0"/>
        <pt x="229" y="887" on="0"/>
      </contour>
    </TTGlyph>
    <TTGlyph name="Uring" xMin="84" yMin="-13" xMax="584" yMax="891">
      <contour>
        <pt x="584" y="683" on="1"/>
        <pt x="584" y="238" on="1"/>
        <pt x="584" y="117" on="0"/>
        <pt x="449" y="-13" on="0"/>
        <pt x="219" y="-13" on="0"/>
        <pt x="84" y="117" on="0"/>
        <pt x="84" y="238" on="1"/>
        <pt x="84" y="681" on="1"/>
        <pt x="90" y="687" on="1"/>
        <pt x="128" y="687" on="1"/>
        <pt x="159" y="687" on="0"/>
        <pt x="184" y="657" on="0"/>
        <pt x="184" y="623" on="1"/>
        <pt x="184" y="239" on="1"/>
        <pt x="184" y="155" on="0"/>
        <pt x="260" y="68" on="0"/>
        <pt x="408" y="68" on="0"/>
        <pt x="485" y="155" on="0"/>
        <pt x="485" y="239" on="1"/>
        <pt x="485" y="683" on="1"/>
        <pt x="504" y="687" on="0"/>
        <pt x="565" y="687" on="0"/>
      </contour>
      <contour>
        <pt x="215" y="733" on="0"/>
        <pt x="215" y="827" on="0"/>
        <pt x="281" y="891" on="0"/>
        <pt x="385" y="891" on="0"/>
        <pt x="451" y="827" on="0"/>
        <pt x="451" y="733" on="0"/>
        <pt x="385" y="668" on="0"/>
        <pt x="281" y="668" on="0"/>
      </contour>
      <contour>
        <pt x="311" y="835" on="0"/>
        <pt x="283" y="803" on="0"/>
        <pt x="283" y="756" on="0"/>
        <pt x="311" y="725" on="0"/>
        <pt x="355" y="725" on="0"/>
        <pt x="383" y="756" on="0"/>
        <pt x="383" y="803" on="0"/>
        <pt x="355" y="835" on="0"/>
      </contour>
    </TTGlyph>
    <TTGlyph name="V" xMin="22" yMin="-5" xMax="553" yMax="690">
      <contour>
        <pt x="298" y="91" on="1"/>
        <pt x="460" y="683" on="1"/>
        <pt x="477" y="687" on="0"/>
        <pt x="530" y="687" on="0"/>
        <pt x="549" y="681" on="1"/>
        <pt x="553" y="674" on="1"/>
        <pt x="353" y="-1" on="1"/>
        <pt x="305" y="-5" on="0"/>
        <pt x="249" y="-5" on="0"/>
        <pt x="216" y="14" on="0"/>
        <pt x="208" y="44" on="1"/>
        <pt x="22" y="674" on="1"/>
        <pt x="56" y="690" on="0"/>
        <pt x="83" y="690" on="1"/>
        <pt x="124" y="690" on="0"/>
        <pt x="138" y="641" on="1"/>
        <pt x="245" y="271" on="1"/>
        <pt x="254" y="241" on="0"/>
        <pt x="289" y="100" on="1"/>
        <pt x="291" y="91" on="0"/>
      </contour>
    </TTGlyph>
    <TTGlyph name="W" xMin="32" yMin="-5" xMax="815" yMax="690">
      <contour>
        <pt x="158" y="46" on="1"/>
        <pt x="32" y="678" on="1"/>
        <pt x="57" y="690" on="0"/>
        <pt x="112" y="690" on="0"/>
        <pt x="136" y="666" on="0"/>
        <pt x="141" y="636" on="1"/>
        <pt x="206" y="287" on="1"/>
        <pt x="239" y="94" on="1"/>
        <pt x="240" y="86" on="0"/>
        <pt x="243" y="83" on="0"/>
        <pt x="247" y="83" on="1"/>
        <pt x="360" y="669" on="1"/>
        <pt x="385" y="673" on="0"/>
        <pt x="468" y="673" on="0"/>
        <pt x="489" y="669" on="1"/>
        <pt x="592" y="94" on="1"/>
        <pt x="593" y="86" on="0"/>
        <pt x="597" y="83" on="0"/>
        <pt x="601" y="83" on="1"/>
        <pt x="614" y="169" on="0"/>
        <pt x="637" y="288" on="1"/>
        <pt x="717" y="683" on="1"/>
        <pt x="734" y="687" on="0"/>
        <pt x="788" y="687" on="0"/>
        <pt x="810" y="681" on="1"/>
        <pt x="815" y="674" on="1"/>
        <pt x="670" y="1" on="1"/>
        <pt x="634" y="-5" on="0"/>
        <pt x="554" y="-5" on="0"/>
        <pt x="524" y="15" on="0"/>
        <pt x="518" y="45" on="1"/>
        <pt x="469" y="319" on="1"/>
        <pt x="451" y="413" on="0"/>
        <pt x="427" y="568" on="1"/>
        <pt x="420" y="568" on="1"/>
        <pt x="396" y="426" on="0"/>
        <pt x="375" y="319" on="1"/>
        <pt x="311" y="0" on="1"/>
        <pt x="271" y="-5" on="0"/>
        <pt x="225" y="-5" on="1"/>
        <pt x="168" y="-5" on="0"/>
      </contour>
    </TTGlyph>
    <TTGlyph name="X" xMin="19" yMin="-7" xMax="565" yMax="690">
      <contour>
        <pt x="447" y="683" on="1"/>
        <pt x="460" y="688" on="0"/>
        <pt x="520" y="688" on="0"/>
        <pt x="540" y="679" on="1"/>
        <pt x="543" y="672" on="1"/>
        <pt x="351" y="361" on="1"/>
        <pt x="565" y="15" on="1"/>
        <pt x="534" y="-7" on="0"/>
        <pt x="460" y="-7" on="0"/>
        <pt x="435" y="33" on="1"/>
        <pt x="285" y="276" on="1"/>
        <pt x="118" y="0" on="1"/>
        <pt x="103" y="-5" on="0"/>
        <pt x="44" y="-5" on="0"/>
        <pt x="22" y="4" on="1"/>
        <pt x="19" y="11" on="1"/>
        <pt x="235" y="358" on="1"/>
        <pt x="44" y="668" on="1"/>
        <pt x="75" y="690" on="0"/>
        <pt x="148" y="690" on="0"/>
        <pt x="173" y="650" on="1"/>
        <pt x="301" y="442" on="1"/>
      </contour>
    </TTGlyph>
    <TTGlyph name="Y" xMin="10" yMin="-4" xMax="490" yMax="690">
      <contour>
        <pt x="301" y="447" on="1"/>
        <pt x="394" y="683" on="1"/>
        <pt x="411" y="688" on="0"/>
        <pt x="460" y="688" on="0"/>
        <pt x="485" y="681" on="1"/>
        <pt x="490" y="674" on="1"/>
        <pt x="300" y="220" on="1"/>
        <pt x="300" y="0" on="1"/>
        <pt x="280" y="-4" on="0"/>
        <pt x="219" y="-4" on="0"/>
        <pt x="200" y="0" on="1"/>
        <pt x="200" y="222" on="1"/>
        <pt x="10" y="672" on="1"/>
        <pt x="42" y="690" on="0"/>
        <pt x="93" y="690" on="0"/>
        <pt x="118" y="669" on="0"/>
        <pt x="127" y="646" on="1"/>
        <pt x="210" y="445" on="1"/>
        <pt x="226" y="405" on="0"/>
        <pt x="252" y="322" on="1"/>
        <pt x="257" y="322" on="1"/>
        <pt x="273" y="377" on="0"/>
      </contour>
    </TTGlyph>
    <TTGlyph name="Yacute" xMin="8" yMin="-4" xMax="488" yMax="898">
      <contour>
        <pt x="299" y="447" on="1"/>
        <pt x="392" y="683" on="1"/>
        <pt x="410" y="688" on="0"/>
        <pt x="458" y="688" on="0"/>
        <pt x="483" y="681" on="1"/>
        <pt x="488" y="674" on="1"/>
        <pt x="298" y="220" on="1"/>
        <pt x="298" y="0" on="1"/>
        <pt x="278" y="-4" on="0"/>
        <pt x="217" y="-4" on="0"/>
        <pt x="198" y="0" on="1"/>
        <pt x="198" y="222" on="1"/>
        <pt x="8" y="672" on="1"/>
        <pt x="40" y="690" on="0"/>
        <pt x="91" y="690" on="0"/>
        <pt x="116" y="669" on="0"/>
        <pt x="125" y="646" on="1"/>
        <pt x="208" y="445" on="1"/>
        <pt x="224" y="405" on="0"/>
        <pt x="250" y="322" on="1"/>
        <pt x="255" y="322" on="1"/>
        <pt x="271" y="377" on="0"/>
      </contour>
      <contour>
        <pt x="153" y="779" on="1"/>
        <pt x="353" y="898" on="1"/>
        <pt x="368" y="887" on="0"/>
        <pt x="394" y="841" on="0"/>
        <pt x="397" y="817" on="1"/>
        <pt x="182" y="728" on="1"/>
        <pt x="157" y="745" on="0"/>
      </contour>
    </TTGlyph>
    <TTGlyph name="Ydieresis" xMin="8" yMin="-4" xMax="488" yMax="839">
      <contour>
        <pt x="299" y="447" on="1"/>
        <pt x="392" y="683" on="1"/>
        <pt x="410" y="688" on="0"/>
        <pt x="458" y="688" on="0"/>
        <pt x="483" y="681" on="1"/>
        <pt x="488" y="674" on="1"/>
        <pt x="298" y="220" on="1"/>
        <pt x="298" y="0" on="1"/>
        <pt x="278" y="-4" on="0"/>
        <pt x="217" y="-4" on="0"/>
        <pt x="198" y="0" on="1"/>
        <pt x="198" y="222" on="1"/>
        <pt x="8" y="672" on="1"/>
        <pt x="40" y="690" on="0"/>
        <pt x="91" y="690" on="0"/>
        <pt x="116" y="669" on="0"/>
        <pt x="125" y="646" on="1"/>
        <pt x="208" y="445" on="1"/>
        <pt x="224" y="405" on="0"/>
        <pt x="250" y="322" on="1"/>
        <pt x="255" y="322" on="1"/>
        <pt x="271" y="377" on="0"/>
      </contour>
      <contour>
        <pt x="328" y="839" on="0"/>
        <pt x="382" y="839" on="0"/>
        <pt x="402" y="828" on="1"/>
        <pt x="410" y="811" on="0"/>
        <pt x="410" y="764" on="0"/>
        <pt x="402" y="747" on="1"/>
        <pt x="385" y="736" on="0"/>
        <pt x="325" y="736" on="0"/>
        <pt x="308" y="747" on="1"/>
        <pt x="299" y="764" on="0"/>
        <pt x="299" y="811" on="0"/>
        <pt x="308" y="828" on="1"/>
      </contour>
      <contour>
        <pt x="120" y="839" on="0"/>
        <pt x="174" y="839" on="0"/>
        <pt x="194" y="828" on="1"/>
        <pt x="203" y="811" on="0"/>
        <pt x="203" y="764" on="0"/>
        <pt x="194" y="747" on="1"/>
        <pt x="177" y="736" on="0"/>
        <pt x="117" y="736" on="0"/>
        <pt x="100" y="747" on="1"/>
        <pt x="92" y="764" on="0"/>
        <pt x="92" y="811" on="0"/>
        <pt x="100" y="828" on="1"/>
      </contour>
    </TTGlyph>
    <TTGlyph name="Z" xMin="49" yMin="0" xMax="511" yMax="683">
      <contour>
        <pt x="62" y="108" on="1"/>
        <pt x="319" y="496" on="1"/>
        <pt x="348" y="539" on="0"/>
        <pt x="397" y="603" on="1"/>
        <pt x="394" y="606" on="1"/>
        <pt x="353" y="598" on="0"/>
        <pt x="238" y="598" on="1"/>
        <pt x="75" y="598" on="1"/>
        <pt x="71" y="614" on="0"/>
        <pt x="71" y="659" on="0"/>
        <pt x="78" y="683" on="1"/>
        <pt x="487" y="683" on="1"/>
        <pt x="502" y="632" on="0"/>
        <pt x="502" y="598" on="0"/>
        <pt x="488" y="577" on="1"/>
        <pt x="233" y="193" on="1"/>
        <pt x="197" y="138" on="0"/>
        <pt x="155" y="84" on="1"/>
        <pt x="158" y="81" on="1"/>
        <pt x="221" y="87" on="0"/>
        <pt x="275" y="87" on="1"/>
        <pt x="385" y="87" on="1"/>
        <pt x="464" y="87" on="0"/>
        <pt x="503" y="105" on="1"/>
        <pt x="511" y="83" on="0"/>
        <pt x="511" y="56" on="1"/>
        <pt x="511" y="0" on="0"/>
        <pt x="441" y="0" on="1"/>
        <pt x="62" y="0" on="1"/>
        <pt x="49" y="48" on="0"/>
        <pt x="49" y="86" on="0"/>
      </contour>
    </TTGlyph>
    <TTGlyph name="Zacute" xMin="49" yMin="0" xMax="511" yMax="898">
      <contour>
        <pt x="62" y="108" on="1"/>
        <pt x="319" y="496" on="1"/>
        <pt x="348" y="539" on="0"/>
        <pt x="397" y="603" on="1"/>
        <pt x="394" y="606" on="1"/>
        <pt x="353" y="598" on="0"/>
        <pt x="238" y="598" on="1"/>
        <pt x="75" y="598" on="1"/>
        <pt x="71" y="614" on="0"/>
        <pt x="71" y="659" on="0"/>
        <pt x="78" y="683" on="1"/>
        <pt x="487" y="683" on="1"/>
        <pt x="502" y="632" on="0"/>
        <pt x="502" y="598" on="0"/>
        <pt x="488" y="577" on="1"/>
        <pt x="233" y="193" on="1"/>
        <pt x="197" y="138" on="0"/>
        <pt x="155" y="84" on="1"/>
        <pt x="158" y="81" on="1"/>
        <pt x="221" y="87" on="0"/>
        <pt x="275" y="87" on="1"/>
        <pt x="385" y="87" on="1"/>
        <pt x="464" y="87" on="0"/>
        <pt x="503" y="105" on="1"/>
        <pt x="511" y="83" on="0"/>
        <pt x="511" y="56" on="1"/>
        <pt x="511" y="0" on="0"/>
        <pt x="441" y="0" on="1"/>
        <pt x="62" y="0" on="1"/>
        <pt x="49" y="48" on="0"/>
        <pt x="49" y="86" on="0"/>
      </contour>
      <contour>
        <pt x="185" y="779" on="1"/>
        <pt x="385" y="898" on="1"/>
        <pt x="400" y="887" on="0"/>
        <pt x="426" y="841" on="0"/>
        <pt x="429" y="817" on="1"/>
        <pt x="214" y="728" on="1"/>
        <pt x="189" y="745" on="0"/>
      </contour>
    </TTGlyph>
    <TTGlyph name="Zcaron" xMin="49" yMin="0" xMax="511" yMax="896">
      <contour>
        <pt x="62" y="108" on="1"/>
        <pt x="319" y="496" on="1"/>
        <pt x="348" y="539" on="0"/>
        <pt x="397" y="603" on="1"/>
        <pt x="394" y="606" on="1"/>
        <pt x="353" y="598" on="0"/>
        <pt x="238" y="598" on="1"/>
        <pt x="75" y="598" on="1"/>
        <pt x="71" y="614" on="0"/>
        <pt x="71" y="659" on="0"/>
        <pt x="78" y="683" on="1"/>
        <pt x="487" y="683" on="1"/>
        <pt x="502" y="632" on="0"/>
        <pt x="502" y="598" on="0"/>
        <pt x="488" y="577" on="1"/>
        <pt x="233" y="193" on="1"/>
        <pt x="197" y="138" on="0"/>
        <pt x="155" y="84" on="1"/>
        <pt x="158" y="81" on="1"/>
        <pt x="221" y="87" on="0"/>
        <pt x="275" y="87" on="1"/>
        <pt x="385" y="87" on="1"/>
        <pt x="464" y="87" on="0"/>
        <pt x="503" y="105" on="1"/>
        <pt x="511" y="83" on="0"/>
        <pt x="511" y="56" on="1"/>
        <pt x="511" y="0" on="0"/>
        <pt x="441" y="0" on="1"/>
        <pt x="62" y="0" on="1"/>
        <pt x="49" y="48" on="0"/>
        <pt x="49" y="86" on="0"/>
      </contour>
      <contour>
        <pt x="170" y="889" on="1"/>
        <pt x="281" y="814" on="1"/>
        <pt x="396" y="896" on="1"/>
        <pt x="409" y="891" on="0"/>
        <pt x="435" y="866" on="0"/>
        <pt x="439" y="853" on="1"/>
        <pt x="325" y="741" on="1"/>
        <pt x="301" y="737" on="0"/>
        <pt x="258" y="737" on="0"/>
        <pt x="238" y="741" on="1"/>
        <pt x="126" y="846" on="1"/>
        <pt x="136" y="878" on="0"/>
      </contour>
    </TTGlyph>
    <TTGlyph name="Zdotaccent" xMin="49" yMin="0" xMax="511" yMax="853">
      <contour>
        <pt x="62" y="108" on="1"/>
        <pt x="319" y="496" on="1"/>
        <pt x="348" y="539" on="0"/>
        <pt x="397" y="603" on="1"/>
        <pt x="394" y="606" on="1"/>
        <pt x="353" y="598" on="0"/>
        <pt x="238" y="598" on="1"/>
        <pt x="75" y="598" on="1"/>
        <pt x="71" y="614" on="0"/>
        <pt x="71" y="659" on="0"/>
        <pt x="78" y="683" on="1"/>
        <pt x="487" y="683" on="1"/>
        <pt x="502" y="632" on="0"/>
        <pt x="502" y="598" on="0"/>
        <pt x="488" y="577" on="1"/>
        <pt x="233" y="193" on="1"/>
        <pt x="197" y="138" on="0"/>
        <pt x="155" y="84" on="1"/>
        <pt x="158" y="81" on="1"/>
        <pt x="221" y="87" on="0"/>
        <pt x="275" y="87" on="1"/>
        <pt x="385" y="87" on="1"/>
        <pt x="464" y="87" on="0"/>
        <pt x="503" y="105" on="1"/>
        <pt x="511" y="83" on="0"/>
        <pt x="511" y="56" on="1"/>
        <pt x="511" y="0" on="0"/>
        <pt x="441" y="0" on="1"/>
        <pt x="62" y="0" on="1"/>
        <pt x="49" y="48" on="0"/>
        <pt x="49" y="86" on="0"/>
      </contour>
      <contour>
        <pt x="222" y="773" on="0"/>
        <pt x="222" y="823" on="0"/>
        <pt x="230" y="841" on="1"/>
        <pt x="251" y="853" on="0"/>
        <pt x="319" y="853" on="0"/>
        <pt x="336" y="841" on="1"/>
        <pt x="344" y="823" on="0"/>
        <pt x="344" y="773" on="0"/>
        <pt x="336" y="755" on="1"/>
        <pt x="319" y="743" on="0"/>
        <pt x="249" y="743" on="0"/>
        <pt x="230" y="755" on="1"/>
      </contour>
    </TTGlyph>
    <TTGlyph name="a" xMin="45" yMin="-13" xMax="458" yMax="503">
      <contour>
        <pt x="458" y="43" on="1"/>
        <pt x="448" y="8" on="0"/>
        <pt x="420" y="-7" on="1"/>
        <pt x="365" y="4" on="0"/>
        <pt x="344" y="57" on="1"/>
        <pt x="272" y="-13" on="0"/>
        <pt x="122" y="-13" on="0"/>
        <pt x="45" y="75" on="0"/>
        <pt x="45" y="134" on="1"/>
        <pt x="45" y="216" on="0"/>
        <pt x="150" y="299" on="0"/>
        <pt x="236" y="299" on="1"/>
        <pt x="287" y="299" on="0"/>
        <pt x="335" y="292" on="1"/>
        <pt x="335" y="333" on="1"/>
        <pt x="335" y="424" on="0"/>
        <pt x="251" y="424" on="1"/>
        <pt x="186" y="424" on="0"/>
        <pt x="92" y="385" on="1"/>
        <pt x="65" y="412" on="0"/>
        <pt x="63" y="457" on="1"/>
        <pt x="168" y="503" on="0"/>
        <pt x="268" y="503" on="1"/>
        <pt x="345" y="503" on="0"/>
        <pt x="430" y="419" on="0"/>
        <pt x="430" y="336" on="1"/>
        <pt x="430" y="131" on="1"/>
        <pt x="430" y="67" on="0"/>
      </contour>
      <contour>
        <pt x="212" y="65" on="1"/>
        <pt x="279" y="65" on="0"/>
        <pt x="335" y="130" on="1"/>
        <pt x="335" y="226" on="1"/>
        <pt x="296" y="231" on="0"/>
        <pt x="194" y="231" on="0"/>
        <pt x="142" y="183" on="0"/>
        <pt x="142" y="107" on="0"/>
        <pt x="179" y="65" on="0"/>
      </contour>
    </TTGlyph>
    <TTGlyph name="a.smcp" xMin="14" yMin="-7" xMax="526" yMax="549">
      <contour>
        <pt x="381" y="125" on="1"/>
        <pt x="329" y="124" on="1"/>
        <pt x="206" y="124" on="1"/>
        <pt x="150" y="125" on="1"/>
        <pt x="106" y="-1" on="1"/>
        <pt x="89" y="-5" on="0"/>
        <pt x="35" y="-5" on="0"/>
        <pt x="18" y="2" on="1"/>
        <pt x="14" y="7" on="1"/>
        <pt x="214" y="545" on="1"/>
        <pt x="235" y="549" on="0"/>
        <pt x="307" y="549" on="0"/>
        <pt x="327" y="545" on="1"/>
        <pt x="526" y="4" on="1"/>
        <pt x="502" y="-7" on="0"/>
        <pt x="447" y="-7" on="0"/>
        <pt x="421" y="12" on="0"/>
        <pt x="412" y="39" on="1"/>
      </contour>
      <contour>
        <pt x="178" y="204" on="1"/>
        <pt x="225" y="205" on="1"/>
        <pt x="312" y="205" on="1"/>
        <pt x="314" y="205" on="0"/>
        <pt x="346" y="204" on="0"/>
        <pt x="353" y="204" on="1"/>
        <pt x="316" y="307" on="1"/>
        <pt x="287" y="395" on="0"/>
        <pt x="268" y="462" on="1"/>
        <pt x="264" y="462" on="1"/>
        <pt x="247" y="401" on="0"/>
        <pt x="223" y="329" on="1"/>
      </contour>
    </TTGlyph>
    <TTGlyph name="aacute" xMin="45" yMin="-13" xMax="458" yMax="735">
      <contour>
        <pt x="458" y="43" on="1"/>
        <pt x="448" y="8" on="0"/>
        <pt x="420" y="-7" on="1"/>
        <pt x="365" y="4" on="0"/>
        <pt x="344" y="57" on="1"/>
        <pt x="272" y="-13" on="0"/>
        <pt x="122" y="-13" on="0"/>
        <pt x="45" y="75" on="0"/>
        <pt x="45" y="134" on="1"/>
        <pt x="45" y="216" on="0"/>
        <pt x="150" y="299" on="0"/>
        <pt x="236" y="299" on="1"/>
        <pt x="287" y="299" on="0"/>
        <pt x="335" y="292" on="1"/>
        <pt x="335" y="333" on="1"/>
        <pt x="335" y="424" on="0"/>
        <pt x="251" y="424" on="1"/>
        <pt x="186" y="424" on="0"/>
        <pt x="92" y="385" on="1"/>
        <pt x="65" y="412" on="0"/>
        <pt x="63" y="457" on="1"/>
        <pt x="168" y="503" on="0"/>
        <pt x="268" y="503" on="1"/>
        <pt x="345" y="503" on="0"/>
        <pt x="430" y="419" on="0"/>
        <pt x="430" y="336" on="1"/>
        <pt x="430" y="131" on="1"/>
        <pt x="430" y="67" on="0"/>
      </contour>
      <contour>
        <pt x="212" y="65" on="1"/>
        <pt x="279" y="65" on="0"/>
        <pt x="335" y="130" on="1"/>
        <pt x="335" y="226" on="1"/>
        <pt x="296" y="231" on="0"/>
        <pt x="194" y="231" on="0"/>
        <pt x="142" y="183" on="0"/>
        <pt x="142" y="107" on="0"/>
        <pt x="179" y="65" on="0"/>
      </contour>
      <contour>
        <pt x="171" y="577" on="1"/>
        <pt x="313" y="735" on="1"/>
        <pt x="335" y="728" on="0"/>
        <pt x="375" y="691" on="0"/>
        <pt x="383" y="670" on="1"/>
        <pt x="214" y="537" on="1"/>
        <pt x="182" y="548" on="0"/>
      </contour>
    </TTGlyph>
    <TTGlyph name="aacute.smcp" xMin="14" yMin="-7" xMax="526" yMax="787">
      <contour>
        <pt x="381" y="125" on="1"/>
        <pt x="329" y="124" on="1"/>
        <pt x="206" y="124" on="1"/>
        <pt x="150" y="125" on="1"/>
        <pt x="106" y="-1" on="1"/>
        <pt x="89" y="-5" on="0"/>
        <pt x="35" y="-5" on="0"/>
        <pt x="18" y="2" on="1"/>
        <pt x="14" y="7" on="1"/>
        <pt x="214" y="545" on="1"/>
        <pt x="235" y="549" on="0"/>
        <pt x="307" y="549" on="0"/>
        <pt x="327" y="545" on="1"/>
        <pt x="526" y="4" on="1"/>
        <pt x="502" y="-7" on="0"/>
        <pt x="447" y="-7" on="0"/>
        <pt x="421" y="12" on="0"/>
        <pt x="412" y="39" on="1"/>
      </contour>
      <contour>
        <pt x="178" y="204" on="1"/>
        <pt x="225" y="205" on="1"/>
        <pt x="312" y="205" on="1"/>
        <pt x="314" y="205" on="0"/>
        <pt x="346" y="204" on="0"/>
        <pt x="353" y="204" on="1"/>
        <pt x="316" y="307" on="1"/>
        <pt x="287" y="395" on="0"/>
        <pt x="268" y="462" on="1"/>
        <pt x="264" y="462" on="1"/>
        <pt x="247" y="401" on="0"/>
        <pt x="223" y="329" on="1"/>
      </contour>
      <contour>
        <pt x="199" y="629" on="1"/>
        <pt x="341" y="787" on="1"/>
        <pt x="363" y="780" on="0"/>
        <pt x="403" y="743" on="0"/>
        <pt x="411" y="722" on="1"/>
        <pt x="242" y="589" on="1"/>
        <pt x="210" y="600" on="0"/>
      </contour>
    </TTGlyph>
    <TTGlyph name="acircumflex" xMin="45" yMin="-13" xMax="458" yMax="721">
      <component glyphName="a" x="0" y="0" flags="0x1004"/>
      <component glyphName="circumflex" x="45" y="0" flags="0x1004"/>
    </TTGlyph>
    <TTGlyph name="acircumflex.smcp" xMin="14" yMin="-7" xMax="526" yMax="773">
      <contour>
        <pt x="381" y="125" on="1"/>
        <pt x="329" y="124" on="1"/>
        <pt x="206" y="124" on="1"/>
        <pt x="150" y="125" on="1"/>
        <pt x="106" y="-1" on="1"/>
        <pt x="89" y="-5" on="0"/>
        <pt x="35" y="-5" on="0"/>
        <pt x="18" y="2" on="1"/>
        <pt x="14" y="7" on="1"/>
        <pt x="214" y="545" on="1"/>
        <pt x="235" y="549" on="0"/>
        <pt x="307" y="549" on="0"/>
        <pt x="327" y="545" on="1"/>
        <pt x="526" y="4" on="1"/>
        <pt x="502" y="-7" on="0"/>
        <pt x="447" y="-7" on="0"/>
        <pt x="421" y="12" on="0"/>
        <pt x="412" y="39" on="1"/>
      </contour>
      <contour>
        <pt x="178" y="204" on="1"/>
        <pt x="225" y="205" on="1"/>
        <pt x="312" y="205" on="1"/>
        <pt x="314" y="205" on="0"/>
        <pt x="346" y="204" on="0"/>
        <pt x="353" y="204" on="1"/>
        <pt x="316" y="307" on="1"/>
        <pt x="287" y="395" on="0"/>
        <pt x="268" y="462" on="1"/>
        <pt x="264" y="462" on="1"/>
        <pt x="247" y="401" on="0"/>
        <pt x="223" y="329" on="1"/>
      </contour>
      <contour>
        <pt x="367" y="598" on="1"/>
        <pt x="273" y="689" on="1"/>
        <pt x="173" y="592" on="1"/>
        <pt x="144" y="604" on="0"/>
        <pt x="128" y="633" on="1"/>
        <pt x="234" y="767" on="1"/>
        <pt x="250" y="772" on="0"/>
        <pt x="292" y="772" on="0"/>
        <pt x="317" y="767" on="1"/>
        <pt x="415" y="641" on="1"/>
        <pt x="400" y="608" on="0"/>
      </contour>
    </TTGlyph>
    <TTGlyph name="acute" xMin="126" yMin="537" xMax="338" yMax="735">
      <contour>
        <pt x="126" y="577" on="1"/>
        <pt x="268" y="735" on="1"/>
        <pt x="290" y="728" on="0"/>
        <pt x="330" y="691" on="0"/>
        <pt x="338" y="670" on="1"/>
        <pt x="169" y="537" on="1"/>
        <pt x="137" y="548" on="0"/>
      </contour>
    </TTGlyph>
    <TTGlyph name="acute.cap" xMin="101" yMin="728" xMax="345" yMax="898">
      <contour>
        <pt x="101" y="779" on="1"/>
        <pt x="301" y="898" on="1"/>
        <pt x="316" y="887" on="0"/>
        <pt x="342" y="841" on="0"/>
        <pt x="345" y="817" on="1"/>
        <pt x="130" y="728" on="1"/>
        <pt x="105" y="745" on="0"/>
      </contour>
    </TTGlyph>
    <TTGlyph name="adieresis" xMin="45" yMin="-13" xMax="458" yMax="660">
      <contour>
        <pt x="458" y="43" on="1"/>
        <pt x="448" y="8" on="0"/>
        <pt x="420" y="-7" on="1"/>
        <pt x="365" y="4" on="0"/>
        <pt x="344" y="57" on="1"/>
        <pt x="272" y="-13" on="0"/>
        <pt x="122" y="-13" on="0"/>
        <pt x="45" y="75" on="0"/>
        <pt x="45" y="134" on="1"/>
        <pt x="45" y="216" on="0"/>
        <pt x="150" y="299" on="0"/>
        <pt x="236" y="299" on="1"/>
        <pt x="287" y="299" on="0"/>
        <pt x="335" y="292" on="1"/>
        <pt x="335" y="333" on="1"/>
        <pt x="335" y="424" on="0"/>
        <pt x="251" y="424" on="1"/>
        <pt x="186" y="424" on="0"/>
        <pt x="92" y="385" on="1"/>
        <pt x="65" y="412" on="0"/>
        <pt x="63" y="457" on="1"/>
        <pt x="168" y="503" on="0"/>
        <pt x="268" y="503" on="1"/>
        <pt x="345" y="503" on="0"/>
        <pt x="430" y="419" on="0"/>
        <pt x="430" y="336" on="1"/>
        <pt x="430" y="131" on="1"/>
        <pt x="430" y="67" on="0"/>
      </contour>
      <contour>
        <pt x="212" y="65" on="1"/>
        <pt x="279" y="65" on="0"/>
        <pt x="335" y="130" on="1"/>
        <pt x="335" y="226" on="1"/>
        <pt x="296" y="231" on="0"/>
        <pt x="194" y="231" on="0"/>
        <pt x="142" y="183" on="0"/>
        <pt x="142" y="107" on="0"/>
        <pt x="179" y="65" on="0"/>
      </contour>
      <contour>
        <pt x="282" y="591" on="0"/>
        <pt x="282" y="631" on="0"/>
        <pt x="290" y="649" on="1"/>
        <pt x="307" y="660" on="0"/>
        <pt x="366" y="660" on="0"/>
        <pt x="383" y="649" on="1"/>
        <pt x="390" y="630" on="0"/>
        <pt x="390" y="590" on="0"/>
        <pt x="383" y="573" on="1"/>
        <pt x="364" y="561" on="0"/>
        <pt x="307" y="561" on="0"/>
        <pt x="290" y="573" on="1"/>
      </contour>
      <contour>
        <pt x="98" y="592" on="0"/>
        <pt x="98" y="630" on="0"/>
        <pt x="105" y="649" on="1"/>
        <pt x="122" y="660" on="0"/>
        <pt x="181" y="660" on="0"/>
        <pt x="198" y="649" on="1"/>
        <pt x="206" y="631" on="0"/>
        <pt x="206" y="589" on="0"/>
        <pt x="198" y="573" on="1"/>
        <pt x="181" y="561" on="0"/>
        <pt x="124" y="561" on="0"/>
        <pt x="105" y="573" on="1"/>
      </contour>
    </TTGlyph>
    <TTGlyph name="adieresis.smcp" xMin="14" yMin="-7" xMax="526" yMax="712">
      <contour>
        <pt x="381" y="125" on="1"/>
        <pt x="329" y="124" on="1"/>
        <pt x="206" y="124" on="1"/>
        <pt x="150" y="125" on="1"/>
        <pt x="106" y="-1" on="1"/>
        <pt x="89" y="-5" on="0"/>
        <pt x="35" y="-5" on="0"/>
        <pt x="18" y="2" on="1"/>
        <pt x="14" y="7" on="1"/>
        <pt x="214" y="545" on="1"/>
        <pt x="235" y="549" on="0"/>
        <pt x="307" y="549" on="0"/>
        <pt x="327" y="545" on="1"/>
        <pt x="526" y="4" on="1"/>
        <pt x="502" y="-7" on="0"/>
        <pt x="447" y="-7" on="0"/>
        <pt x="421" y="12" on="0"/>
        <pt x="412" y="39" on="1"/>
      </contour>
      <contour>
        <pt x="178" y="204" on="1"/>
        <pt x="225" y="205" on="1"/>
        <pt x="312" y="205" on="1"/>
        <pt x="314" y="205" on="0"/>
        <pt x="346" y="204" on="0"/>
        <pt x="353" y="204" on="1"/>
        <pt x="316" y="307" on="1"/>
        <pt x="287" y="395" on="0"/>
        <pt x="268" y="462" on="1"/>
        <pt x="264" y="462" on="1"/>
        <pt x="247" y="401" on="0"/>
        <pt x="223" y="329" on="1"/>
      </contour>
      <contour>
        <pt x="310" y="643" on="0"/>
        <pt x="310" y="683" on="0"/>
        <pt x="318" y="701" on="1"/>
        <pt x="335" y="712" on="0"/>
        <pt x="394" y="712" on="0"/>
        <pt x="411" y="701" on="1"/>
        <pt x="418" y="682" on="0"/>
        <pt x="418" y="642" on="0"/>
        <pt x="411" y="625" on="1"/>
        <pt x="392" y="613" on="0"/>
        <pt x="335" y="613" on="0"/>
        <pt x="318" y="625" on="1"/>
      </contour>
      <contour>
        <pt x="126" y="644" on="0"/>
        <pt x="126" y="682" on="0"/>
        <pt x="133" y="701" on="1"/>
        <pt x="150" y="712" on="0"/>
        <pt x="209" y="712" on="0"/>
        <pt x="226" y="701" on="1"/>
        <pt x="234" y="683" on="0"/>
        <pt x="234" y="641" on="0"/>
        <pt x="226" y="625" on="1"/>
        <pt x="209" y="613" on="0"/>
        <pt x="152" y="613" on="0"/>
        <pt x="133" y="625" on="1"/>
      </contour>
    </TTGlyph>
    <TTGlyph name="ae" xMin="45" yMin="-13" xMax="735" yMax="506">
      <contour>
        <pt x="728" y="216" on="1"/>
        <pt x="432" y="216" on="1"/>
        <pt x="435" y="145" on="0"/>
        <pt x="489" y="67" on="0"/>
        <pt x="615" y="67" on="0"/>
        <pt x="690" y="107" on="1"/>
        <pt x="715" y="82" on="0"/>
        <pt x="721" y="43" on="1"/>
        <pt x="641" y="-13" on="0"/>
        <pt x="422" y="-13" on="0"/>
        <pt x="372" y="73" on="1"/>
        <pt x="296" y="-13" on="0"/>
        <pt x="192" y="-13" on="1"/>
        <pt x="122" y="-13" on="0"/>
        <pt x="45" y="75" on="0"/>
        <pt x="45" y="135" on="1"/>
        <pt x="45" y="216" on="0"/>
        <pt x="149" y="299" on="0"/>
        <pt x="236" y="299" on="1"/>
        <pt x="282" y="299" on="0"/>
        <pt x="335" y="291" on="1"/>
        <pt x="335" y="333" on="1"/>
        <pt x="335" y="424" on="0"/>
        <pt x="251" y="424" on="1"/>
        <pt x="186" y="424" on="0"/>
        <pt x="92" y="385" on="1"/>
        <pt x="65" y="412" on="0"/>
        <pt x="63" y="457" on="1"/>
        <pt x="168" y="503" on="0"/>
        <pt x="357" y="503" on="0"/>
        <pt x="397" y="440" on="1"/>
        <pt x="453" y="506" on="0"/>
        <pt x="631" y="506" on="0"/>
        <pt x="735" y="385" on="0"/>
        <pt x="735" y="292" on="1"/>
        <pt x="735" y="254" on="0"/>
      </contour>
      <contour>
        <pt x="142" y="108" on="0"/>
        <pt x="179" y="65" on="0"/>
        <pt x="246" y="65" on="0"/>
        <pt x="319" y="103" on="0"/>
        <pt x="346" y="139" on="1"/>
        <pt x="337" y="177" on="0"/>
        <pt x="334" y="224" on="1"/>
        <pt x="281" y="231" on="0"/>
        <pt x="194" y="231" on="0"/>
        <pt x="142" y="184" on="0"/>
      </contour>
      <contour>
        <pt x="538" y="434" on="1"/>
        <pt x="440" y="434" on="0"/>
        <pt x="432" y="287" on="1"/>
        <pt x="640" y="287" on="1"/>
        <pt x="640" y="299" on="1"/>
        <pt x="640" y="359" on="0"/>
        <pt x="590" y="434" on="0"/>
      </contour>
    </TTGlyph>
    <TTGlyph name="ae.smcp" xMin="11" yMin="-5" xMax="736" yMax="545">
      <contour>
        <pt x="359" y="127" on="1"/>
        <pt x="311" y="126" on="1"/>
        <pt x="228" y="126" on="1"/>
        <pt x="174" y="127" on="1"/>
        <pt x="104" y="-1" on="1"/>
        <pt x="85" y="-5" on="0"/>
        <pt x="32" y="-5" on="0"/>
        <pt x="14" y="2" on="1"/>
        <pt x="11" y="8" on="1"/>
        <pt x="305" y="536" on="1"/>
        <pt x="324" y="545" on="0"/>
        <pt x="365" y="545" on="1"/>
        <pt x="720" y="545" on="1"/>
        <pt x="723" y="531" on="0"/>
        <pt x="723" y="484" on="0"/>
        <pt x="715" y="464" on="1"/>
        <pt x="584" y="464" on="0"/>
        <pt x="452" y="464" on="1"/>
        <pt x="453" y="413" on="1"/>
        <pt x="453" y="315" on="1"/>
        <pt x="508" y="316" on="1"/>
        <pt x="670" y="316" on="1"/>
        <pt x="675" y="303" on="0"/>
        <pt x="675" y="250" on="0"/>
        <pt x="670" y="237" on="1"/>
        <pt x="562" y="237" on="0"/>
        <pt x="453" y="237" on="1"/>
        <pt x="453" y="123" on="1"/>
        <pt x="452" y="79" on="1"/>
        <pt x="486" y="81" on="0"/>
        <pt x="511" y="81" on="1"/>
        <pt x="736" y="81" on="1"/>
        <pt x="736" y="58" on="0"/>
        <pt x="734" y="46" on="1"/>
        <pt x="725" y="-1" on="0"/>
        <pt x="673" y="-1" on="1"/>
        <pt x="415" y="-1" on="1"/>
        <pt x="389" y="-1" on="0"/>
        <pt x="359" y="31" on="0"/>
        <pt x="359" y="58" on="1"/>
      </contour>
      <contour>
        <pt x="310" y="204" on="1"/>
        <pt x="359" y="203" on="1"/>
        <pt x="359" y="468" on="1"/>
        <pt x="354" y="468" on="1"/>
        <pt x="316" y="390" on="0"/>
        <pt x="275" y="312" on="1"/>
        <pt x="215" y="203" on="1"/>
        <pt x="255" y="204" on="1"/>
      </contour>
    </TTGlyph>
    <TTGlyph name="agrave" xMin="45" yMin="-13" xMax="458" yMax="735">
      <component glyphName="a" x="0" y="0" flags="0x1004"/>
      <component glyphName="grave" x="48" y="0" flags="0x1004"/>
    </TTGlyph>
    <TTGlyph name="agrave.smcp" xMin="14" yMin="-7" xMax="526" yMax="787">
      <contour>
        <pt x="381" y="125" on="1"/>
        <pt x="329" y="124" on="1"/>
        <pt x="206" y="124" on="1"/>
        <pt x="150" y="125" on="1"/>
        <pt x="106" y="-1" on="1"/>
        <pt x="89" y="-5" on="0"/>
        <pt x="35" y="-5" on="0"/>
        <pt x="18" y="2" on="1"/>
        <pt x="14" y="7" on="1"/>
        <pt x="214" y="545" on="1"/>
        <pt x="235" y="549" on="0"/>
        <pt x="307" y="549" on="0"/>
        <pt x="327" y="545" on="1"/>
        <pt x="526" y="4" on="1"/>
        <pt x="502" y="-7" on="0"/>
        <pt x="447" y="-7" on="0"/>
        <pt x="421" y="12" on="0"/>
        <pt x="412" y="39" on="1"/>
      </contour>
      <contour>
        <pt x="178" y="204" on="1"/>
        <pt x="225" y="205" on="1"/>
        <pt x="312" y="205" on="1"/>
        <pt x="314" y="205" on="0"/>
        <pt x="346" y="204" on="0"/>
        <pt x="353" y="204" on="1"/>
        <pt x="316" y="307" on="1"/>
        <pt x="287" y="395" on="0"/>
        <pt x="268" y="462" on="1"/>
        <pt x="264" y="462" on="1"/>
        <pt x="247" y="401" on="0"/>
        <pt x="223" y="329" on="1"/>
      </contour>
      <contour>
        <pt x="211" y="787" on="1"/>
        <pt x="353" y="629" on="1"/>
        <pt x="342" y="600" on="0"/>
        <pt x="310" y="589" on="1"/>
        <pt x="141" y="722" on="1"/>
        <pt x="149" y="743" on="0"/>
        <pt x="189" y="780" on="0"/>
      </contour>
    </TTGlyph>
    <TTGlyph name="ampersand" xMin="51" yMin="-13" xMax="600" yMax="696">
      <contour>
        <pt x="495" y="320" on="1"/>
        <pt x="496" y="258" on="1"/>
        <pt x="496" y="150" on="1"/>
        <pt x="496" y="111" on="0"/>
        <pt x="502" y="0" on="1"/>
        <pt x="482" y="-5" on="0"/>
        <pt x="433" y="-5" on="0"/>
        <pt x="411" y="-1" on="1"/>
        <pt x="403" y="40" on="1"/>
        <pt x="330" y="-13" on="0"/>
        <pt x="151" y="-13" on="0"/>
        <pt x="51" y="94" on="0"/>
        <pt x="51" y="180" on="1"/>
        <pt x="51" y="246" on="0"/>
        <pt x="128" y="349" on="0"/>
        <pt x="183" y="366" on="1"/>
        <pt x="138" y="382" on="0"/>
        <pt x="80" y="466" on="0"/>
        <pt x="80" y="518" on="1"/>
        <pt x="80" y="594" on="0"/>
        <pt x="192" y="696" on="0"/>
        <pt x="388" y="696" on="0"/>
        <pt x="468" y="667" on="1"/>
        <pt x="468" y="664" on="0"/>
        <pt x="468" y="661" on="1"/>
        <pt x="468" y="617" on="0"/>
        <pt x="442" y="590" on="1"/>
        <pt x="357" y="615" on="0"/>
        <pt x="243" y="615" on="0"/>
        <pt x="184" y="558" on="0"/>
        <pt x="184" y="462" on="0"/>
        <pt x="246" y="404" on="0"/>
        <pt x="310" y="404" on="1"/>
        <pt x="493" y="404" on="1"/>
        <pt x="554" y="404" on="0"/>
        <pt x="587" y="419" on="1"/>
        <pt x="600" y="403" on="0"/>
        <pt x="600" y="372" on="1"/>
        <pt x="600" y="320" on="0"/>
        <pt x="527" y="320" on="1"/>
      </contour>
      <contour>
        <pt x="399" y="257" on="1"/>
        <pt x="399" y="297" on="0"/>
        <pt x="400" y="320" on="1"/>
        <pt x="300" y="320" on="1"/>
        <pt x="227" y="320" on="0"/>
        <pt x="155" y="240" on="0"/>
        <pt x="155" y="129" on="0"/>
        <pt x="214" y="67" on="0"/>
        <pt x="264" y="67" on="1"/>
        <pt x="343" y="67" on="0"/>
        <pt x="399" y="115" on="1"/>
      </contour>
    </TTGlyph>
    <TTGlyph name="ampersand.smcp" xMin="46" yMin="-13" xMax="540" yMax="558">
      <contour>
        <pt x="451" y="107" on="1"/>
        <pt x="457" y="-3" on="1"/>
        <pt x="439" y="-9" on="0"/>
        <pt x="388" y="-9" on="0"/>
        <pt x="366" y="-5" on="1"/>
        <pt x="360" y="30" on="1"/>
        <pt x="297" y="-13" on="0"/>
        <pt x="135" y="-13" on="0"/>
        <pt x="46" y="74" on="0"/>
        <pt x="46" y="196" on="0"/>
        <pt x="115" y="278" on="0"/>
        <pt x="164" y="291" on="1"/>
        <pt x="124" y="303" on="0"/>
        <pt x="73" y="370" on="0"/>
        <pt x="73" y="413" on="1"/>
        <pt x="73" y="477" on="0"/>
        <pt x="174" y="558" on="0"/>
        <pt x="352" y="558" on="0"/>
        <pt x="425" y="533" on="1"/>
        <pt x="425" y="529" on="0"/>
        <pt x="425" y="525" on="1"/>
        <pt x="425" y="487" on="0"/>
        <pt x="400" y="458" on="1"/>
        <pt x="327" y="480" on="0"/>
        <pt x="226" y="480" on="0"/>
        <pt x="176" y="439" on="0"/>
        <pt x="176" y="406" on="1"/>
        <pt x="176" y="329" on="0"/>
        <pt x="284" y="329" on="1"/>
        <pt x="447" y="329" on="1"/>
        <pt x="500" y="329" on="0"/>
        <pt x="527" y="343" on="1"/>
        <pt x="540" y="325" on="0"/>
        <pt x="540" y="298" on="1"/>
        <pt x="540" y="248" on="0"/>
        <pt x="472" y="248" on="1"/>
        <pt x="450" y="248" on="1"/>
        <pt x="451" y="229" on="0"/>
        <pt x="451" y="193" on="1"/>
      </contour>
      <contour>
        <pt x="355" y="195" on="1"/>
        <pt x="355" y="230" on="0"/>
        <pt x="356" y="248" on="1"/>
        <pt x="274" y="248" on="1"/>
        <pt x="211" y="248" on="0"/>
        <pt x="149" y="192" on="0"/>
        <pt x="149" y="108" on="0"/>
        <pt x="198" y="63" on="0"/>
        <pt x="241" y="63" on="1"/>
        <pt x="308" y="63" on="0"/>
        <pt x="355" y="99" on="1"/>
      </contour>
    </TTGlyph>
    <TTGlyph name="aogonek" xMin="45" yMin="-217" xMax="487" yMax="503">
      <contour>
        <pt x="465" y="-134" on="1"/>
        <pt x="487" y="-154" on="0"/>
        <pt x="487" y="-183" on="1"/>
        <pt x="446" y="-217" on="0"/>
        <pt x="336" y="-217" on="0"/>
        <pt x="277" y="-167" on="0"/>
        <pt x="277" y="-124" on="1"/>
        <pt x="277" y="-46" on="0"/>
        <pt x="371" y="20" on="1"/>
        <pt x="354" y="35" on="0"/>
        <pt x="345" y="58" on="1"/>
        <pt x="274" y="-13" on="0"/>
        <pt x="122" y="-13" on="0"/>
        <pt x="45" y="75" on="0"/>
        <pt x="45" y="134" on="1"/>
        <pt x="45" y="216" on="0"/>
        <pt x="150" y="299" on="0"/>
        <pt x="236" y="299" on="1"/>
        <pt x="287" y="299" on="0"/>
        <pt x="335" y="292" on="1"/>
        <pt x="335" y="333" on="1"/>
        <pt x="335" y="424" on="0"/>
        <pt x="251" y="424" on="1"/>
        <pt x="186" y="424" on="0"/>
        <pt x="92" y="385" on="1"/>
        <pt x="65" y="412" on="0"/>
        <pt x="63" y="457" on="1"/>
        <pt x="168" y="503" on="0"/>
        <pt x="268" y="503" on="1"/>
        <pt x="345" y="503" on="0"/>
        <pt x="430" y="419" on="0"/>
        <pt x="430" y="336" on="1"/>
        <pt x="430" y="131" on="1"/>
        <pt x="430" y="73" on="0"/>
        <pt x="462" y="45" on="1"/>
        <pt x="452" y="19" on="0"/>
        <pt x="419" y="-10" on="1"/>
        <pt x="356" y="-62" on="0"/>
        <pt x="356" y="-105" on="1"/>
        <pt x="356" y="-127" on="0"/>
        <pt x="383" y="-151" on="0"/>
        <pt x="435" y="-151" on="0"/>
      </contour>
      <contour>
        <pt x="212" y="65" on="1"/>
        <pt x="279" y="65" on="0"/>
        <pt x="335" y="130" on="1"/>
        <pt x="335" y="226" on="1"/>
        <pt x="296" y="231" on="0"/>
        <pt x="194" y="231" on="0"/>
        <pt x="142" y="183" on="0"/>
        <pt x="142" y="107" on="0"/>
        <pt x="179" y="65" on="0"/>
      </contour>
    </TTGlyph>
    <TTGlyph name="aogonek.smcp" xMin="14" yMin="-217" xMax="569" yMax="549">
      <contour>
        <pt x="206" y="124" on="1"/>
        <pt x="150" y="125" on="1"/>
        <pt x="106" y="-1" on="1"/>
        <pt x="89" y="-5" on="0"/>
        <pt x="35" y="-5" on="0"/>
        <pt x="18" y="2" on="1"/>
        <pt x="14" y="7" on="1"/>
        <pt x="214" y="545" on="1"/>
        <pt x="235" y="549" on="0"/>
        <pt x="307" y="549" on="0"/>
        <pt x="327" y="545" on="1"/>
        <pt x="526" y="4" on="1"/>
        <pt x="437" y="-48" on="0"/>
        <pt x="437" y="-105" on="1"/>
        <pt x="437" y="-127" on="0"/>
        <pt x="465" y="-151" on="0"/>
        <pt x="518" y="-151" on="0"/>
        <pt x="546" y="-134" on="1"/>
        <pt x="568" y="-154" on="0"/>
        <pt x="569" y="-183" on="1"/>
        <pt x="528" y="-217" on="0"/>
        <pt x="417" y="-217" on="0"/>
        <pt x="358" y="-167" on="0"/>
        <pt x="358" y="-124" on="1"/>
        <pt x="358" y="-57" on="0"/>
        <pt x="433" y="3" on="1"/>
        <pt x="420" y="14" on="0"/>
        <pt x="412" y="39" on="1"/>
        <pt x="381" y="125" on="1"/>
        <pt x="329" y="124" on="1"/>
      </contour>
      <contour>
        <pt x="178" y="204" on="1"/>
        <pt x="225" y="205" on="1"/>
        <pt x="312" y="205" on="1"/>
        <pt x="314" y="205" on="0"/>
        <pt x="346" y="204" on="0"/>
        <pt x="353" y="204" on="1"/>
        <pt x="316" y="307" on="1"/>
        <pt x="287" y="395" on="0"/>
        <pt x="268" y="462" on="1"/>
        <pt x="264" y="462" on="1"/>
        <pt x="247" y="401" on="0"/>
        <pt x="223" y="329" on="1"/>
      </contour>
    </TTGlyph>
    <TTGlyph name="aring" xMin="45" yMin="-13" xMax="458" yMax="761">
      <contour>
        <pt x="458" y="43" on="1"/>
        <pt x="448" y="8" on="0"/>
        <pt x="420" y="-7" on="1"/>
        <pt x="365" y="4" on="0"/>
        <pt x="344" y="57" on="1"/>
        <pt x="272" y="-13" on="0"/>
        <pt x="122" y="-13" on="0"/>
        <pt x="45" y="75" on="0"/>
        <pt x="45" y="134" on="1"/>
        <pt x="45" y="216" on="0"/>
        <pt x="150" y="299" on="0"/>
        <pt x="236" y="299" on="1"/>
        <pt x="287" y="299" on="0"/>
        <pt x="335" y="292" on="1"/>
        <pt x="335" y="333" on="1"/>
        <pt x="335" y="424" on="0"/>
        <pt x="251" y="424" on="1"/>
        <pt x="186" y="424" on="0"/>
        <pt x="92" y="385" on="1"/>
        <pt x="65" y="412" on="0"/>
        <pt x="63" y="457" on="1"/>
        <pt x="168" y="503" on="0"/>
        <pt x="268" y="503" on="1"/>
        <pt x="345" y="503" on="0"/>
        <pt x="430" y="419" on="0"/>
        <pt x="430" y="336" on="1"/>
        <pt x="430" y="131" on="1"/>
        <pt x="430" y="67" on="0"/>
      </contour>
      <contour>
        <pt x="212" y="65" on="1"/>
        <pt x="279" y="65" on="0"/>
        <pt x="335" y="130" on="1"/>
        <pt x="335" y="226" on="1"/>
        <pt x="296" y="231" on="0"/>
        <pt x="194" y="231" on="0"/>
        <pt x="142" y="183" on="0"/>
        <pt x="142" y="107" on="0"/>
        <pt x="179" y="65" on="0"/>
      </contour>
      <contour>
        <pt x="126" y="603" on="0"/>
        <pt x="126" y="697" on="0"/>
        <pt x="192" y="761" on="0"/>
        <pt x="296" y="761" on="0"/>
        <pt x="362" y="697" on="0"/>
        <pt x="362" y="603" on="0"/>
        <pt x="296" y="538" on="0"/>
        <pt x="192" y="538" on="0"/>
      </contour>
      <contour>
        <pt x="222" y="705" on="0"/>
        <pt x="194" y="673" on="0"/>
        <pt x="194" y="626" on="0"/>
        <pt x="222" y="595" on="0"/>
        <pt x="266" y="595" on="0"/>
        <pt x="294" y="626" on="0"/>
        <pt x="294" y="673" on="0"/>
        <pt x="266" y="705" on="0"/>
      </contour>
    </TTGlyph>
    <TTGlyph name="aring.smcp" xMin="14" yMin="-7" xMax="526" yMax="813">
      <contour>
        <pt x="381" y="125" on="1"/>
        <pt x="329" y="124" on="1"/>
        <pt x="206" y="124" on="1"/>
        <pt x="150" y="125" on="1"/>
        <pt x="106" y="-1" on="1"/>
        <pt x="89" y="-5" on="0"/>
        <pt x="35" y="-5" on="0"/>
        <pt x="18" y="2" on="1"/>
        <pt x="14" y="7" on="1"/>
        <pt x="214" y="545" on="1"/>
        <pt x="235" y="549" on="0"/>
        <pt x="307" y="549" on="0"/>
        <pt x="327" y="545" on="1"/>
        <pt x="526" y="4" on="1"/>
        <pt x="502" y="-7" on="0"/>
        <pt x="447" y="-7" on="0"/>
        <pt x="421" y="12" on="0"/>
        <pt x="412" y="39" on="1"/>
      </contour>
      <contour>
        <pt x="178" y="204" on="1"/>
        <pt x="225" y="205" on="1"/>
        <pt x="312" y="205" on="1"/>
        <pt x="314" y="205" on="0"/>
        <pt x="346" y="204" on="0"/>
        <pt x="353" y="204" on="1"/>
        <pt x="316" y="307" on="1"/>
        <pt x="287" y="395" on="0"/>
        <pt x="268" y="462" on="1"/>
        <pt x="264" y="462" on="1"/>
        <pt x="247" y="401" on="0"/>
        <pt x="223" y="329" on="1"/>
      </contour>
      <contour>
        <pt x="154" y="655" on="0"/>
        <pt x="154" y="749" on="0"/>
        <pt x="220" y="813" on="0"/>
        <pt x="324" y="813" on="0"/>
        <pt x="390" y="749" on="0"/>
        <pt x="390" y="655" on="0"/>
        <pt x="324" y="590" on="0"/>
        <pt x="220" y="590" on="0"/>
      </contour>
      <contour>
        <pt x="250" y="757" on="0"/>
        <pt x="222" y="725" on="0"/>
        <pt x="222" y="678" on="0"/>
        <pt x="250" y="647" on="0"/>
        <pt x="294" y="647" on="0"/>
        <pt x="322" y="678" on="0"/>
        <pt x="322" y="725" on="0"/>
        <pt x="294" y="757" on="0"/>
      </contour>
    </TTGlyph>
    <TTGlyph name="asciicircum" xMin="46" yMin="301" xMax="484" yMax="652">
      <contour>
        <pt x="317" y="648" on="1"/>
        <pt x="484" y="306" on="1"/>
        <pt x="468" y="301" on="0"/>
        <pt x="407" y="301" on="0"/>
        <pt x="388" y="306" on="1"/>
        <pt x="302" y="489" on="1"/>
        <pt x="296" y="501" on="0"/>
        <pt x="268" y="570" on="1"/>
        <pt x="262" y="570" on="1"/>
        <pt x="234" y="501" on="0"/>
        <pt x="228" y="489" on="1"/>
        <pt x="142" y="306" on="1"/>
        <pt x="123" y="301" on="0"/>
        <pt x="62" y="301" on="0"/>
        <pt x="46" y="306" on="1"/>
        <pt x="213" y="648" on="1"/>
        <pt x="231" y="652" on="0"/>
        <pt x="298" y="652" on="0"/>
      </contour>
    </TTGlyph>
    <TTGlyph name="asciitilde" xMin="41" yMin="213" xMax="540" yMax="372">
      <contour>
        <pt x="272" y="352" on="1"/>
        <pt x="351" y="317" on="1"/>
        <pt x="378" y="305" on="0"/>
        <pt x="437" y="305" on="0"/>
        <pt x="464" y="338" on="1"/>
        <pt x="482" y="359" on="1"/>
        <pt x="499" y="357" on="0"/>
        <pt x="534" y="337" on="0"/>
        <pt x="540" y="321" on="1"/>
        <pt x="527" y="299" on="1"/>
        <pt x="480" y="213" on="0"/>
        <pt x="392" y="213" on="1"/>
        <pt x="353" y="213" on="0"/>
        <pt x="308" y="234" on="1"/>
        <pt x="229" y="269" on="1"/>
        <pt x="202" y="281" on="0"/>
        <pt x="143" y="281" on="0"/>
        <pt x="116" y="248" on="1"/>
        <pt x="98" y="227" on="1"/>
        <pt x="82" y="228" on="0"/>
        <pt x="48" y="249" on="0"/>
        <pt x="41" y="264" on="1"/>
        <pt x="53" y="287" on="1"/>
        <pt x="99" y="372" on="0"/>
        <pt x="188" y="372" on="1"/>
        <pt x="230" y="372" on="0"/>
      </contour>
    </TTGlyph>
    <TTGlyph name="asterisk" xMin="45" yMin="340" xMax="457" yMax="738">
      <contour>
        <pt x="46" y="551" on="1"/>
        <pt x="46" y="554" on="0"/>
        <pt x="46" y="572" on="0"/>
        <pt x="61" y="618" on="0"/>
        <pt x="73" y="632" on="1"/>
        <pt x="124" y="615" on="1"/>
        <pt x="159" y="603" on="0"/>
        <pt x="226" y="562" on="1"/>
        <pt x="209" y="636" on="0"/>
        <pt x="209" y="676" on="1"/>
        <pt x="208" y="731" on="1"/>
        <pt x="224" y="738" on="0"/>
        <pt x="278" y="738" on="0"/>
        <pt x="294" y="731" on="1"/>
        <pt x="294" y="676" on="1"/>
        <pt x="293" y="644" on="0"/>
        <pt x="275" y="562" on="1"/>
        <pt x="331" y="598" on="0"/>
        <pt x="378" y="615" on="1"/>
        <pt x="430" y="631" on="1"/>
        <pt x="441" y="619" on="0"/>
        <pt x="458" y="568" on="0"/>
        <pt x="457" y="550" on="1"/>
        <pt x="405" y="534" on="1"/>
        <pt x="371" y="523" on="0"/>
        <pt x="290" y="516" on="1"/>
        <pt x="346" y="470" on="0"/>
        <pt x="372" y="434" on="1"/>
        <pt x="404" y="390" on="1"/>
        <pt x="396" y="375" on="0"/>
        <pt x="353" y="344" on="0"/>
        <pt x="335" y="340" on="1"/>
        <pt x="304" y="384" on="1"/>
        <pt x="283" y="411" on="0"/>
        <pt x="251" y="487" on="1"/>
        <pt x="222" y="416" on="0"/>
        <pt x="198" y="384" on="1"/>
        <pt x="167" y="340" on="1"/>
        <pt x="150" y="344" on="0"/>
        <pt x="107" y="375" on="0"/>
        <pt x="97" y="391" on="1"/>
        <pt x="129" y="434" on="1"/>
        <pt x="155" y="468" on="0"/>
        <pt x="211" y="516" on="1"/>
        <pt x="135" y="520" on="0"/>
        <pt x="98" y="534" on="1"/>
      </contour>
    </TTGlyph>
    <TTGlyph name="at" xMin="52" yMin="-187" xMax="902" yMax="676">
      <contour>
        <pt x="659" y="412" on="1"/>
        <pt x="658" y="156" on="1"/>
        <pt x="658" y="84" on="0"/>
        <pt x="746" y="84" on="0"/>
        <pt x="806" y="185" on="0"/>
        <pt x="806" y="292" on="1"/>
        <pt x="806" y="433" on="0"/>
        <pt x="633" y="604" on="0"/>
        <pt x="337" y="604" on="0"/>
        <pt x="149" y="390" on="0"/>
        <pt x="149" y="65" on="0"/>
        <pt x="313" y="-111" on="0"/>
        <pt x="450" y="-111" on="1"/>
        <pt x="564" y="-111" on="0"/>
        <pt x="654" y="-74" on="1"/>
        <pt x="681" y="-99" on="0"/>
        <pt x="681" y="-143" on="1"/>
        <pt x="564" y="-187" on="0"/>
        <pt x="445" y="-187" on="1"/>
        <pt x="268" y="-187" on="0"/>
        <pt x="52" y="28" on="0"/>
        <pt x="52" y="420" on="0"/>
        <pt x="298" y="676" on="0"/>
        <pt x="673" y="676" on="0"/>
        <pt x="902" y="465" on="0"/>
        <pt x="902" y="289" on="1"/>
        <pt x="902" y="159" on="0"/>
        <pt x="782" y="10" on="0"/>
        <pt x="616" y="10" on="0"/>
        <pt x="582" y="73" on="1"/>
        <pt x="520" y="6" on="0"/>
        <pt x="368" y="6" on="0"/>
        <pt x="283" y="125" on="0"/>
        <pt x="283" y="336" on="0"/>
        <pt x="391" y="481" on="0"/>
        <pt x="586" y="481" on="0"/>
      </contour>
      <contour>
        <pt x="462" y="83" on="1"/>
        <pt x="488" y="83" on="0"/>
        <pt x="546" y="119" on="0"/>
        <pt x="566" y="146" on="1"/>
        <pt x="566" y="378" on="1"/>
        <pt x="535" y="409" on="0"/>
        <pt x="434" y="409" on="0"/>
        <pt x="378" y="307" on="0"/>
        <pt x="378" y="229" on="1"/>
        <pt x="378" y="83" on="0"/>
      </contour>
    </TTGlyph>
    <TTGlyph name="atilde" xMin="45" yMin="-13" xMax="458" yMax="690">
      <component glyphName="a" x="0" y="0" flags="0x1004"/>
      <component glyphName="tilde" x="45" y="0" flags="0x1004"/>
    </TTGlyph>
    <TTGlyph name="atilde.smcp" xMin="14" yMin="-7" xMax="526" yMax="742">
      <contour>
        <pt x="381" y="125" on="1"/>
        <pt x="329" y="124" on="1"/>
        <pt x="206" y="124" on="1"/>
        <pt x="150" y="125" on="1"/>
        <pt x="106" y="-1" on="1"/>
        <pt x="89" y="-5" on="0"/>
        <pt x="35" y="-5" on="0"/>
        <pt x="18" y="2" on="1"/>
        <pt x="14" y="7" on="1"/>
        <pt x="214" y="545" on="1"/>
        <pt x="235" y="549" on="0"/>
        <pt x="307" y="549" on="0"/>
        <pt x="327" y="545" on="1"/>
        <pt x="526" y="4" on="1"/>
        <pt x="502" y="-7" on="0"/>
        <pt x="447" y="-7" on="0"/>
        <pt x="421" y="12" on="0"/>
        <pt x="412" y="39" on="1"/>
      </contour>
      <contour>
        <pt x="178" y="204" on="1"/>
        <pt x="225" y="205" on="1"/>
        <pt x="312" y="205" on="1"/>
        <pt x="314" y="205" on="0"/>
        <pt x="346" y="204" on="0"/>
        <pt x="353" y="204" on="1"/>
        <pt x="316" y="307" on="1"/>
        <pt x="287" y="395" on="0"/>
        <pt x="268" y="462" on="1"/>
        <pt x="264" y="462" on="1"/>
        <pt x="247" y="401" on="0"/>
        <pt x="223" y="329" on="1"/>
      </contour>
      <contour>
        <pt x="284" y="623" on="1"/>
        <pt x="228" y="651" on="1"/>
        <pt x="208" y="660" on="0"/>
        <pt x="176" y="660" on="0"/>
        <pt x="156" y="635" on="1"/>
        <pt x="145" y="620" on="1"/>
        <pt x="130" y="620" on="0"/>
        <pt x="102" y="637" on="0"/>
        <pt x="97" y="650" on="1"/>
        <pt x="106" y="670" on="1"/>
        <pt x="120" y="703" on="0"/>
        <pt x="172" y="742" on="0"/>
        <pt x="228" y="742" on="0"/>
        <pt x="260" y="726" on="1"/>
        <pt x="316" y="699" on="1"/>
        <pt x="332" y="690" on="0"/>
        <pt x="368" y="690" on="0"/>
        <pt x="388" y="715" on="1"/>
        <pt x="399" y="730" on="1"/>
        <pt x="414" y="729" on="0"/>
        <pt x="442" y="712" on="0"/>
        <pt x="447" y="699" on="1"/>
        <pt x="438" y="680" on="1"/>
        <pt x="423" y="646" on="0"/>
        <pt x="371" y="608" on="0"/>
        <pt x="316" y="608" on="0"/>
      </contour>
    </TTGlyph>
    <TTGlyph name="b" xMin="80" yMin="-8" xMax="482" yMax="735">
      <contour>
        <pt x="392" y="501" on="0"/>
        <pt x="482" y="365" on="0"/>
        <pt x="482" y="127" on="0"/>
        <pt x="356" y="-8" on="0"/>
        <pt x="168" y="-8" on="0"/>
        <pt x="80" y="25" on="1"/>
        <pt x="80" y="729" on="1"/>
        <pt x="87" y="735" on="1"/>
        <pt x="122" y="735" on="1"/>
        <pt x="152" y="735" on="0"/>
        <pt x="175" y="707" on="0"/>
        <pt x="175" y="673" on="1"/>
        <pt x="175" y="448" on="1"/>
        <pt x="236" y="501" on="0"/>
      </contour>
      <contour>
        <pt x="289" y="420" on="1"/>
        <pt x="223" y="420" on="0"/>
        <pt x="175" y="360" on="1"/>
        <pt x="175" y="78" on="1"/>
        <pt x="213" y="65" on="0"/>
        <pt x="316" y="65" on="0"/>
        <pt x="383" y="161" on="0"/>
        <pt x="383" y="337" on="0"/>
        <pt x="331" y="420" on="0"/>
      </contour>
    </TTGlyph>
    <TTGlyph name="b.smcp" xMin="86" yMin="-3" xMax="501" yMax="548">
      <contour>
        <pt x="91" y="545" on="1"/>
        <pt x="268" y="548" on="0"/>
        <pt x="273" y="548" on="1"/>
        <pt x="471" y="548" on="0"/>
        <pt x="471" y="405" on="1"/>
        <pt x="471" y="367" on="0"/>
        <pt x="427" y="306" on="0"/>
        <pt x="389" y="293" on="1"/>
        <pt x="436" y="280" on="0"/>
        <pt x="501" y="203" on="0"/>
        <pt x="501" y="154" on="1"/>
        <pt x="501" y="80" on="0"/>
        <pt x="393" y="-3" on="0"/>
        <pt x="194" y="-3" on="0"/>
        <pt x="91" y="0" on="1"/>
        <pt x="86" y="5" on="1"/>
        <pt x="86" y="540" on="1"/>
      </contour>
      <contour>
        <pt x="182" y="70" on="1"/>
        <pt x="288" y="71" on="1"/>
        <pt x="351" y="71" on="0"/>
        <pt x="400" y="123" on="0"/>
        <pt x="400" y="195" on="0"/>
        <pt x="343" y="250" on="0"/>
        <pt x="279" y="250" on="1"/>
        <pt x="182" y="250" on="1"/>
      </contour>
      <contour>
        <pt x="182" y="476" on="1"/>
        <pt x="182" y="324" on="1"/>
        <pt x="270" y="324" on="1"/>
        <pt x="373" y="324" on="0"/>
        <pt x="373" y="475" on="0"/>
        <pt x="272" y="475" on="1"/>
        <pt x="210" y="475" on="0"/>
      </contour>
    </TTGlyph>
    <TTGlyph name="backslash" xMin="11" yMin="-110" xMax="411" yMax="760">
      <contour>
        <pt x="327" y="-110" on="1"/>
        <pt x="11" y="729" on="1"/>
        <pt x="48" y="758" on="0"/>
        <pt x="95" y="760" on="1"/>
        <pt x="411" y="-78" on="1"/>
        <pt x="376" y="-105" on="0"/>
      </contour>
    </TTGlyph>
    <TTGlyph name="bar" xMin="81" yMin="-145" xMax="172" yMax="779">
      <contour>
        <pt x="81" y="-141" on="1"/>
        <pt x="81" y="774" on="1"/>
        <pt x="98" y="779" on="0"/>
        <pt x="154" y="779" on="0"/>
        <pt x="172" y="774" on="1"/>
        <pt x="172" y="-141" on="1"/>
        <pt x="153" y="-145" on="0"/>
        <pt x="100" y="-145" on="0"/>
      </contour>
    </TTGlyph>
    <TTGlyph name="braceleft" xMin="38" yMin="-167" xMax="332" yMax="817">
      <contour>
        <pt x="313" y="817" on="1"/>
        <pt x="332" y="796" on="0"/>
        <pt x="332" y="763" on="1"/>
        <pt x="332" y="755" on="0"/>
        <pt x="330" y="749" on="1"/>
        <pt x="282" y="734" on="1"/>
        <pt x="222" y="715" on="0"/>
        <pt x="222" y="646" on="1"/>
        <pt x="222" y="478" on="1"/>
        <pt x="222" y="430" on="0"/>
        <pt x="177" y="347" on="0"/>
        <pt x="140" y="329" on="1"/>
        <pt x="140" y="321" on="1"/>
        <pt x="177" y="303" on="0"/>
        <pt x="222" y="220" on="0"/>
        <pt x="222" y="172" on="1"/>
        <pt x="222" y="4" on="1"/>
        <pt x="222" y="-67" on="0"/>
        <pt x="282" y="-84" on="1"/>
        <pt x="330" y="-100" on="1"/>
        <pt x="332" y="-106" on="0"/>
        <pt x="332" y="-123" on="0"/>
        <pt x="323" y="-156" on="0"/>
        <pt x="313" y="-167" on="1"/>
        <pt x="264" y="-159" on="1"/>
        <pt x="200" y="-148" on="0"/>
        <pt x="124" y="-66" on="0"/>
        <pt x="124" y="3" on="1"/>
        <pt x="124" y="174" on="1"/>
        <pt x="124" y="218" on="0"/>
        <pt x="78" y="281" on="0"/>
        <pt x="42" y="293" on="1"/>
        <pt x="38" y="304" on="0"/>
        <pt x="38" y="346" on="0"/>
        <pt x="42" y="357" on="1"/>
        <pt x="78" y="369" on="0"/>
        <pt x="124" y="432" on="0"/>
        <pt x="124" y="476" on="1"/>
        <pt x="124" y="647" on="1"/>
        <pt x="124" y="716" on="0"/>
        <pt x="200" y="798" on="0"/>
        <pt x="264" y="809" on="1"/>
      </contour>
    </TTGlyph>
    <TTGlyph name="braceright" xMin="8" yMin="-167" xMax="302" yMax="817">
      <contour>
        <pt x="27" y="-167" on="1"/>
        <pt x="8" y="-146" on="0"/>
        <pt x="8" y="-113" on="1"/>
        <pt x="8" y="-106" on="0"/>
        <pt x="10" y="-100" on="1"/>
        <pt x="58" y="-84" on="1"/>
        <pt x="118" y="-67" on="0"/>
        <pt x="118" y="4" on="1"/>
        <pt x="118" y="172" on="1"/>
        <pt x="118" y="220" on="0"/>
        <pt x="163" y="303" on="0"/>
        <pt x="200" y="321" on="1"/>
        <pt x="200" y="329" on="1"/>
        <pt x="163" y="347" on="0"/>
        <pt x="118" y="430" on="0"/>
        <pt x="118" y="478" on="1"/>
        <pt x="118" y="646" on="1"/>
        <pt x="118" y="715" on="0"/>
        <pt x="58" y="734" on="1"/>
        <pt x="10" y="749" on="1"/>
        <pt x="8" y="755" on="0"/>
        <pt x="8" y="773" on="0"/>
        <pt x="17" y="806" on="0"/>
        <pt x="27" y="817" on="1"/>
        <pt x="77" y="809" on="1"/>
        <pt x="140" y="798" on="0"/>
        <pt x="216" y="715" on="0"/>
        <pt x="216" y="647" on="1"/>
        <pt x="216" y="476" on="1"/>
        <pt x="216" y="432" on="0"/>
        <pt x="262" y="369" on="0"/>
        <pt x="298" y="357" on="1"/>
        <pt x="302" y="346" on="0"/>
        <pt x="302" y="304" on="0"/>
        <pt x="298" y="293" on="1"/>
        <pt x="262" y="281" on="0"/>
        <pt x="216" y="218" on="0"/>
        <pt x="216" y="174" on="1"/>
        <pt x="216" y="3" on="1"/>
        <pt x="216" y="-65" on="0"/>
        <pt x="140" y="-148" on="0"/>
        <pt x="77" y="-159" on="1"/>
      </contour>
    </TTGlyph>
    <TTGlyph name="bracketleft" xMin="99" yMin="-148" xMax="307" yMax="814">
      <contour>
        <pt x="303" y="-140" on="1"/>
        <pt x="106" y="-148" on="1"/>
        <pt x="99" y="-141" on="1"/>
        <pt x="99" y="807" on="1"/>
        <pt x="106" y="814" on="1"/>
        <pt x="303" y="806" on="1"/>
        <pt x="307" y="795" on="0"/>
        <pt x="307" y="760" on="0"/>
        <pt x="299" y="736" on="1"/>
        <pt x="197" y="733" on="1"/>
        <pt x="197" y="-67" on="1"/>
        <pt x="299" y="-69" on="1"/>
        <pt x="307" y="-96" on="0"/>
        <pt x="307" y="-128" on="0"/>
      </contour>
    </TTGlyph>
    <TTGlyph name="bracketright" xMin="31" yMin="-148" xMax="238" yMax="814">
      <contour>
        <pt x="231" y="-148" on="1"/>
        <pt x="34" y="-140" on="1"/>
        <pt x="31" y="-131" on="0"/>
        <pt x="31" y="-89" on="0"/>
        <pt x="39" y="-69" on="1"/>
        <pt x="141" y="-67" on="1"/>
        <pt x="141" y="733" on="1"/>
        <pt x="39" y="736" on="1"/>
        <pt x="31" y="754" on="0"/>
        <pt x="31" y="798" on="0"/>
        <pt x="34" y="806" on="1"/>
        <pt x="231" y="814" on="1"/>
        <pt x="238" y="807" on="1"/>
        <pt x="238" y="-141" on="1"/>
      </contour>
    </TTGlyph>
    <TTGlyph name="brokenbar" xMin="79" yMin="-145" xMax="169" yMax="779">
      <contour>
        <pt x="79" y="-141" on="1"/>
        <pt x="79" y="246" on="1"/>
        <pt x="95" y="251" on="0"/>
        <pt x="152" y="251" on="0"/>
        <pt x="169" y="246" on="1"/>
        <pt x="169" y="-141" on="1"/>
        <pt x="150" y="-145" on="0"/>
        <pt x="96" y="-145" on="0"/>
      </contour>
      <contour>
        <pt x="79" y="387" on="1"/>
        <pt x="79" y="774" on="1"/>
        <pt x="95" y="779" on="0"/>
        <pt x="152" y="779" on="0"/>
        <pt x="169" y="774" on="1"/>
        <pt x="169" y="387" on="1"/>
        <pt x="150" y="383" on="0"/>
        <pt x="96" y="383" on="0"/>
      </contour>
    </TTGlyph>
    <TTGlyph name="bullet" xMin="112" yMin="165" xMax="335" yMax="378">
      <contour>
        <pt x="127" y="186" on="1"/>
        <pt x="112" y="217" on="0"/>
        <pt x="112" y="326" on="0"/>
        <pt x="127" y="357" on="1"/>
        <pt x="164" y="378" on="0"/>
        <pt x="287" y="378" on="0"/>
        <pt x="320" y="357" on="1"/>
        <pt x="335" y="326" on="0"/>
        <pt x="335" y="218" on="0"/>
        <pt x="320" y="186" on="1"/>
        <pt x="288" y="165" on="0"/>
        <pt x="164" y="165" on="0"/>
      </contour>
    </TTGlyph>
    <TTGlyph name="c" xMin="46" yMin="-13" xMax="433" yMax="506">
      <contour>
        <pt x="343" y="306" on="1"/>
        <pt x="343" y="311" on="0"/>
        <pt x="343" y="316" on="1"/>
        <pt x="343" y="431" on="0"/>
        <pt x="251" y="431" on="1"/>
        <pt x="201" y="431" on="0"/>
        <pt x="146" y="335" on="0"/>
        <pt x="146" y="243" on="1"/>
        <pt x="146" y="67" on="0"/>
        <pt x="262" y="67" on="1"/>
        <pt x="315" y="67" on="0"/>
        <pt x="385" y="119" on="1"/>
        <pt x="399" y="111" on="0"/>
        <pt x="423" y="77" on="0"/>
        <pt x="427" y="61" on="1"/>
        <pt x="353" y="-13" on="0"/>
        <pt x="147" y="-13" on="0"/>
        <pt x="46" y="133" on="0"/>
        <pt x="46" y="373" on="0"/>
        <pt x="166" y="506" on="0"/>
        <pt x="338" y="506" on="0"/>
        <pt x="433" y="413" on="0"/>
        <pt x="433" y="302" on="0"/>
        <pt x="383" y="302" on="1"/>
        <pt x="360" y="302" on="0"/>
      </contour>
    </TTGlyph>
    <TTGlyph name="c.smcp" xMin="41" yMin="-13" xMax="502" yMax="558">
      <contour>
        <pt x="408" y="335" on="1"/>
        <pt x="406" y="478" on="0"/>
        <pt x="286" y="478" on="1"/>
        <pt x="144" y="478" on="0"/>
        <pt x="144" y="271" on="1"/>
        <pt x="144" y="173" on="0"/>
        <pt x="223" y="71" on="0"/>
        <pt x="366" y="71" on="0"/>
        <pt x="447" y="132" on="1"/>
        <pt x="463" y="122" on="0"/>
        <pt x="491" y="84" on="0"/>
        <pt x="495" y="68" on="1"/>
        <pt x="405" y="-13" on="0"/>
        <pt x="276" y="-13" on="1"/>
        <pt x="194" y="-13" on="0"/>
        <pt x="84" y="72" on="0"/>
        <pt x="41" y="195" on="0"/>
        <pt x="41" y="271" on="1"/>
        <pt x="41" y="413" on="0"/>
        <pt x="182" y="558" on="0"/>
        <pt x="390" y="558" on="0"/>
        <pt x="502" y="454" on="0"/>
        <pt x="502" y="387" on="1"/>
        <pt x="502" y="331" on="0"/>
        <pt x="445" y="331" on="1"/>
        <pt x="434" y="331" on="0"/>
      </contour>
    </TTGlyph>
    <TTGlyph name="cacute" xMin="46" yMin="-13" xMax="433" yMax="735">
      <component glyphName="c" x="0" y="0" flags="0x1004"/>
      <component glyphName="acute" x="53" y="0" flags="0x1004"/>
    </TTGlyph>
    <TTGlyph name="cacute.smcp" xMin="41" yMin="-13" xMax="502" yMax="787">
      <contour>
        <pt x="408" y="335" on="1"/>
        <pt x="406" y="478" on="0"/>
        <pt x="286" y="478" on="1"/>
        <pt x="144" y="478" on="0"/>
        <pt x="144" y="271" on="1"/>
        <pt x="144" y="173" on="0"/>
        <pt x="223" y="71" on="0"/>
        <pt x="366" y="71" on="0"/>
        <pt x="447" y="132" on="1"/>
        <pt x="463" y="122" on="0"/>
        <pt x="491" y="84" on="0"/>
        <pt x="495" y="68" on="1"/>
        <pt x="405" y="-13" on="0"/>
        <pt x="276" y="-13" on="1"/>
        <pt x="194" y="-13" on="0"/>
        <pt x="84" y="72" on="0"/>
        <pt x="41" y="195" on="0"/>
        <pt x="41" y="271" on="1"/>
        <pt x="41" y="413" on="0"/>
        <pt x="182" y="558" on="0"/>
        <pt x="390" y="558" on="0"/>
        <pt x="502" y="454" on="0"/>
        <pt x="502" y="387" on="1"/>
        <pt x="502" y="331" on="0"/>
        <pt x="445" y="331" on="1"/>
        <pt x="434" y="331" on="0"/>
      </contour>
      <contour>
        <pt x="216" y="629" on="1"/>
        <pt x="358" y="787" on="1"/>
        <pt x="380" y="780" on="0"/>
        <pt x="420" y="743" on="0"/>
        <pt x="428" y="722" on="1"/>
        <pt x="259" y="589" on="1"/>
        <pt x="227" y="600" on="0"/>
      </contour>
    </TTGlyph>
    <TTGlyph name="caron" xMin="58" yMin="548" xMax="345" yMax="730">
      <contour>
        <pt x="105" y="724" on="1"/>
        <pt x="199" y="632" on="1"/>
        <pt x="300" y="730" on="1"/>
        <pt x="329" y="718" on="0"/>
        <pt x="345" y="689" on="1"/>
        <pt x="238" y="555" on="1"/>
        <pt x="222" y="549" on="0"/>
        <pt x="180" y="549" on="0"/>
        <pt x="156" y="554" on="1"/>
        <pt x="58" y="680" on="1"/>
        <pt x="74" y="714" on="0"/>
      </contour>
    </TTGlyph>
    <TTGlyph name="caron.alt" xMin="202" yMin="556" xMax="306" yMax="780">
      <contour>
        <pt x="202" y="566" on="1"/>
        <pt x="214" y="777" on="1"/>
        <pt x="226" y="780" on="0"/>
        <pt x="238" y="780" on="1"/>
        <pt x="281" y="780" on="0"/>
        <pt x="306" y="764" on="1"/>
        <pt x="259" y="562" on="1"/>
        <pt x="246" y="557" on="0"/>
        <pt x="217" y="557" on="0"/>
      </contour>
    </TTGlyph>
    <TTGlyph name="caron.cap" xMin="42" yMin="737" xMax="355" yMax="896">
      <contour>
        <pt x="86" y="889" on="1"/>
        <pt x="197" y="814" on="1"/>
        <pt x="312" y="896" on="1"/>
        <pt x="325" y="891" on="0"/>
        <pt x="351" y="866" on="0"/>
        <pt x="355" y="853" on="1"/>
        <pt x="241" y="741" on="1"/>
        <pt x="217" y="737" on="0"/>
        <pt x="174" y="737" on="0"/>
        <pt x="154" y="741" on="1"/>
        <pt x="42" y="846" on="1"/>
        <pt x="52" y="878" on="0"/>
      </contour>
    </TTGlyph>
    <TTGlyph name="ccaron" xMin="46" yMin="-13" xMax="433" yMax="730">
      <contour>
        <pt x="343" y="306" on="1"/>
        <pt x="343" y="311" on="0"/>
        <pt x="343" y="316" on="1"/>
        <pt x="343" y="431" on="0"/>
        <pt x="251" y="431" on="1"/>
        <pt x="201" y="431" on="0"/>
        <pt x="146" y="335" on="0"/>
        <pt x="146" y="243" on="1"/>
        <pt x="146" y="67" on="0"/>
        <pt x="262" y="67" on="1"/>
        <pt x="315" y="67" on="0"/>
        <pt x="385" y="119" on="1"/>
        <pt x="399" y="111" on="0"/>
        <pt x="423" y="77" on="0"/>
        <pt x="427" y="61" on="1"/>
        <pt x="353" y="-13" on="0"/>
        <pt x="147" y="-13" on="0"/>
        <pt x="46" y="133" on="0"/>
        <pt x="46" y="373" on="0"/>
        <pt x="166" y="506" on="0"/>
        <pt x="338" y="506" on="0"/>
        <pt x="433" y="413" on="0"/>
        <pt x="433" y="302" on="0"/>
        <pt x="383" y="302" on="1"/>
        <pt x="360" y="302" on="0"/>
      </contour>
      <contour>
        <pt x="157" y="724" on="1"/>
        <pt x="251" y="632" on="1"/>
        <pt x="352" y="730" on="1"/>
        <pt x="381" y="718" on="0"/>
        <pt x="397" y="689" on="1"/>
        <pt x="290" y="555" on="1"/>
        <pt x="274" y="549" on="0"/>
        <pt x="232" y="549" on="0"/>
        <pt x="208" y="554" on="1"/>
        <pt x="110" y="680" on="1"/>
        <pt x="126" y="714" on="0"/>
      </contour>
    </TTGlyph>
    <TTGlyph name="ccaron.smcp" xMin="41" yMin="-13" xMax="502" yMax="782">
      <contour>
        <pt x="408" y="335" on="1"/>
        <pt x="406" y="478" on="0"/>
        <pt x="286" y="478" on="1"/>
        <pt x="144" y="478" on="0"/>
        <pt x="144" y="271" on="1"/>
        <pt x="144" y="173" on="0"/>
        <pt x="223" y="71" on="0"/>
        <pt x="366" y="71" on="0"/>
        <pt x="447" y="132" on="1"/>
        <pt x="463" y="122" on="0"/>
        <pt x="491" y="84" on="0"/>
        <pt x="495" y="68" on="1"/>
        <pt x="405" y="-13" on="0"/>
        <pt x="276" y="-13" on="1"/>
        <pt x="194" y="-13" on="0"/>
        <pt x="84" y="72" on="0"/>
        <pt x="41" y="195" on="0"/>
        <pt x="41" y="271" on="1"/>
        <pt x="41" y="413" on="0"/>
        <pt x="182" y="558" on="0"/>
        <pt x="390" y="558" on="0"/>
        <pt x="502" y="454" on="0"/>
        <pt x="502" y="387" on="1"/>
        <pt x="502" y="331" on="0"/>
        <pt x="445" y="331" on="1"/>
        <pt x="434" y="331" on="0"/>
      </contour>
      <contour>
        <pt x="194" y="776" on="1"/>
        <pt x="288" y="684" on="1"/>
        <pt x="389" y="782" on="1"/>
        <pt x="418" y="770" on="0"/>
        <pt x="434" y="741" on="1"/>
        <pt x="327" y="607" on="1"/>
        <pt x="311" y="601" on="0"/>
        <pt x="269" y="601" on="0"/>
        <pt x="245" y="606" on="1"/>
        <pt x="147" y="732" on="1"/>
        <pt x="163" y="766" on="0"/>
      </contour>
    </TTGlyph>
    <TTGlyph name="ccedilla" xMin="46" yMin="-222" xMax="433" yMax="506">
      <contour>
        <pt x="196" y="-74" on="1"/>
        <pt x="202" y="-48" on="0"/>
        <pt x="217" y="-11" on="1"/>
        <pt x="131" y="0" on="0"/>
        <pt x="46" y="142" on="0"/>
        <pt x="46" y="243" on="1"/>
        <pt x="46" y="373" on="0"/>
        <pt x="166" y="506" on="0"/>
        <pt x="338" y="506" on="0"/>
        <pt x="433" y="413" on="0"/>
        <pt x="433" y="302" on="0"/>
        <pt x="383" y="302" on="1"/>
        <pt x="360" y="302" on="0"/>
        <pt x="343" y="306" on="1"/>
        <pt x="343" y="311" on="0"/>
        <pt x="343" y="316" on="1"/>
        <pt x="343" y="431" on="0"/>
        <pt x="251" y="431" on="1"/>
        <pt x="201" y="431" on="0"/>
        <pt x="146" y="335" on="0"/>
        <pt x="146" y="243" on="1"/>
        <pt x="146" y="67" on="0"/>
        <pt x="262" y="67" on="1"/>
        <pt x="315" y="67" on="0"/>
        <pt x="385" y="119" on="1"/>
        <pt x="399" y="111" on="0"/>
        <pt x="423" y="77" on="0"/>
        <pt x="427" y="61" on="1"/>
        <pt x="365" y="-1" on="0"/>
        <pt x="279" y="-11" on="1"/>
        <pt x="270" y="-29" on="0"/>
        <pt x="268" y="-37" on="1"/>
        <pt x="309" y="-40" on="0"/>
        <pt x="360" y="-88" on="0"/>
        <pt x="360" y="-168" on="0"/>
        <pt x="293" y="-222" on="0"/>
        <pt x="196" y="-222" on="0"/>
        <pt x="164" y="-203" on="1"/>
        <pt x="165" y="-176" on="0"/>
        <pt x="184" y="-152" on="1"/>
        <pt x="207" y="-166" on="0"/>
        <pt x="258" y="-166" on="0"/>
        <pt x="280" y="-143" on="0"/>
        <pt x="280" y="-109" on="0"/>
        <pt x="258" y="-86" on="0"/>
        <pt x="225" y="-86" on="0"/>
        <pt x="213" y="-91" on="1"/>
        <pt x="199" y="-86" on="0"/>
      </contour>
    </TTGlyph>
    <TTGlyph name="ccedilla.smcp" xMin="41" yMin="-222" xMax="502" yMax="558">
      <contour>
        <pt x="231" y="-74" on="1"/>
        <pt x="241" y="-38" on="0"/>
        <pt x="252" y="-12" on="1"/>
        <pt x="196" y="-8" on="0"/>
        <pt x="112" y="43" on="0"/>
        <pt x="88" y="84" on="1"/>
        <pt x="41" y="163" on="0"/>
        <pt x="41" y="271" on="1"/>
        <pt x="41" y="413" on="0"/>
        <pt x="182" y="558" on="0"/>
        <pt x="390" y="558" on="0"/>
        <pt x="502" y="454" on="0"/>
        <pt x="502" y="387" on="1"/>
        <pt x="502" y="331" on="0"/>
        <pt x="445" y="331" on="1"/>
        <pt x="434" y="331" on="0"/>
        <pt x="408" y="335" on="1"/>
        <pt x="406" y="478" on="0"/>
        <pt x="286" y="478" on="1"/>
        <pt x="144" y="478" on="0"/>
        <pt x="144" y="271" on="1"/>
        <pt x="144" y="173" on="0"/>
        <pt x="223" y="71" on="0"/>
        <pt x="366" y="71" on="0"/>
        <pt x="447" y="132" on="1"/>
        <pt x="463" y="122" on="0"/>
        <pt x="491" y="84" on="0"/>
        <pt x="495" y="68" on="1"/>
        <pt x="420" y="0" on="0"/>
        <pt x="314" y="-11" on="1"/>
        <pt x="305" y="-29" on="0"/>
        <pt x="303" y="-37" on="1"/>
        <pt x="344" y="-40" on="0"/>
        <pt x="395" y="-87" on="0"/>
        <pt x="395" y="-168" on="0"/>
        <pt x="328" y="-222" on="0"/>
        <pt x="230" y="-222" on="0"/>
        <pt x="200" y="-203" on="1"/>
        <pt x="201" y="-176" on="0"/>
        <pt x="220" y="-152" on="1"/>
        <pt x="241" y="-166" on="0"/>
        <pt x="293" y="-166" on="0"/>
        <pt x="316" y="-143" on="0"/>
        <pt x="316" y="-109" on="0"/>
        <pt x="293" y="-86" on="0"/>
        <pt x="260" y="-86" on="0"/>
        <pt x="248" y="-91" on="1"/>
        <pt x="236" y="-86" on="0"/>
      </contour>
    </TTGlyph>
    <TTGlyph name="cedilla" xMin="115" yMin="-222" xMax="311" yMax="0">
      <contour>
        <pt x="146" y="-74" on="1"/>
        <pt x="157" y="-33" on="0"/>
        <pt x="172" y="0" on="1"/>
        <pt x="236" y="0" on="1"/>
        <pt x="219" y="-33" on="0"/>
        <pt x="218" y="-37" on="1"/>
        <pt x="259" y="-40" on="0"/>
        <pt x="311" y="-87" on="0"/>
        <pt x="311" y="-167" on="0"/>
        <pt x="244" y="-222" on="0"/>
        <pt x="145" y="-222" on="0"/>
        <pt x="115" y="-203" on="1"/>
        <pt x="116" y="-176" on="0"/>
        <pt x="135" y="-152" on="1"/>
        <pt x="158" y="-166" on="0"/>
        <pt x="208" y="-166" on="0"/>
        <pt x="231" y="-143" on="0"/>
        <pt x="231" y="-108" on="0"/>
        <pt x="208" y="-86" on="0"/>
        <pt x="176" y="-86" on="0"/>
        <pt x="164" y="-91" on="1"/>
        <pt x="151" y="-86" on="0"/>
      </contour>
    </TTGlyph>
    <TTGlyph name="cent" xMin="44" yMin="-33" xMax="429" yMax="684">
      <contour>
        <pt x="208" y="-31" on="1"/>
        <pt x="208" y="69" on="1"/>
        <pt x="123" y="83" on="0"/>
        <pt x="44" y="226" on="0"/>
        <pt x="44" y="436" on="0"/>
        <pt x="138" y="567" on="0"/>
        <pt x="211" y="582" on="1"/>
        <pt x="211" y="681" on="1"/>
        <pt x="225" y="684" on="0"/>
        <pt x="274" y="684" on="0"/>
        <pt x="290" y="681" on="1"/>
        <pt x="290" y="583" on="1"/>
        <pt x="357" y="573" on="0"/>
        <pt x="429" y="487" on="0"/>
        <pt x="429" y="440" on="1"/>
        <pt x="429" y="382" on="0"/>
        <pt x="378" y="382" on="1"/>
        <pt x="356" y="382" on="0"/>
        <pt x="340" y="386" on="1"/>
        <pt x="340" y="392" on="0"/>
        <pt x="340" y="398" on="1"/>
        <pt x="340" y="441" on="0"/>
        <pt x="300" y="510" on="0"/>
        <pt x="248" y="510" on="1"/>
        <pt x="146" y="510" on="0"/>
        <pt x="146" y="147" on="0"/>
        <pt x="261" y="147" on="1"/>
        <pt x="320" y="147" on="0"/>
        <pt x="382" y="200" on="1"/>
        <pt x="414" y="179" on="0"/>
        <pt x="426" y="145" on="1"/>
        <pt x="372" y="83" on="0"/>
        <pt x="287" y="69" on="1"/>
        <pt x="287" y="-31" on="1"/>
        <pt x="276" y="-33" on="0"/>
        <pt x="217" y="-33" on="0"/>
      </contour>
    </TTGlyph>
    <TTGlyph name="cent.smcp" xMin="40" yMin="-32" xMax="386" yMax="580">
      <contour>
        <pt x="183" y="-29" on="1"/>
        <pt x="183" y="50" on="1"/>
        <pt x="108" y="65" on="0"/>
        <pt x="40" y="190" on="0"/>
        <pt x="40" y="368" on="0"/>
        <pt x="122" y="482" on="0"/>
        <pt x="186" y="496" on="1"/>
        <pt x="186" y="576" on="1"/>
        <pt x="199" y="580" on="0"/>
        <pt x="248" y="580" on="0"/>
        <pt x="261" y="576" on="1"/>
        <pt x="261" y="497" on="1"/>
        <pt x="321" y="488" on="0"/>
        <pt x="386" y="416" on="0"/>
        <pt x="386" y="372" on="1"/>
        <pt x="386" y="316" on="0"/>
        <pt x="335" y="316" on="1"/>
        <pt x="316" y="316" on="0"/>
        <pt x="298" y="321" on="1"/>
        <pt x="298" y="326" on="0"/>
        <pt x="298" y="331" on="1"/>
        <pt x="298" y="425" on="0"/>
        <pt x="222" y="425" on="1"/>
        <pt x="181" y="425" on="0"/>
        <pt x="136" y="346" on="0"/>
        <pt x="136" y="270" on="1"/>
        <pt x="136" y="124" on="0"/>
        <pt x="235" y="124" on="1"/>
        <pt x="284" y="124" on="0"/>
        <pt x="342" y="163" on="1"/>
        <pt x="354" y="155" on="0"/>
        <pt x="379" y="125" on="0"/>
        <pt x="383" y="110" on="1"/>
        <pt x="336" y="62" on="0"/>
        <pt x="259" y="49" on="1"/>
        <pt x="259" y="-29" on="1"/>
        <pt x="249" y="-32" on="0"/>
        <pt x="198" y="-32" on="0"/>
      </contour>
    </TTGlyph>
    <TTGlyph name="circumflex" xMin="55" yMin="540" xMax="342" yMax="721">
      <contour>
        <pt x="294" y="546" on="1"/>
        <pt x="200" y="637" on="1"/>
        <pt x="100" y="540" on="1"/>
        <pt x="71" y="552" on="0"/>
        <pt x="55" y="581" on="1"/>
        <pt x="161" y="715" on="1"/>
        <pt x="177" y="720" on="0"/>
        <pt x="218" y="720" on="0"/>
        <pt x="244" y="715" on="1"/>
        <pt x="342" y="589" on="1"/>
        <pt x="327" y="556" on="0"/>
      </contour>
    </TTGlyph>
    <TTGlyph name="circumflex.cap" xMin="41" yMin="730" xMax="353" yMax="890">
      <contour>
        <pt x="310" y="737" on="1"/>
        <pt x="198" y="812" on="1"/>
        <pt x="84" y="730" on="1"/>
        <pt x="71" y="735" on="0"/>
        <pt x="45" y="760" on="0"/>
        <pt x="41" y="774" on="1"/>
        <pt x="155" y="885" on="1"/>
        <pt x="176" y="890" on="0"/>
        <pt x="220" y="890" on="0"/>
        <pt x="242" y="885" on="1"/>
        <pt x="353" y="780" on="1"/>
        <pt x="348" y="765" on="0"/>
        <pt x="323" y="741" on="0"/>
      </contour>
    </TTGlyph>
    <TTGlyph name="colon" xMin="65" yMin="-8" xMax="201" yMax="446">
      <contour>
        <pt x="65" y="22" on="0"/>
        <pt x="65" y="84" on="0"/>
        <pt x="74" y="102" on="1"/>
        <pt x="96" y="114" on="0"/>
        <pt x="171" y="114" on="0"/>
        <pt x="192" y="102" on="1"/>
        <pt x="201" y="84" on="0"/>
        <pt x="201" y="22" on="0"/>
        <pt x="192" y="4" on="1"/>
        <pt x="173" y="-8" on="0"/>
        <pt x="96" y="-8" on="0"/>
        <pt x="74" y="4" on="1"/>
      </contour>
      <contour>
        <pt x="65" y="354" on="0"/>
        <pt x="65" y="416" on="0"/>
        <pt x="74" y="434" on="1"/>
        <pt x="96" y="446" on="0"/>
        <pt x="171" y="446" on="0"/>
        <pt x="192" y="434" on="1"/>
        <pt x="201" y="416" on="0"/>
        <pt x="201" y="354" on="0"/>
        <pt x="192" y="336" on="1"/>
        <pt x="173" y="324" on="0"/>
        <pt x="96" y="324" on="0"/>
        <pt x="74" y="336" on="1"/>
      </contour>
    </TTGlyph>
    <TTGlyph name="comma" xMin="34" yMin="-159" xMax="204" yMax="114">
      <contour>
        <pt x="60" y="-159" on="1"/>
        <pt x="35" y="-145" on="0"/>
        <pt x="35" y="-116" on="1"/>
        <pt x="35" y="-112" on="0"/>
        <pt x="35" y="-109" on="1"/>
        <pt x="70" y="-93" on="0"/>
        <pt x="115" y="-40" on="0"/>
        <pt x="116" y="-9" on="1"/>
        <pt x="86" y="-1" on="0"/>
        <pt x="77" y="5" on="1"/>
        <pt x="68" y="21" on="0"/>
        <pt x="68" y="88" on="0"/>
        <pt x="77" y="101" on="1"/>
        <pt x="101" y="114" on="0"/>
        <pt x="176" y="114" on="0"/>
        <pt x="194" y="101" on="1"/>
        <pt x="204" y="78" on="0"/>
        <pt x="204" y="37" on="1"/>
        <pt x="204" y="-28" on="0"/>
        <pt x="130" y="-134" on="0"/>
      </contour>
    </TTGlyph>
    <TTGlyph name="commaaccent" xMin="109" yMin="-260" xMax="261" yMax="-53">
      <contour>
        <pt x="155" y="-70" on="1"/>
        <pt x="181" y="-53" on="0"/>
        <pt x="238" y="-53" on="0"/>
        <pt x="252" y="-58" on="1"/>
        <pt x="261" y="-78" on="0"/>
        <pt x="261" y="-158" on="0"/>
        <pt x="197" y="-237" on="0"/>
        <pt x="141" y="-260" on="1"/>
        <pt x="116" y="-251" on="0"/>
        <pt x="109" y="-218" on="1"/>
        <pt x="168" y="-180" on="0"/>
        <pt x="168" y="-123" on="1"/>
        <pt x="168" y="-94" on="0"/>
      </contour>
    </TTGlyph>
    <TTGlyph name="commaaccent.cap" xMin="109" yMin="-260" xMax="261" yMax="-53">
      <contour>
        <pt x="155" y="-70" on="1"/>
        <pt x="181" y="-53" on="0"/>
        <pt x="238" y="-53" on="0"/>
        <pt x="252" y="-58" on="1"/>
        <pt x="261" y="-78" on="0"/>
        <pt x="261" y="-158" on="0"/>
        <pt x="197" y="-237" on="0"/>
        <pt x="141" y="-260" on="1"/>
        <pt x="116" y="-251" on="0"/>
        <pt x="109" y="-218" on="1"/>
        <pt x="168" y="-180" on="0"/>
        <pt x="168" y="-123" on="1"/>
        <pt x="168" y="-94" on="0"/>
      </contour>
    </TTGlyph>
    <TTGlyph name="copyright" xMin="41" yMin="-19" xMax="763" yMax="702">
      <contour>
        <pt x="41" y="188" on="0"/>
        <pt x="41" y="494" on="0"/>
        <pt x="249" y="702" on="0"/>
        <pt x="554" y="702" on="0"/>
        <pt x="763" y="494" on="0"/>
        <pt x="763" y="188" on="0"/>
        <pt x="555" y="-19" on="0"/>
        <pt x="249" y="-19" on="0"/>
      </contour>
      <contour>
        <pt x="283" y="632" on="0"/>
        <pt x="124" y="463" on="0"/>
        <pt x="124" y="220" on="0"/>
        <pt x="283" y="51" on="0"/>
        <pt x="521" y="51" on="0"/>
        <pt x="680" y="220" on="0"/>
        <pt x="680" y="462" on="0"/>
        <pt x="521" y="632" on="0"/>
      </contour>
      <contour>
        <pt x="476" y="382" on="1"/>
        <pt x="476" y="387" on="0"/>
        <pt x="476" y="392" on="1"/>
        <pt x="476" y="424" on="0"/>
        <pt x="442" y="477" on="0"/>
        <pt x="360" y="477" on="0"/>
        <pt x="314" y="407" on="0"/>
        <pt x="314" y="278" on="0"/>
        <pt x="366" y="209" on="0"/>
        <pt x="463" y="209" on="0"/>
        <pt x="513" y="250" on="1"/>
        <pt x="539" y="237" on="0"/>
        <pt x="549" y="203" on="1"/>
        <pt x="523" y="177" on="0"/>
        <pt x="440" y="143" on="0"/>
        <pt x="400" y="143" on="1"/>
        <pt x="318" y="143" on="0"/>
        <pt x="228" y="253" on="0"/>
        <pt x="228" y="439" on="0"/>
        <pt x="333" y="541" on="0"/>
        <pt x="474" y="541" on="0"/>
        <pt x="553" y="466" on="0"/>
        <pt x="553" y="377" on="0"/>
        <pt x="510" y="377" on="1"/>
        <pt x="491" y="377" on="0"/>
      </contour>
    </TTGlyph>
    <TTGlyph name="currency" xMin="33" yMin="82" xMax="539" yMax="588">
      <contour>
        <pt x="104" y="213" on="1"/>
        <pt x="69" y="267" on="0"/>
        <pt x="69" y="404" on="0"/>
        <pt x="104" y="456" on="1"/>
        <pt x="33" y="533" on="1"/>
        <pt x="49" y="563" on="0"/>
        <pt x="87" y="587" on="1"/>
        <pt x="164" y="515" on="1"/>
        <pt x="219" y="549" on="0"/>
        <pt x="354" y="549" on="0"/>
        <pt x="407" y="515" on="1"/>
        <pt x="486" y="588" on="1"/>
        <pt x="519" y="570" on="0"/>
        <pt x="539" y="535" on="1"/>
        <pt x="467" y="456" on="1"/>
        <pt x="503" y="403" on="0"/>
        <pt x="503" y="266" on="0"/>
        <pt x="467" y="213" on="1"/>
        <pt x="539" y="135" on="1"/>
        <pt x="522" y="104" on="0"/>
        <pt x="486" y="82" on="1"/>
        <pt x="407" y="154" on="1"/>
        <pt x="354" y="121" on="0"/>
        <pt x="218" y="121" on="0"/>
        <pt x="165" y="154" on="1"/>
        <pt x="87" y="82" on="1"/>
        <pt x="54" y="101" on="0"/>
        <pt x="33" y="136" on="1"/>
      </contour>
      <contour>
        <pt x="232" y="475" on="0"/>
        <pt x="167" y="393" on="0"/>
        <pt x="167" y="276" on="0"/>
        <pt x="232" y="195" on="0"/>
        <pt x="341" y="195" on="0"/>
        <pt x="405" y="275" on="0"/>
        <pt x="405" y="394" on="0"/>
        <pt x="341" y="475" on="0"/>
      </contour>
    </TTGlyph>
    <TTGlyph name="currency.smcp" xMin="19" yMin="53" xMax="446" yMax="481">
      <contour>
        <pt x="50" y="211" on="0"/>
        <pt x="50" y="323" on="0"/>
        <pt x="77" y="365" on="1"/>
        <pt x="19" y="428" on="1"/>
        <pt x="34" y="458" on="0"/>
        <pt x="72" y="480" on="1"/>
        <pt x="136" y="421" on="1"/>
        <pt x="179" y="445" on="0"/>
        <pt x="284" y="445" on="0"/>
        <pt x="327" y="421" on="1"/>
        <pt x="393" y="481" on="1"/>
        <pt x="424" y="463" on="0"/>
        <pt x="446" y="429" on="1"/>
        <pt x="387" y="364" on="1"/>
        <pt x="414" y="320" on="0"/>
        <pt x="414" y="211" on="0"/>
        <pt x="386" y="169" on="1"/>
        <pt x="445" y="106" on="1"/>
        <pt x="428" y="75" on="0"/>
        <pt x="392" y="53" on="1"/>
        <pt x="327" y="113" on="1"/>
        <pt x="286" y="90" on="0"/>
        <pt x="178" y="90" on="0"/>
        <pt x="137" y="113" on="1"/>
        <pt x="72" y="54" on="1"/>
        <pt x="41" y="70" on="0"/>
        <pt x="19" y="106" on="1"/>
        <pt x="77" y="169" on="1"/>
      </contour>
      <contour>
        <pt x="190" y="375" on="0"/>
        <pt x="144" y="314" on="0"/>
        <pt x="144" y="221" on="0"/>
        <pt x="190" y="160" on="0"/>
        <pt x="273" y="160" on="0"/>
        <pt x="321" y="221" on="0"/>
        <pt x="321" y="313" on="0"/>
        <pt x="273" y="375" on="0"/>
      </contour>
    </TTGlyph>
</ttFont>
